<mxfile host="app.diagrams.net" modified="2022-06-03T06:17:13.703Z" agent="5.0 (Macintosh; Intel Mac OS X 10_15_7) AppleWebKit/537.36 (KHTML, like Gecko) Chrome/102.0.5005.61 Safari/537.36" etag="oV8HcHpWv5N8ktXpRsue" version="18.2.1" type="github">
  <diagram id="vMxeByeMzCUiSNfpBySE" name="beegfs">
    <mxGraphModel dx="996" dy="680" grid="1" gridSize="10" guides="1" tooltips="1" connect="1" arrows="1" fold="1" page="1" pageScale="1" pageWidth="827" pageHeight="1169" math="0" shadow="0">
      <root>
        <mxCell id="0" />
        <mxCell id="1" parent="0" />
        <mxCell id="dOUqNgxCJLWoSc9xT5iU-423" value="" style="rounded=1;whiteSpace=wrap;html=1;fillColor=#f5f5f5;fontColor=#333333;strokeColor=#666666;" parent="1" vertex="1">
          <mxGeometry x="120" y="2500" width="250" height="70" as="geometry" />
        </mxCell>
        <mxCell id="dOUqNgxCJLWoSc9xT5iU-313" value="" style="rounded=1;whiteSpace=wrap;html=1;fillColor=#dae8fc;strokeColor=#6c8ebf;" parent="1" vertex="1">
          <mxGeometry x="120" y="1369" width="100" height="201" as="geometry" />
        </mxCell>
        <mxCell id="dOUqNgxCJLWoSc9xT5iU-14" value="" style="group" parent="1" vertex="1" connectable="0">
          <mxGeometry x="80" y="40" width="110" height="180" as="geometry" />
        </mxCell>
        <mxCell id="dOUqNgxCJLWoSc9xT5iU-1" value="" style="rounded=1;whiteSpace=wrap;html=1;" parent="dOUqNgxCJLWoSc9xT5iU-14" vertex="1">
          <mxGeometry width="110" height="180" as="geometry" />
        </mxCell>
        <mxCell id="dOUqNgxCJLWoSc9xT5iU-3" value="" style="html=1;whiteSpace=wrap;shape=isoCube2;backgroundOutline=1;isoAngle=15;fillColor=#d5e8d4;strokeColor=#82b366;" parent="dOUqNgxCJLWoSc9xT5iU-14" vertex="1">
          <mxGeometry x="60" y="125" width="40" height="45" as="geometry" />
        </mxCell>
        <mxCell id="dOUqNgxCJLWoSc9xT5iU-4" value="client" style="text;html=1;align=center;verticalAlign=middle;resizable=0;points=[];autosize=1;strokeColor=none;fillColor=none;" parent="dOUqNgxCJLWoSc9xT5iU-14" vertex="1">
          <mxGeometry x="20" y="137.5" width="40" height="20" as="geometry" />
        </mxCell>
        <mxCell id="dOUqNgxCJLWoSc9xT5iU-6" style="edgeStyle=orthogonalEdgeStyle;rounded=0;orthogonalLoop=1;jettySize=auto;html=1;entryX=0.5;entryY=0;entryDx=0;entryDy=0;entryPerimeter=0;" parent="dOUqNgxCJLWoSc9xT5iU-14" source="dOUqNgxCJLWoSc9xT5iU-5" target="dOUqNgxCJLWoSc9xT5iU-3" edge="1">
          <mxGeometry relative="1" as="geometry" />
        </mxCell>
        <mxCell id="dOUqNgxCJLWoSc9xT5iU-5" value="" style="shape=image;verticalLabelPosition=bottom;labelBackgroundColor=default;verticalAlign=top;aspect=fixed;imageAspect=0;image=https://icon-library.com/images/folder-icon-files/folder-icon-files-21.jpg;" parent="dOUqNgxCJLWoSc9xT5iU-14" vertex="1">
          <mxGeometry x="70" y="70" width="20" height="20" as="geometry" />
        </mxCell>
        <mxCell id="dOUqNgxCJLWoSc9xT5iU-7" value="kernel" style="text;html=1;align=center;verticalAlign=middle;resizable=0;points=[];autosize=1;strokeColor=none;fillColor=none;" parent="dOUqNgxCJLWoSc9xT5iU-14" vertex="1">
          <mxGeometry y="105" width="50" height="20" as="geometry" />
        </mxCell>
        <mxCell id="dOUqNgxCJLWoSc9xT5iU-8" value="userspace" style="text;html=1;align=center;verticalAlign=middle;resizable=0;points=[];autosize=1;strokeColor=none;fillColor=none;" parent="dOUqNgxCJLWoSc9xT5iU-14" vertex="1">
          <mxGeometry y="80" width="70" height="20" as="geometry" />
        </mxCell>
        <mxCell id="dOUqNgxCJLWoSc9xT5iU-9" value="" style="endArrow=none;dashed=1;html=1;rounded=0;exitX=0.004;exitY=0.582;exitDx=0;exitDy=0;entryX=0.996;entryY=0.576;entryDx=0;entryDy=0;exitPerimeter=0;entryPerimeter=0;" parent="dOUqNgxCJLWoSc9xT5iU-14" source="dOUqNgxCJLWoSc9xT5iU-1" target="dOUqNgxCJLWoSc9xT5iU-1" edge="1">
          <mxGeometry width="50" height="50" relative="1" as="geometry">
            <mxPoint x="100" y="190" as="sourcePoint" />
            <mxPoint x="150" y="140" as="targetPoint" />
          </mxGeometry>
        </mxCell>
        <mxCell id="dOUqNgxCJLWoSc9xT5iU-13" style="edgeStyle=orthogonalEdgeStyle;rounded=0;orthogonalLoop=1;jettySize=auto;html=1;entryX=0.5;entryY=0;entryDx=0;entryDy=0;" parent="dOUqNgxCJLWoSc9xT5iU-14" source="dOUqNgxCJLWoSc9xT5iU-11" target="dOUqNgxCJLWoSc9xT5iU-5" edge="1">
          <mxGeometry relative="1" as="geometry" />
        </mxCell>
        <mxCell id="dOUqNgxCJLWoSc9xT5iU-11" value="" style="shape=image;html=1;verticalAlign=top;verticalLabelPosition=bottom;labelBackgroundColor=#ffffff;imageAspect=0;aspect=fixed;image=https://cdn4.iconfinder.com/data/icons/essentials-73/24/042_-_Apps-128.png" parent="dOUqNgxCJLWoSc9xT5iU-14" vertex="1">
          <mxGeometry x="65" y="10" width="30" height="30" as="geometry" />
        </mxCell>
        <mxCell id="dOUqNgxCJLWoSc9xT5iU-29" value="" style="group" parent="1" vertex="1" connectable="0">
          <mxGeometry x="230" y="80" width="260" height="140" as="geometry" />
        </mxCell>
        <mxCell id="dOUqNgxCJLWoSc9xT5iU-25" value="" style="rounded=1;whiteSpace=wrap;html=1;dashed=1;" parent="dOUqNgxCJLWoSc9xT5iU-29" vertex="1">
          <mxGeometry width="260" height="140" as="geometry" />
        </mxCell>
        <mxCell id="dOUqNgxCJLWoSc9xT5iU-17" value="mtmtd" style="rounded=1;whiteSpace=wrap;html=1;fillColor=#dae8fc;strokeColor=#6c8ebf;" parent="dOUqNgxCJLWoSc9xT5iU-29" vertex="1">
          <mxGeometry x="90" y="10" width="80" height="40" as="geometry" />
        </mxCell>
        <mxCell id="dOUqNgxCJLWoSc9xT5iU-18" value="" style="rounded=1;whiteSpace=wrap;html=1;fillColor=#f8cecc;strokeColor=#b85450;" parent="dOUqNgxCJLWoSc9xT5iU-29" vertex="1">
          <mxGeometry x="10" y="70" width="80" height="40" as="geometry" />
        </mxCell>
        <mxCell id="dOUqNgxCJLWoSc9xT5iU-26" style="edgeStyle=orthogonalEdgeStyle;rounded=0;orthogonalLoop=1;jettySize=auto;html=1;entryX=0.5;entryY=0;entryDx=0;entryDy=0;curved=1;exitX=0;exitY=0.5;exitDx=0;exitDy=0;startArrow=classic;startFill=1;" parent="dOUqNgxCJLWoSc9xT5iU-29" source="dOUqNgxCJLWoSc9xT5iU-17" target="dOUqNgxCJLWoSc9xT5iU-18" edge="1">
          <mxGeometry relative="1" as="geometry" />
        </mxCell>
        <mxCell id="dOUqNgxCJLWoSc9xT5iU-19" value="" style="rounded=1;whiteSpace=wrap;html=1;fillColor=#f8cecc;strokeColor=#b85450;" parent="dOUqNgxCJLWoSc9xT5iU-29" vertex="1">
          <mxGeometry x="20" y="80" width="80" height="40" as="geometry" />
        </mxCell>
        <mxCell id="dOUqNgxCJLWoSc9xT5iU-20" value="meta" style="rounded=1;whiteSpace=wrap;html=1;fillColor=#f8cecc;strokeColor=#b85450;" parent="dOUqNgxCJLWoSc9xT5iU-29" vertex="1">
          <mxGeometry x="30" y="90" width="80" height="40" as="geometry" />
        </mxCell>
        <mxCell id="dOUqNgxCJLWoSc9xT5iU-28" style="edgeStyle=orthogonalEdgeStyle;curved=1;rounded=0;orthogonalLoop=1;jettySize=auto;html=1;entryX=1;entryY=0.5;entryDx=0;entryDy=0;startArrow=classic;startFill=1;" parent="dOUqNgxCJLWoSc9xT5iU-29" source="dOUqNgxCJLWoSc9xT5iU-21" target="dOUqNgxCJLWoSc9xT5iU-17" edge="1">
          <mxGeometry relative="1" as="geometry" />
        </mxCell>
        <mxCell id="dOUqNgxCJLWoSc9xT5iU-21" value="" style="rounded=1;whiteSpace=wrap;html=1;fillColor=#fff2cc;strokeColor=#d6b656;" parent="dOUqNgxCJLWoSc9xT5iU-29" vertex="1">
          <mxGeometry x="170" y="70" width="80" height="40" as="geometry" />
        </mxCell>
        <mxCell id="dOUqNgxCJLWoSc9xT5iU-22" value="" style="rounded=1;whiteSpace=wrap;html=1;fillColor=#fff2cc;strokeColor=#d6b656;" parent="dOUqNgxCJLWoSc9xT5iU-29" vertex="1">
          <mxGeometry x="160" y="80" width="80" height="40" as="geometry" />
        </mxCell>
        <mxCell id="dOUqNgxCJLWoSc9xT5iU-23" value="storage" style="rounded=1;whiteSpace=wrap;html=1;fillColor=#fff2cc;strokeColor=#d6b656;" parent="dOUqNgxCJLWoSc9xT5iU-29" vertex="1">
          <mxGeometry x="150" y="90" width="80" height="40" as="geometry" />
        </mxCell>
        <mxCell id="dOUqNgxCJLWoSc9xT5iU-27" style="edgeStyle=orthogonalEdgeStyle;curved=1;rounded=0;orthogonalLoop=1;jettySize=auto;html=1;entryX=0;entryY=0.5;entryDx=0;entryDy=0;startArrow=classic;startFill=1;" parent="dOUqNgxCJLWoSc9xT5iU-29" source="dOUqNgxCJLWoSc9xT5iU-20" target="dOUqNgxCJLWoSc9xT5iU-23" edge="1">
          <mxGeometry relative="1" as="geometry" />
        </mxCell>
        <mxCell id="dOUqNgxCJLWoSc9xT5iU-30" style="edgeStyle=orthogonalEdgeStyle;curved=1;rounded=0;orthogonalLoop=1;jettySize=auto;html=1;entryX=0;entryY=0.767;entryDx=0;entryDy=0;entryPerimeter=0;startArrow=none;startFill=0;" parent="1" source="dOUqNgxCJLWoSc9xT5iU-3" target="dOUqNgxCJLWoSc9xT5iU-25" edge="1">
          <mxGeometry relative="1" as="geometry" />
        </mxCell>
        <mxCell id="dOUqNgxCJLWoSc9xT5iU-43" value="" style="rounded=1;whiteSpace=wrap;html=1;arcSize=7;" parent="1" vertex="1">
          <mxGeometry x="120" y="280" width="600" height="250" as="geometry" />
        </mxCell>
        <mxCell id="dOUqNgxCJLWoSc9xT5iU-52" style="edgeStyle=orthogonalEdgeStyle;curved=1;rounded=0;orthogonalLoop=1;jettySize=auto;html=1;entryX=0;entryY=0.5;entryDx=0;entryDy=0;startArrow=none;startFill=0;" parent="1" source="dOUqNgxCJLWoSc9xT5iU-47" target="dOUqNgxCJLWoSc9xT5iU-49" edge="1">
          <mxGeometry relative="1" as="geometry" />
        </mxCell>
        <mxCell id="dOUqNgxCJLWoSc9xT5iU-53" style="edgeStyle=orthogonalEdgeStyle;curved=1;rounded=0;orthogonalLoop=1;jettySize=auto;html=1;entryX=0;entryY=0.5;entryDx=0;entryDy=0;startArrow=none;startFill=0;" parent="1" source="dOUqNgxCJLWoSc9xT5iU-47" target="dOUqNgxCJLWoSc9xT5iU-51" edge="1">
          <mxGeometry relative="1" as="geometry" />
        </mxCell>
        <mxCell id="dOUqNgxCJLWoSc9xT5iU-54" style="edgeStyle=orthogonalEdgeStyle;curved=1;rounded=0;orthogonalLoop=1;jettySize=auto;html=1;entryX=0;entryY=0.5;entryDx=0;entryDy=0;startArrow=none;startFill=0;" parent="1" source="dOUqNgxCJLWoSc9xT5iU-47" target="dOUqNgxCJLWoSc9xT5iU-50" edge="1">
          <mxGeometry relative="1" as="geometry" />
        </mxCell>
        <mxCell id="dOUqNgxCJLWoSc9xT5iU-47" value="" style="sketch=0;outlineConnect=0;fontColor=#232F3E;gradientColor=none;fillColor=#4D27AA;strokeColor=none;dashed=0;verticalLabelPosition=bottom;verticalAlign=top;align=center;html=1;fontSize=12;fontStyle=0;aspect=fixed;pointerEvents=1;shape=mxgraph.aws4.elastic_network_interface;" parent="1" vertex="1">
          <mxGeometry x="130" y="340" width="40" height="40" as="geometry" />
        </mxCell>
        <mxCell id="dOUqNgxCJLWoSc9xT5iU-68" style="edgeStyle=orthogonalEdgeStyle;curved=1;rounded=0;orthogonalLoop=1;jettySize=auto;html=1;startArrow=none;startFill=0;entryX=0;entryY=0.5;entryDx=0;entryDy=0;" parent="1" source="dOUqNgxCJLWoSc9xT5iU-49" target="dOUqNgxCJLWoSc9xT5iU-57" edge="1">
          <mxGeometry relative="1" as="geometry">
            <mxPoint x="280" y="330" as="targetPoint" />
          </mxGeometry>
        </mxCell>
        <mxCell id="dOUqNgxCJLWoSc9xT5iU-49" value="rdma" style="rounded=1;whiteSpace=wrap;html=1;" parent="1" vertex="1">
          <mxGeometry x="210" y="290" width="40" height="40" as="geometry" />
        </mxCell>
        <mxCell id="dOUqNgxCJLWoSc9xT5iU-89" style="edgeStyle=orthogonalEdgeStyle;curved=1;rounded=0;orthogonalLoop=1;jettySize=auto;html=1;startArrow=none;startFill=0;" parent="1" source="dOUqNgxCJLWoSc9xT5iU-50" edge="1">
          <mxGeometry relative="1" as="geometry">
            <mxPoint x="530" y="410" as="targetPoint" />
          </mxGeometry>
        </mxCell>
        <mxCell id="dOUqNgxCJLWoSc9xT5iU-50" value="udp" style="rounded=1;whiteSpace=wrap;html=1;" parent="1" vertex="1">
          <mxGeometry x="210" y="390" width="40" height="40" as="geometry" />
        </mxCell>
        <mxCell id="dOUqNgxCJLWoSc9xT5iU-69" style="edgeStyle=orthogonalEdgeStyle;curved=1;rounded=0;orthogonalLoop=1;jettySize=auto;html=1;entryX=0;entryY=0.5;entryDx=0;entryDy=0;startArrow=none;startFill=0;" parent="1" source="dOUqNgxCJLWoSc9xT5iU-51" target="dOUqNgxCJLWoSc9xT5iU-57" edge="1">
          <mxGeometry relative="1" as="geometry" />
        </mxCell>
        <mxCell id="dOUqNgxCJLWoSc9xT5iU-51" value="tcp" style="rounded=1;whiteSpace=wrap;html=1;" parent="1" vertex="1">
          <mxGeometry x="210" y="340" width="40" height="40" as="geometry" />
        </mxCell>
        <mxCell id="dOUqNgxCJLWoSc9xT5iU-67" value="" style="group" parent="1" vertex="1" connectable="0">
          <mxGeometry x="290" y="290" width="120" height="40" as="geometry" />
        </mxCell>
        <mxCell id="dOUqNgxCJLWoSc9xT5iU-57" value="" style="rounded=1;whiteSpace=wrap;html=1;fillColor=#f5f5f5;fontColor=#333333;strokeColor=#666666;" parent="dOUqNgxCJLWoSc9xT5iU-67" vertex="1">
          <mxGeometry width="120" height="40" as="geometry" />
        </mxCell>
        <mxCell id="dOUqNgxCJLWoSc9xT5iU-56" value="" style="ellipse;whiteSpace=wrap;html=1;aspect=fixed;fillColor=#dae8fc;strokeColor=#6c8ebf;" parent="dOUqNgxCJLWoSc9xT5iU-67" vertex="1">
          <mxGeometry x="10" y="10" width="20" height="20" as="geometry" />
        </mxCell>
        <mxCell id="dOUqNgxCJLWoSc9xT5iU-58" value="" style="ellipse;whiteSpace=wrap;html=1;aspect=fixed;fillColor=#dae8fc;strokeColor=#6c8ebf;" parent="dOUqNgxCJLWoSc9xT5iU-67" vertex="1">
          <mxGeometry x="20" y="10" width="20" height="20" as="geometry" />
        </mxCell>
        <mxCell id="dOUqNgxCJLWoSc9xT5iU-60" value="" style="ellipse;whiteSpace=wrap;html=1;aspect=fixed;fillColor=#dae8fc;strokeColor=#6c8ebf;" parent="dOUqNgxCJLWoSc9xT5iU-67" vertex="1">
          <mxGeometry x="30" y="10" width="20" height="20" as="geometry" />
        </mxCell>
        <mxCell id="dOUqNgxCJLWoSc9xT5iU-59" value="" style="ellipse;whiteSpace=wrap;html=1;aspect=fixed;fillColor=#dae8fc;strokeColor=#6c8ebf;" parent="dOUqNgxCJLWoSc9xT5iU-67" vertex="1">
          <mxGeometry x="40" y="10" width="20" height="20" as="geometry" />
        </mxCell>
        <mxCell id="dOUqNgxCJLWoSc9xT5iU-61" value="" style="ellipse;whiteSpace=wrap;html=1;aspect=fixed;fillColor=#dae8fc;strokeColor=#6c8ebf;" parent="dOUqNgxCJLWoSc9xT5iU-67" vertex="1">
          <mxGeometry x="50" y="10" width="20" height="20" as="geometry" />
        </mxCell>
        <mxCell id="dOUqNgxCJLWoSc9xT5iU-63" value="" style="ellipse;whiteSpace=wrap;html=1;aspect=fixed;fillColor=#dae8fc;strokeColor=#6c8ebf;" parent="dOUqNgxCJLWoSc9xT5iU-67" vertex="1">
          <mxGeometry x="60" y="10" width="20" height="20" as="geometry" />
        </mxCell>
        <mxCell id="dOUqNgxCJLWoSc9xT5iU-62" value="" style="ellipse;whiteSpace=wrap;html=1;aspect=fixed;fillColor=#dae8fc;strokeColor=#6c8ebf;" parent="dOUqNgxCJLWoSc9xT5iU-67" vertex="1">
          <mxGeometry x="70" y="10" width="20" height="20" as="geometry" />
        </mxCell>
        <mxCell id="dOUqNgxCJLWoSc9xT5iU-64" value="" style="ellipse;whiteSpace=wrap;html=1;aspect=fixed;fillColor=#dae8fc;strokeColor=#6c8ebf;" parent="dOUqNgxCJLWoSc9xT5iU-67" vertex="1">
          <mxGeometry x="80" y="10" width="20" height="20" as="geometry" />
        </mxCell>
        <mxCell id="dOUqNgxCJLWoSc9xT5iU-65" value="" style="ellipse;whiteSpace=wrap;html=1;aspect=fixed;fillColor=#dae8fc;strokeColor=#6c8ebf;" parent="dOUqNgxCJLWoSc9xT5iU-67" vertex="1">
          <mxGeometry x="90" y="10" width="20" height="20" as="geometry" />
        </mxCell>
        <mxCell id="dOUqNgxCJLWoSc9xT5iU-70" value="" style="endArrow=none;dashed=1;html=1;rounded=0;curved=1;" parent="1" edge="1">
          <mxGeometry width="50" height="50" relative="1" as="geometry">
            <mxPoint x="270" y="380" as="sourcePoint" />
            <mxPoint x="270" y="290" as="targetPoint" />
          </mxGeometry>
        </mxCell>
        <mxCell id="dOUqNgxCJLWoSc9xT5iU-71" value="" style="endArrow=none;dashed=1;html=1;rounded=0;curved=1;exitX=0.366;exitY=0.625;exitDx=0;exitDy=0;exitPerimeter=0;" parent="1" edge="1">
          <mxGeometry width="50" height="50" relative="1" as="geometry">
            <mxPoint x="430.05999999999995" y="380" as="sourcePoint" />
            <mxPoint x="430" y="290" as="targetPoint" />
          </mxGeometry>
        </mxCell>
        <mxCell id="dOUqNgxCJLWoSc9xT5iU-77" value="" style="group" parent="1" vertex="1" connectable="0">
          <mxGeometry x="450" y="290" width="50" height="90" as="geometry" />
        </mxCell>
        <mxCell id="dOUqNgxCJLWoSc9xT5iU-76" value="" style="rounded=1;whiteSpace=wrap;html=1;fillColor=#f5f5f5;fontColor=#333333;strokeColor=#666666;" parent="dOUqNgxCJLWoSc9xT5iU-77" vertex="1">
          <mxGeometry width="50" height="90" as="geometry" />
        </mxCell>
        <mxCell id="dOUqNgxCJLWoSc9xT5iU-72" value="" style="shape=image;html=1;verticalAlign=top;verticalLabelPosition=bottom;labelBackgroundColor=#ffffff;imageAspect=0;aspect=fixed;image=https://cdn4.iconfinder.com/data/icons/evil-icons-user-interface/64/download-128.png" parent="dOUqNgxCJLWoSc9xT5iU-77" vertex="1">
          <mxGeometry x="10" width="30" height="30" as="geometry" />
        </mxCell>
        <mxCell id="dOUqNgxCJLWoSc9xT5iU-74" value="" style="shape=image;html=1;verticalAlign=top;verticalLabelPosition=bottom;labelBackgroundColor=#ffffff;imageAspect=0;aspect=fixed;image=https://cdn4.iconfinder.com/data/icons/evil-icons-user-interface/64/download-128.png" parent="dOUqNgxCJLWoSc9xT5iU-77" vertex="1">
          <mxGeometry x="10" y="40" width="30" height="30" as="geometry" />
        </mxCell>
        <mxCell id="dOUqNgxCJLWoSc9xT5iU-75" value="" style="shape=image;html=1;verticalAlign=top;verticalLabelPosition=bottom;labelBackgroundColor=#ffffff;imageAspect=0;aspect=fixed;image=https://cdn4.iconfinder.com/data/icons/evil-icons-user-interface/64/download-128.png" parent="dOUqNgxCJLWoSc9xT5iU-77" vertex="1">
          <mxGeometry x="10" y="60" width="30" height="30" as="geometry" />
        </mxCell>
        <mxCell id="dOUqNgxCJLWoSc9xT5iU-73" value="" style="shape=image;html=1;verticalAlign=top;verticalLabelPosition=bottom;labelBackgroundColor=#ffffff;imageAspect=0;aspect=fixed;image=https://cdn4.iconfinder.com/data/icons/evil-icons-user-interface/64/download-128.png" parent="dOUqNgxCJLWoSc9xT5iU-77" vertex="1">
          <mxGeometry x="10" y="20" width="30" height="30" as="geometry" />
        </mxCell>
        <mxCell id="dOUqNgxCJLWoSc9xT5iU-78" style="edgeStyle=orthogonalEdgeStyle;curved=1;rounded=0;orthogonalLoop=1;jettySize=auto;html=1;startArrow=none;startFill=0;" parent="1" source="dOUqNgxCJLWoSc9xT5iU-65" target="dOUqNgxCJLWoSc9xT5iU-76" edge="1">
          <mxGeometry relative="1" as="geometry" />
        </mxCell>
        <mxCell id="dOUqNgxCJLWoSc9xT5iU-80" value="" style="endArrow=none;html=1;rounded=0;curved=1;exitX=0.683;exitY=1.003;exitDx=0;exitDy=0;exitPerimeter=0;" parent="1" source="dOUqNgxCJLWoSc9xT5iU-43" edge="1">
          <mxGeometry width="50" height="50" relative="1" as="geometry">
            <mxPoint x="530" y="490" as="sourcePoint" />
            <mxPoint x="530.2" y="280.0000000000001" as="targetPoint" />
          </mxGeometry>
        </mxCell>
        <mxCell id="dOUqNgxCJLWoSc9xT5iU-82" value="节点注册" style="rounded=1;whiteSpace=wrap;html=1;" parent="1" vertex="1">
          <mxGeometry x="540" y="290" width="80" height="40" as="geometry" />
        </mxCell>
        <mxCell id="dOUqNgxCJLWoSc9xT5iU-83" value="target映射" style="rounded=1;whiteSpace=wrap;html=1;" parent="1" vertex="1">
          <mxGeometry x="540" y="340" width="80" height="40" as="geometry" />
        </mxCell>
        <mxCell id="dOUqNgxCJLWoSc9xT5iU-84" value="查询服务" style="rounded=1;whiteSpace=wrap;html=1;" parent="1" vertex="1">
          <mxGeometry x="630" y="290" width="80" height="40" as="geometry" />
        </mxCell>
        <mxCell id="dOUqNgxCJLWoSc9xT5iU-85" value="心跳服务" style="rounded=1;whiteSpace=wrap;html=1;" parent="1" vertex="1">
          <mxGeometry x="630" y="340" width="80" height="40" as="geometry" />
        </mxCell>
        <mxCell id="dOUqNgxCJLWoSc9xT5iU-86" value="文件存储池" style="rounded=1;whiteSpace=wrap;html=1;" parent="1" vertex="1">
          <mxGeometry x="540" y="390" width="80" height="40" as="geometry" />
        </mxCell>
        <mxCell id="dOUqNgxCJLWoSc9xT5iU-87" value="启停控制" style="rounded=1;whiteSpace=wrap;html=1;" parent="1" vertex="1">
          <mxGeometry x="630" y="390" width="80" height="40" as="geometry" />
        </mxCell>
        <mxCell id="dOUqNgxCJLWoSc9xT5iU-88" style="edgeStyle=orthogonalEdgeStyle;curved=1;rounded=0;orthogonalLoop=1;jettySize=auto;html=1;startArrow=none;startFill=0;" parent="1" source="dOUqNgxCJLWoSc9xT5iU-76" edge="1">
          <mxGeometry relative="1" as="geometry">
            <mxPoint x="530" y="335.0000000000001" as="targetPoint" />
          </mxGeometry>
        </mxCell>
        <mxCell id="dOUqNgxCJLWoSc9xT5iU-90" value="配额管理" style="rounded=1;whiteSpace=wrap;html=1;" parent="1" vertex="1">
          <mxGeometry x="540" y="440" width="80" height="40" as="geometry" />
        </mxCell>
        <mxCell id="dOUqNgxCJLWoSc9xT5iU-91" value="" style="endArrow=none;dashed=1;html=1;rounded=0;curved=1;" parent="1" edge="1">
          <mxGeometry width="50" height="50" relative="1" as="geometry">
            <mxPoint x="160" y="440" as="sourcePoint" />
            <mxPoint x="480" y="440" as="targetPoint" />
          </mxGeometry>
        </mxCell>
        <mxCell id="dOUqNgxCJLWoSc9xT5iU-106" style="edgeStyle=orthogonalEdgeStyle;curved=1;rounded=0;orthogonalLoop=1;jettySize=auto;html=1;entryX=0.5;entryY=0;entryDx=0;entryDy=0;entryPerimeter=0;startArrow=none;startFill=0;" parent="1" source="dOUqNgxCJLWoSc9xT5iU-103" target="dOUqNgxCJLWoSc9xT5iU-105" edge="1">
          <mxGeometry relative="1" as="geometry" />
        </mxCell>
        <mxCell id="dOUqNgxCJLWoSc9xT5iU-103" value="" style="shape=image;verticalLabelPosition=bottom;labelBackgroundColor=default;verticalAlign=top;aspect=fixed;imageAspect=0;image=https://icon-library.com/images/folder-icon-files/folder-icon-files-21.jpg;" parent="1" vertex="1">
          <mxGeometry x="340" y="445" width="20" height="20" as="geometry" />
        </mxCell>
        <mxCell id="dOUqNgxCJLWoSc9xT5iU-104" value="/pfs.dir" style="text;html=1;align=center;verticalAlign=middle;resizable=0;points=[];autosize=1;strokeColor=none;fillColor=none;" parent="1" vertex="1">
          <mxGeometry x="285" y="445" width="50" height="20" as="geometry" />
        </mxCell>
        <mxCell id="dOUqNgxCJLWoSc9xT5iU-125" style="edgeStyle=orthogonalEdgeStyle;curved=1;rounded=0;orthogonalLoop=1;jettySize=auto;html=1;startArrow=none;startFill=0;" parent="1" source="dOUqNgxCJLWoSc9xT5iU-105" target="dOUqNgxCJLWoSc9xT5iU-124" edge="1">
          <mxGeometry relative="1" as="geometry">
            <mxPoint x="330" y="550" as="targetPoint" />
          </mxGeometry>
        </mxCell>
        <mxCell id="dOUqNgxCJLWoSc9xT5iU-105" value="disk" style="shape=cylinder3;whiteSpace=wrap;html=1;boundedLbl=1;backgroundOutline=1;size=5.076923076922981;fillColor=#f8cecc;strokeColor=#b85450;" parent="1" vertex="1">
          <mxGeometry x="330" y="480" width="40" height="40" as="geometry" />
        </mxCell>
        <mxCell id="dOUqNgxCJLWoSc9xT5iU-120" style="edgeStyle=orthogonalEdgeStyle;curved=1;rounded=0;orthogonalLoop=1;jettySize=auto;html=1;entryX=-0.001;entryY=0.237;entryDx=0;entryDy=0;entryPerimeter=0;startArrow=none;startFill=0;" parent="1" source="dOUqNgxCJLWoSc9xT5iU-107" target="dOUqNgxCJLWoSc9xT5iU-43" edge="1">
          <mxGeometry relative="1" as="geometry" />
        </mxCell>
        <mxCell id="dOUqNgxCJLWoSc9xT5iU-107" value="" style="sketch=0;aspect=fixed;pointerEvents=1;shadow=0;dashed=0;html=1;strokeColor=none;labelPosition=center;verticalLabelPosition=bottom;verticalAlign=top;align=center;fillColor=#00188D;shape=mxgraph.mscae.enterprise.tool;" parent="1" vertex="1">
          <mxGeometry x="40" y="320" width="44.44" height="40" as="geometry" />
        </mxCell>
        <mxCell id="dOUqNgxCJLWoSc9xT5iU-122" style="edgeStyle=orthogonalEdgeStyle;curved=1;rounded=0;orthogonalLoop=1;jettySize=auto;html=1;entryX=0;entryY=0.568;entryDx=0;entryDy=0;entryPerimeter=0;startArrow=none;startFill=0;" parent="1" source="dOUqNgxCJLWoSc9xT5iU-119" target="dOUqNgxCJLWoSc9xT5iU-43" edge="1">
          <mxGeometry relative="1" as="geometry" />
        </mxCell>
        <mxCell id="dOUqNgxCJLWoSc9xT5iU-119" value="" style="html=1;whiteSpace=wrap;shape=isoCube2;backgroundOutline=1;isoAngle=15;fillColor=#d5e8d4;strokeColor=#82b366;" parent="1" vertex="1">
          <mxGeometry x="40" y="399.5" width="40" height="45" as="geometry" />
        </mxCell>
        <mxCell id="dOUqNgxCJLWoSc9xT5iU-121" value="ctl" style="text;html=1;align=center;verticalAlign=middle;resizable=0;points=[];autosize=1;strokeColor=none;fillColor=none;" parent="1" vertex="1">
          <mxGeometry x="45" y="360" width="30" height="20" as="geometry" />
        </mxCell>
        <mxCell id="dOUqNgxCJLWoSc9xT5iU-123" value="client" style="text;html=1;align=center;verticalAlign=middle;resizable=0;points=[];autosize=1;strokeColor=none;fillColor=none;" parent="1" vertex="1">
          <mxGeometry x="40" y="445" width="40" height="20" as="geometry" />
        </mxCell>
        <mxCell id="dOUqNgxCJLWoSc9xT5iU-124" value="" style="sketch=0;outlineConnect=0;fontColor=#232F3E;gradientColor=none;strokeColor=#ffffff;fillColor=#232F3E;dashed=0;verticalLabelPosition=middle;verticalAlign=bottom;align=center;html=1;whiteSpace=wrap;fontSize=10;fontStyle=1;spacing=3;shape=mxgraph.aws4.productIcon;prIcon=mxgraph.aws4.elastic_block_store;" parent="1" vertex="1">
          <mxGeometry x="320" y="540" width="60" height="60" as="geometry" />
        </mxCell>
        <mxCell id="dOUqNgxCJLWoSc9xT5iU-126" value="ebs" style="text;html=1;align=center;verticalAlign=middle;resizable=0;points=[];autosize=1;strokeColor=none;fillColor=none;" parent="1" vertex="1">
          <mxGeometry x="290" y="560" width="30" height="20" as="geometry" />
        </mxCell>
        <mxCell id="dOUqNgxCJLWoSc9xT5iU-274" style="edgeStyle=orthogonalEdgeStyle;curved=1;rounded=0;orthogonalLoop=1;jettySize=auto;html=1;entryX=0.5;entryY=0;entryDx=0;entryDy=0;startArrow=none;startFill=0;exitX=0.353;exitY=1;exitDx=0;exitDy=0;exitPerimeter=0;" parent="1" source="dOUqNgxCJLWoSc9xT5iU-127" target="dOUqNgxCJLWoSc9xT5iU-272" edge="1">
          <mxGeometry relative="1" as="geometry" />
        </mxCell>
        <mxCell id="dOUqNgxCJLWoSc9xT5iU-292" style="edgeStyle=orthogonalEdgeStyle;curved=1;rounded=0;orthogonalLoop=1;jettySize=auto;html=1;entryX=0.631;entryY=0.014;entryDx=0;entryDy=0;entryPerimeter=0;startArrow=none;startFill=0;exitX=0.765;exitY=1.003;exitDx=0;exitDy=0;exitPerimeter=0;" parent="1" source="dOUqNgxCJLWoSc9xT5iU-127" target="dOUqNgxCJLWoSc9xT5iU-291" edge="1">
          <mxGeometry relative="1" as="geometry" />
        </mxCell>
        <mxCell id="dOUqNgxCJLWoSc9xT5iU-127" value="" style="rounded=1;whiteSpace=wrap;html=1;arcSize=7;" parent="1" vertex="1">
          <mxGeometry x="120" y="800" width="510" height="170" as="geometry" />
        </mxCell>
        <mxCell id="dOUqNgxCJLWoSc9xT5iU-128" style="edgeStyle=orthogonalEdgeStyle;curved=1;rounded=0;orthogonalLoop=1;jettySize=auto;html=1;entryX=0;entryY=0.5;entryDx=0;entryDy=0;startArrow=none;startFill=0;" parent="1" source="dOUqNgxCJLWoSc9xT5iU-131" target="dOUqNgxCJLWoSc9xT5iU-133" edge="1">
          <mxGeometry relative="1" as="geometry" />
        </mxCell>
        <mxCell id="dOUqNgxCJLWoSc9xT5iU-129" style="edgeStyle=orthogonalEdgeStyle;curved=1;rounded=0;orthogonalLoop=1;jettySize=auto;html=1;entryX=0;entryY=0.5;entryDx=0;entryDy=0;startArrow=none;startFill=0;" parent="1" source="dOUqNgxCJLWoSc9xT5iU-131" target="dOUqNgxCJLWoSc9xT5iU-137" edge="1">
          <mxGeometry relative="1" as="geometry" />
        </mxCell>
        <mxCell id="dOUqNgxCJLWoSc9xT5iU-130" style="edgeStyle=orthogonalEdgeStyle;curved=1;rounded=0;orthogonalLoop=1;jettySize=auto;html=1;entryX=0;entryY=0.5;entryDx=0;entryDy=0;startArrow=none;startFill=0;" parent="1" source="dOUqNgxCJLWoSc9xT5iU-131" target="dOUqNgxCJLWoSc9xT5iU-135" edge="1">
          <mxGeometry relative="1" as="geometry" />
        </mxCell>
        <mxCell id="dOUqNgxCJLWoSc9xT5iU-131" value="" style="sketch=0;outlineConnect=0;fontColor=#232F3E;gradientColor=none;fillColor=#4D27AA;strokeColor=none;dashed=0;verticalLabelPosition=bottom;verticalAlign=top;align=center;html=1;fontSize=12;fontStyle=0;aspect=fixed;pointerEvents=1;shape=mxgraph.aws4.elastic_network_interface;" parent="1" vertex="1">
          <mxGeometry x="130" y="860" width="40" height="40" as="geometry" />
        </mxCell>
        <mxCell id="dOUqNgxCJLWoSc9xT5iU-133" value="rdma" style="rounded=1;whiteSpace=wrap;html=1;" parent="1" vertex="1">
          <mxGeometry x="210" y="810" width="40" height="40" as="geometry" />
        </mxCell>
        <mxCell id="dOUqNgxCJLWoSc9xT5iU-134" style="edgeStyle=orthogonalEdgeStyle;curved=1;rounded=0;orthogonalLoop=1;jettySize=auto;html=1;startArrow=none;startFill=0;" parent="1" source="dOUqNgxCJLWoSc9xT5iU-135" edge="1">
          <mxGeometry relative="1" as="geometry">
            <mxPoint x="530" y="940" as="targetPoint" />
          </mxGeometry>
        </mxCell>
        <mxCell id="dOUqNgxCJLWoSc9xT5iU-135" value="udp" style="rounded=1;whiteSpace=wrap;html=1;" parent="1" vertex="1">
          <mxGeometry x="210" y="919.5" width="40" height="40" as="geometry" />
        </mxCell>
        <mxCell id="dOUqNgxCJLWoSc9xT5iU-149" value="" style="endArrow=none;dashed=1;html=1;rounded=0;curved=1;" parent="1" edge="1">
          <mxGeometry width="50" height="50" relative="1" as="geometry">
            <mxPoint x="270" y="900" as="sourcePoint" />
            <mxPoint x="270" y="810" as="targetPoint" />
          </mxGeometry>
        </mxCell>
        <mxCell id="dOUqNgxCJLWoSc9xT5iU-150" value="" style="endArrow=none;dashed=1;html=1;rounded=0;curved=1;exitX=0.366;exitY=0.625;exitDx=0;exitDy=0;exitPerimeter=0;" parent="1" edge="1">
          <mxGeometry width="50" height="50" relative="1" as="geometry">
            <mxPoint x="430.05999999999995" y="900" as="sourcePoint" />
            <mxPoint x="430" y="810" as="targetPoint" />
          </mxGeometry>
        </mxCell>
        <mxCell id="dOUqNgxCJLWoSc9xT5iU-157" style="edgeStyle=orthogonalEdgeStyle;curved=1;rounded=0;orthogonalLoop=1;jettySize=auto;html=1;startArrow=none;startFill=0;" parent="1" source="dOUqNgxCJLWoSc9xT5iU-148" target="dOUqNgxCJLWoSc9xT5iU-152" edge="1">
          <mxGeometry relative="1" as="geometry" />
        </mxCell>
        <mxCell id="dOUqNgxCJLWoSc9xT5iU-158" value="" style="endArrow=none;html=1;rounded=0;curved=1;exitX=0.804;exitY=1;exitDx=0;exitDy=0;exitPerimeter=0;" parent="1" source="dOUqNgxCJLWoSc9xT5iU-127" edge="1">
          <mxGeometry width="50" height="50" relative="1" as="geometry">
            <mxPoint x="530" y="1010" as="sourcePoint" />
            <mxPoint x="530.2" y="800.0000000000001" as="targetPoint" />
          </mxGeometry>
        </mxCell>
        <mxCell id="dOUqNgxCJLWoSc9xT5iU-175" style="edgeStyle=orthogonalEdgeStyle;curved=1;rounded=0;orthogonalLoop=1;jettySize=auto;html=1;entryX=0.001;entryY=0.572;entryDx=0;entryDy=0;entryPerimeter=0;startArrow=none;startFill=0;" parent="1" source="dOUqNgxCJLWoSc9xT5iU-176" target="dOUqNgxCJLWoSc9xT5iU-127" edge="1">
          <mxGeometry relative="1" as="geometry" />
        </mxCell>
        <mxCell id="dOUqNgxCJLWoSc9xT5iU-176" value="" style="html=1;whiteSpace=wrap;shape=isoCube2;backgroundOutline=1;isoAngle=15;fillColor=#d5e8d4;strokeColor=#82b366;" parent="1" vertex="1">
          <mxGeometry x="40" y="874.5" width="40" height="45" as="geometry" />
        </mxCell>
        <mxCell id="dOUqNgxCJLWoSc9xT5iU-178" value="client" style="text;html=1;align=center;verticalAlign=middle;resizable=0;points=[];autosize=1;strokeColor=none;fillColor=none;" parent="1" vertex="1">
          <mxGeometry x="40" y="919.5" width="40" height="20" as="geometry" />
        </mxCell>
        <mxCell id="dOUqNgxCJLWoSc9xT5iU-181" value="" style="rounded=1;whiteSpace=wrap;html=1;" parent="1" vertex="1">
          <mxGeometry x="220" y="870" width="40" height="40" as="geometry" />
        </mxCell>
        <mxCell id="dOUqNgxCJLWoSc9xT5iU-261" style="edgeStyle=orthogonalEdgeStyle;curved=1;rounded=0;orthogonalLoop=1;jettySize=auto;html=1;entryX=0;entryY=0.5;entryDx=0;entryDy=0;startArrow=none;startFill=0;" parent="1" source="dOUqNgxCJLWoSc9xT5iU-137" target="dOUqNgxCJLWoSc9xT5iU-139" edge="1">
          <mxGeometry relative="1" as="geometry" />
        </mxCell>
        <mxCell id="dOUqNgxCJLWoSc9xT5iU-137" value="tcp" style="rounded=1;whiteSpace=wrap;html=1;" parent="1" vertex="1">
          <mxGeometry x="210" y="860" width="40" height="40" as="geometry" />
        </mxCell>
        <mxCell id="dOUqNgxCJLWoSc9xT5iU-184" value="" style="rounded=1;whiteSpace=wrap;html=1;arcSize=7;" parent="1" vertex="1">
          <mxGeometry x="170" y="1640" width="510" height="260" as="geometry" />
        </mxCell>
        <mxCell id="dOUqNgxCJLWoSc9xT5iU-185" style="edgeStyle=orthogonalEdgeStyle;curved=1;rounded=0;orthogonalLoop=1;jettySize=auto;html=1;entryX=0;entryY=0.5;entryDx=0;entryDy=0;startArrow=none;startFill=0;" parent="1" source="dOUqNgxCJLWoSc9xT5iU-188" target="dOUqNgxCJLWoSc9xT5iU-190" edge="1">
          <mxGeometry relative="1" as="geometry" />
        </mxCell>
        <mxCell id="dOUqNgxCJLWoSc9xT5iU-186" style="edgeStyle=orthogonalEdgeStyle;curved=1;rounded=0;orthogonalLoop=1;jettySize=auto;html=1;entryX=0;entryY=0.5;entryDx=0;entryDy=0;startArrow=none;startFill=0;" parent="1" source="dOUqNgxCJLWoSc9xT5iU-188" target="dOUqNgxCJLWoSc9xT5iU-230" edge="1">
          <mxGeometry relative="1" as="geometry" />
        </mxCell>
        <mxCell id="dOUqNgxCJLWoSc9xT5iU-187" style="edgeStyle=orthogonalEdgeStyle;curved=1;rounded=0;orthogonalLoop=1;jettySize=auto;html=1;entryX=0;entryY=0.5;entryDx=0;entryDy=0;startArrow=none;startFill=0;" parent="1" source="dOUqNgxCJLWoSc9xT5iU-188" target="dOUqNgxCJLWoSc9xT5iU-192" edge="1">
          <mxGeometry relative="1" as="geometry" />
        </mxCell>
        <mxCell id="dOUqNgxCJLWoSc9xT5iU-188" value="" style="sketch=0;outlineConnect=0;fontColor=#232F3E;gradientColor=none;fillColor=#4D27AA;strokeColor=none;dashed=0;verticalLabelPosition=bottom;verticalAlign=top;align=center;html=1;fontSize=12;fontStyle=0;aspect=fixed;pointerEvents=1;shape=mxgraph.aws4.elastic_network_interface;" parent="1" vertex="1">
          <mxGeometry x="180" y="1700" width="40" height="40" as="geometry" />
        </mxCell>
        <mxCell id="dOUqNgxCJLWoSc9xT5iU-189" style="edgeStyle=orthogonalEdgeStyle;curved=1;rounded=0;orthogonalLoop=1;jettySize=auto;html=1;startArrow=none;startFill=0;entryX=0;entryY=0.5;entryDx=0;entryDy=0;" parent="1" source="dOUqNgxCJLWoSc9xT5iU-190" target="dOUqNgxCJLWoSc9xT5iU-195" edge="1">
          <mxGeometry relative="1" as="geometry">
            <mxPoint x="330" y="1690" as="targetPoint" />
          </mxGeometry>
        </mxCell>
        <mxCell id="dOUqNgxCJLWoSc9xT5iU-190" value="rdma" style="rounded=1;whiteSpace=wrap;html=1;" parent="1" vertex="1">
          <mxGeometry x="260" y="1650" width="40" height="40" as="geometry" />
        </mxCell>
        <mxCell id="dOUqNgxCJLWoSc9xT5iU-191" style="edgeStyle=orthogonalEdgeStyle;curved=1;rounded=0;orthogonalLoop=1;jettySize=auto;html=1;startArrow=none;startFill=0;" parent="1" source="dOUqNgxCJLWoSc9xT5iU-192" edge="1">
          <mxGeometry relative="1" as="geometry">
            <mxPoint x="580" y="1780" as="targetPoint" />
          </mxGeometry>
        </mxCell>
        <mxCell id="dOUqNgxCJLWoSc9xT5iU-192" value="udp" style="rounded=1;whiteSpace=wrap;html=1;" parent="1" vertex="1">
          <mxGeometry x="260" y="1759.5" width="40" height="40" as="geometry" />
        </mxCell>
        <mxCell id="dOUqNgxCJLWoSc9xT5iU-193" style="edgeStyle=orthogonalEdgeStyle;curved=1;rounded=0;orthogonalLoop=1;jettySize=auto;html=1;entryX=0;entryY=0.5;entryDx=0;entryDy=0;startArrow=none;startFill=0;" parent="1" source="dOUqNgxCJLWoSc9xT5iU-230" target="dOUqNgxCJLWoSc9xT5iU-195" edge="1">
          <mxGeometry relative="1" as="geometry" />
        </mxCell>
        <mxCell id="dOUqNgxCJLWoSc9xT5iU-194" value="" style="group" parent="1" vertex="1" connectable="0">
          <mxGeometry x="340" y="1650" width="120" height="40" as="geometry" />
        </mxCell>
        <mxCell id="dOUqNgxCJLWoSc9xT5iU-195" value="" style="rounded=1;whiteSpace=wrap;html=1;fillColor=#f5f5f5;fontColor=#333333;strokeColor=#666666;" parent="dOUqNgxCJLWoSc9xT5iU-194" vertex="1">
          <mxGeometry width="120" height="40" as="geometry" />
        </mxCell>
        <mxCell id="dOUqNgxCJLWoSc9xT5iU-196" value="" style="ellipse;whiteSpace=wrap;html=1;aspect=fixed;fillColor=#dae8fc;strokeColor=#6c8ebf;" parent="dOUqNgxCJLWoSc9xT5iU-194" vertex="1">
          <mxGeometry x="10" y="10" width="20" height="20" as="geometry" />
        </mxCell>
        <mxCell id="dOUqNgxCJLWoSc9xT5iU-197" value="" style="ellipse;whiteSpace=wrap;html=1;aspect=fixed;fillColor=#dae8fc;strokeColor=#6c8ebf;" parent="dOUqNgxCJLWoSc9xT5iU-194" vertex="1">
          <mxGeometry x="20" y="10" width="20" height="20" as="geometry" />
        </mxCell>
        <mxCell id="dOUqNgxCJLWoSc9xT5iU-198" value="" style="ellipse;whiteSpace=wrap;html=1;aspect=fixed;fillColor=#dae8fc;strokeColor=#6c8ebf;" parent="dOUqNgxCJLWoSc9xT5iU-194" vertex="1">
          <mxGeometry x="30" y="10" width="20" height="20" as="geometry" />
        </mxCell>
        <mxCell id="dOUqNgxCJLWoSc9xT5iU-199" value="" style="ellipse;whiteSpace=wrap;html=1;aspect=fixed;fillColor=#dae8fc;strokeColor=#6c8ebf;" parent="dOUqNgxCJLWoSc9xT5iU-194" vertex="1">
          <mxGeometry x="40" y="10" width="20" height="20" as="geometry" />
        </mxCell>
        <mxCell id="dOUqNgxCJLWoSc9xT5iU-200" value="" style="ellipse;whiteSpace=wrap;html=1;aspect=fixed;fillColor=#dae8fc;strokeColor=#6c8ebf;" parent="dOUqNgxCJLWoSc9xT5iU-194" vertex="1">
          <mxGeometry x="50" y="10" width="20" height="20" as="geometry" />
        </mxCell>
        <mxCell id="dOUqNgxCJLWoSc9xT5iU-201" value="" style="ellipse;whiteSpace=wrap;html=1;aspect=fixed;fillColor=#dae8fc;strokeColor=#6c8ebf;" parent="dOUqNgxCJLWoSc9xT5iU-194" vertex="1">
          <mxGeometry x="60" y="10" width="20" height="20" as="geometry" />
        </mxCell>
        <mxCell id="dOUqNgxCJLWoSc9xT5iU-202" value="" style="ellipse;whiteSpace=wrap;html=1;aspect=fixed;fillColor=#dae8fc;strokeColor=#6c8ebf;" parent="dOUqNgxCJLWoSc9xT5iU-194" vertex="1">
          <mxGeometry x="70" y="10" width="20" height="20" as="geometry" />
        </mxCell>
        <mxCell id="dOUqNgxCJLWoSc9xT5iU-203" value="" style="ellipse;whiteSpace=wrap;html=1;aspect=fixed;fillColor=#dae8fc;strokeColor=#6c8ebf;" parent="dOUqNgxCJLWoSc9xT5iU-194" vertex="1">
          <mxGeometry x="80" y="10" width="20" height="20" as="geometry" />
        </mxCell>
        <mxCell id="dOUqNgxCJLWoSc9xT5iU-204" value="" style="ellipse;whiteSpace=wrap;html=1;aspect=fixed;fillColor=#dae8fc;strokeColor=#6c8ebf;" parent="dOUqNgxCJLWoSc9xT5iU-194" vertex="1">
          <mxGeometry x="90" y="10" width="20" height="20" as="geometry" />
        </mxCell>
        <mxCell id="dOUqNgxCJLWoSc9xT5iU-205" value="" style="endArrow=none;dashed=1;html=1;rounded=0;curved=1;" parent="1" edge="1">
          <mxGeometry width="50" height="50" relative="1" as="geometry">
            <mxPoint x="320" y="1740" as="sourcePoint" />
            <mxPoint x="320" y="1650" as="targetPoint" />
          </mxGeometry>
        </mxCell>
        <mxCell id="dOUqNgxCJLWoSc9xT5iU-206" value="" style="endArrow=none;dashed=1;html=1;rounded=0;curved=1;exitX=0.366;exitY=0.625;exitDx=0;exitDy=0;exitPerimeter=0;" parent="1" edge="1">
          <mxGeometry width="50" height="50" relative="1" as="geometry">
            <mxPoint x="480.05999999999995" y="1740" as="sourcePoint" />
            <mxPoint x="480" y="1650" as="targetPoint" />
          </mxGeometry>
        </mxCell>
        <mxCell id="dOUqNgxCJLWoSc9xT5iU-207" value="" style="group" parent="1" vertex="1" connectable="0">
          <mxGeometry x="500" y="1650" width="50" height="90" as="geometry" />
        </mxCell>
        <mxCell id="dOUqNgxCJLWoSc9xT5iU-208" value="" style="rounded=1;whiteSpace=wrap;html=1;fillColor=#f5f5f5;fontColor=#333333;strokeColor=#666666;" parent="dOUqNgxCJLWoSc9xT5iU-207" vertex="1">
          <mxGeometry width="50" height="90" as="geometry" />
        </mxCell>
        <mxCell id="dOUqNgxCJLWoSc9xT5iU-209" value="" style="shape=image;html=1;verticalAlign=top;verticalLabelPosition=bottom;labelBackgroundColor=#ffffff;imageAspect=0;aspect=fixed;image=https://cdn4.iconfinder.com/data/icons/evil-icons-user-interface/64/download-128.png" parent="dOUqNgxCJLWoSc9xT5iU-207" vertex="1">
          <mxGeometry x="10" width="30" height="30" as="geometry" />
        </mxCell>
        <mxCell id="dOUqNgxCJLWoSc9xT5iU-210" value="" style="shape=image;html=1;verticalAlign=top;verticalLabelPosition=bottom;labelBackgroundColor=#ffffff;imageAspect=0;aspect=fixed;image=https://cdn4.iconfinder.com/data/icons/evil-icons-user-interface/64/download-128.png" parent="dOUqNgxCJLWoSc9xT5iU-207" vertex="1">
          <mxGeometry x="10" y="40" width="30" height="30" as="geometry" />
        </mxCell>
        <mxCell id="dOUqNgxCJLWoSc9xT5iU-211" value="" style="shape=image;html=1;verticalAlign=top;verticalLabelPosition=bottom;labelBackgroundColor=#ffffff;imageAspect=0;aspect=fixed;image=https://cdn4.iconfinder.com/data/icons/evil-icons-user-interface/64/download-128.png" parent="dOUqNgxCJLWoSc9xT5iU-207" vertex="1">
          <mxGeometry x="10" y="60" width="30" height="30" as="geometry" />
        </mxCell>
        <mxCell id="dOUqNgxCJLWoSc9xT5iU-212" value="" style="shape=image;html=1;verticalAlign=top;verticalLabelPosition=bottom;labelBackgroundColor=#ffffff;imageAspect=0;aspect=fixed;image=https://cdn4.iconfinder.com/data/icons/evil-icons-user-interface/64/download-128.png" parent="dOUqNgxCJLWoSc9xT5iU-207" vertex="1">
          <mxGeometry x="10" y="20" width="30" height="30" as="geometry" />
        </mxCell>
        <mxCell id="dOUqNgxCJLWoSc9xT5iU-213" style="edgeStyle=orthogonalEdgeStyle;curved=1;rounded=0;orthogonalLoop=1;jettySize=auto;html=1;startArrow=none;startFill=0;" parent="1" source="dOUqNgxCJLWoSc9xT5iU-204" target="dOUqNgxCJLWoSc9xT5iU-208" edge="1">
          <mxGeometry relative="1" as="geometry" />
        </mxCell>
        <mxCell id="dOUqNgxCJLWoSc9xT5iU-214" value="" style="endArrow=none;html=1;rounded=0;curved=1;exitX=0.805;exitY=1.006;exitDx=0;exitDy=0;exitPerimeter=0;" parent="1" source="dOUqNgxCJLWoSc9xT5iU-184" edge="1">
          <mxGeometry width="50" height="50" relative="1" as="geometry">
            <mxPoint x="580" y="1850" as="sourcePoint" />
            <mxPoint x="580.2" y="1640" as="targetPoint" />
          </mxGeometry>
        </mxCell>
        <mxCell id="dOUqNgxCJLWoSc9xT5iU-217" style="edgeStyle=orthogonalEdgeStyle;curved=1;rounded=0;orthogonalLoop=1;jettySize=auto;html=1;startArrow=none;startFill=0;" parent="1" source="dOUqNgxCJLWoSc9xT5iU-208" edge="1">
          <mxGeometry relative="1" as="geometry">
            <mxPoint x="580" y="1695" as="targetPoint" />
          </mxGeometry>
        </mxCell>
        <mxCell id="dOUqNgxCJLWoSc9xT5iU-218" value="" style="endArrow=none;dashed=1;html=1;rounded=0;curved=1;" parent="1" edge="1">
          <mxGeometry width="50" height="50" relative="1" as="geometry">
            <mxPoint x="210" y="1810" as="sourcePoint" />
            <mxPoint x="530" y="1810" as="targetPoint" />
          </mxGeometry>
        </mxCell>
        <mxCell id="dOUqNgxCJLWoSc9xT5iU-219" style="edgeStyle=orthogonalEdgeStyle;curved=1;rounded=0;orthogonalLoop=1;jettySize=auto;html=1;entryX=0.5;entryY=0;entryDx=0;entryDy=0;entryPerimeter=0;startArrow=none;startFill=0;" parent="1" source="dOUqNgxCJLWoSc9xT5iU-220" target="dOUqNgxCJLWoSc9xT5iU-223" edge="1">
          <mxGeometry relative="1" as="geometry" />
        </mxCell>
        <mxCell id="dOUqNgxCJLWoSc9xT5iU-220" value="" style="shape=image;verticalLabelPosition=bottom;labelBackgroundColor=default;verticalAlign=top;aspect=fixed;imageAspect=0;image=https://icon-library.com/images/folder-icon-files/folder-icon-files-21.jpg;" parent="1" vertex="1">
          <mxGeometry x="350" y="1815" width="20" height="20" as="geometry" />
        </mxCell>
        <mxCell id="dOUqNgxCJLWoSc9xT5iU-221" value="/pfs.dir" style="text;html=1;align=center;verticalAlign=middle;resizable=0;points=[];autosize=1;strokeColor=none;fillColor=none;" parent="1" vertex="1">
          <mxGeometry x="290" y="1815" width="50" height="20" as="geometry" />
        </mxCell>
        <mxCell id="dOUqNgxCJLWoSc9xT5iU-222" style="edgeStyle=orthogonalEdgeStyle;curved=1;rounded=0;orthogonalLoop=1;jettySize=auto;html=1;startArrow=none;startFill=0;" parent="1" source="dOUqNgxCJLWoSc9xT5iU-223" target="dOUqNgxCJLWoSc9xT5iU-227" edge="1">
          <mxGeometry relative="1" as="geometry">
            <mxPoint x="380" y="1920" as="targetPoint" />
          </mxGeometry>
        </mxCell>
        <mxCell id="dOUqNgxCJLWoSc9xT5iU-223" value="disk" style="shape=cylinder3;whiteSpace=wrap;html=1;boundedLbl=1;backgroundOutline=1;size=5.076923076922981;fillColor=#f8cecc;strokeColor=#b85450;" parent="1" vertex="1">
          <mxGeometry x="340" y="1850" width="40" height="40" as="geometry" />
        </mxCell>
        <mxCell id="dOUqNgxCJLWoSc9xT5iU-224" style="edgeStyle=orthogonalEdgeStyle;curved=1;rounded=0;orthogonalLoop=1;jettySize=auto;html=1;entryX=-0.001;entryY=0.548;entryDx=0;entryDy=0;entryPerimeter=0;startArrow=none;startFill=0;" parent="1" source="dOUqNgxCJLWoSc9xT5iU-225" target="dOUqNgxCJLWoSc9xT5iU-184" edge="1">
          <mxGeometry relative="1" as="geometry" />
        </mxCell>
        <mxCell id="dOUqNgxCJLWoSc9xT5iU-225" value="" style="html=1;whiteSpace=wrap;shape=isoCube2;backgroundOutline=1;isoAngle=15;fillColor=#d5e8d4;strokeColor=#82b366;" parent="1" vertex="1">
          <mxGeometry x="90" y="1760" width="40" height="45" as="geometry" />
        </mxCell>
        <mxCell id="dOUqNgxCJLWoSc9xT5iU-226" value="client" style="text;html=1;align=center;verticalAlign=middle;resizable=0;points=[];autosize=1;strokeColor=none;fillColor=none;" parent="1" vertex="1">
          <mxGeometry x="90" y="1805" width="40" height="20" as="geometry" />
        </mxCell>
        <mxCell id="dOUqNgxCJLWoSc9xT5iU-227" value="" style="sketch=0;outlineConnect=0;fontColor=#232F3E;gradientColor=none;strokeColor=#ffffff;fillColor=#232F3E;dashed=0;verticalLabelPosition=middle;verticalAlign=bottom;align=center;html=1;whiteSpace=wrap;fontSize=10;fontStyle=1;spacing=3;shape=mxgraph.aws4.productIcon;prIcon=mxgraph.aws4.elastic_block_store;" parent="1" vertex="1">
          <mxGeometry x="330" y="1920" width="60" height="60" as="geometry" />
        </mxCell>
        <mxCell id="dOUqNgxCJLWoSc9xT5iU-228" value="ebs" style="text;html=1;align=center;verticalAlign=middle;resizable=0;points=[];autosize=1;strokeColor=none;fillColor=none;" parent="1" vertex="1">
          <mxGeometry x="300" y="1940" width="30" height="20" as="geometry" />
        </mxCell>
        <mxCell id="dOUqNgxCJLWoSc9xT5iU-229" value="" style="rounded=1;whiteSpace=wrap;html=1;" parent="1" vertex="1">
          <mxGeometry x="270" y="1710" width="40" height="40" as="geometry" />
        </mxCell>
        <mxCell id="dOUqNgxCJLWoSc9xT5iU-230" value="tcp" style="rounded=1;whiteSpace=wrap;html=1;" parent="1" vertex="1">
          <mxGeometry x="260" y="1700" width="40" height="40" as="geometry" />
        </mxCell>
        <mxCell id="dOUqNgxCJLWoSc9xT5iU-231" value="心跳服务" style="rounded=1;whiteSpace=wrap;html=1;" parent="1" vertex="1">
          <mxGeometry x="540" y="810" width="80" height="40" as="geometry" />
        </mxCell>
        <mxCell id="dOUqNgxCJLWoSc9xT5iU-232" value="数据同步" style="rounded=1;whiteSpace=wrap;html=1;" parent="1" vertex="1">
          <mxGeometry x="540" y="860" width="80" height="40" as="geometry" />
        </mxCell>
        <mxCell id="dOUqNgxCJLWoSc9xT5iU-245" value="" style="rounded=1;whiteSpace=wrap;html=1;fillColor=#f5f5f5;fontColor=#333333;strokeColor=#666666;" parent="1" vertex="1">
          <mxGeometry x="280" y="820" width="120" height="40" as="geometry" />
        </mxCell>
        <mxCell id="dOUqNgxCJLWoSc9xT5iU-138" value="" style="group" parent="1" vertex="1" connectable="0">
          <mxGeometry x="290" y="810" width="120" height="40" as="geometry" />
        </mxCell>
        <mxCell id="dOUqNgxCJLWoSc9xT5iU-139" value="" style="rounded=1;whiteSpace=wrap;html=1;fillColor=#f5f5f5;fontColor=#333333;strokeColor=#666666;" parent="dOUqNgxCJLWoSc9xT5iU-138" vertex="1">
          <mxGeometry width="120" height="40" as="geometry" />
        </mxCell>
        <mxCell id="dOUqNgxCJLWoSc9xT5iU-140" value="" style="ellipse;whiteSpace=wrap;html=1;aspect=fixed;fillColor=#dae8fc;strokeColor=#6c8ebf;" parent="dOUqNgxCJLWoSc9xT5iU-138" vertex="1">
          <mxGeometry x="10" y="10" width="20" height="20" as="geometry" />
        </mxCell>
        <mxCell id="dOUqNgxCJLWoSc9xT5iU-141" value="" style="ellipse;whiteSpace=wrap;html=1;aspect=fixed;fillColor=#dae8fc;strokeColor=#6c8ebf;" parent="dOUqNgxCJLWoSc9xT5iU-138" vertex="1">
          <mxGeometry x="20" y="10" width="20" height="20" as="geometry" />
        </mxCell>
        <mxCell id="dOUqNgxCJLWoSc9xT5iU-142" value="" style="ellipse;whiteSpace=wrap;html=1;aspect=fixed;fillColor=#dae8fc;strokeColor=#6c8ebf;" parent="dOUqNgxCJLWoSc9xT5iU-138" vertex="1">
          <mxGeometry x="30" y="10" width="20" height="20" as="geometry" />
        </mxCell>
        <mxCell id="dOUqNgxCJLWoSc9xT5iU-143" value="" style="ellipse;whiteSpace=wrap;html=1;aspect=fixed;fillColor=#dae8fc;strokeColor=#6c8ebf;" parent="dOUqNgxCJLWoSc9xT5iU-138" vertex="1">
          <mxGeometry x="40" y="10" width="20" height="20" as="geometry" />
        </mxCell>
        <mxCell id="dOUqNgxCJLWoSc9xT5iU-144" value="" style="ellipse;whiteSpace=wrap;html=1;aspect=fixed;fillColor=#dae8fc;strokeColor=#6c8ebf;" parent="dOUqNgxCJLWoSc9xT5iU-138" vertex="1">
          <mxGeometry x="50" y="10" width="20" height="20" as="geometry" />
        </mxCell>
        <mxCell id="dOUqNgxCJLWoSc9xT5iU-145" value="" style="ellipse;whiteSpace=wrap;html=1;aspect=fixed;fillColor=#dae8fc;strokeColor=#6c8ebf;" parent="dOUqNgxCJLWoSc9xT5iU-138" vertex="1">
          <mxGeometry x="60" y="10" width="20" height="20" as="geometry" />
        </mxCell>
        <mxCell id="dOUqNgxCJLWoSc9xT5iU-146" value="" style="ellipse;whiteSpace=wrap;html=1;aspect=fixed;fillColor=#dae8fc;strokeColor=#6c8ebf;" parent="dOUqNgxCJLWoSc9xT5iU-138" vertex="1">
          <mxGeometry x="70" y="10" width="20" height="20" as="geometry" />
        </mxCell>
        <mxCell id="dOUqNgxCJLWoSc9xT5iU-147" value="" style="ellipse;whiteSpace=wrap;html=1;aspect=fixed;fillColor=#dae8fc;strokeColor=#6c8ebf;" parent="dOUqNgxCJLWoSc9xT5iU-138" vertex="1">
          <mxGeometry x="80" y="10" width="20" height="20" as="geometry" />
        </mxCell>
        <mxCell id="dOUqNgxCJLWoSc9xT5iU-148" value="" style="ellipse;whiteSpace=wrap;html=1;aspect=fixed;fillColor=#dae8fc;strokeColor=#6c8ebf;" parent="dOUqNgxCJLWoSc9xT5iU-138" vertex="1">
          <mxGeometry x="90" y="10" width="20" height="20" as="geometry" />
        </mxCell>
        <mxCell id="dOUqNgxCJLWoSc9xT5iU-132" style="edgeStyle=orthogonalEdgeStyle;curved=1;rounded=0;orthogonalLoop=1;jettySize=auto;html=1;startArrow=none;startFill=0;entryX=0;entryY=0.5;entryDx=0;entryDy=0;" parent="1" source="dOUqNgxCJLWoSc9xT5iU-133" target="dOUqNgxCJLWoSc9xT5iU-139" edge="1">
          <mxGeometry relative="1" as="geometry">
            <mxPoint x="280" y="850" as="targetPoint" />
          </mxGeometry>
        </mxCell>
        <mxCell id="dOUqNgxCJLWoSc9xT5iU-256" value="" style="rounded=1;whiteSpace=wrap;html=1;fillColor=#f5f5f5;fontColor=#333333;strokeColor=#666666;" parent="1" vertex="1">
          <mxGeometry x="460" y="820" width="50" height="90" as="geometry" />
        </mxCell>
        <mxCell id="dOUqNgxCJLWoSc9xT5iU-151" value="" style="group" parent="1" vertex="1" connectable="0">
          <mxGeometry x="450" y="810" width="50" height="90" as="geometry" />
        </mxCell>
        <mxCell id="dOUqNgxCJLWoSc9xT5iU-152" value="" style="rounded=1;whiteSpace=wrap;html=1;fillColor=#f5f5f5;fontColor=#333333;strokeColor=#666666;" parent="dOUqNgxCJLWoSc9xT5iU-151" vertex="1">
          <mxGeometry width="50" height="90" as="geometry" />
        </mxCell>
        <mxCell id="dOUqNgxCJLWoSc9xT5iU-153" value="" style="shape=image;html=1;verticalAlign=top;verticalLabelPosition=bottom;labelBackgroundColor=#ffffff;imageAspect=0;aspect=fixed;image=https://cdn4.iconfinder.com/data/icons/evil-icons-user-interface/64/download-128.png" parent="dOUqNgxCJLWoSc9xT5iU-151" vertex="1">
          <mxGeometry x="10" width="30" height="30" as="geometry" />
        </mxCell>
        <mxCell id="dOUqNgxCJLWoSc9xT5iU-154" value="" style="shape=image;html=1;verticalAlign=top;verticalLabelPosition=bottom;labelBackgroundColor=#ffffff;imageAspect=0;aspect=fixed;image=https://cdn4.iconfinder.com/data/icons/evil-icons-user-interface/64/download-128.png" parent="dOUqNgxCJLWoSc9xT5iU-151" vertex="1">
          <mxGeometry x="10" y="40" width="30" height="30" as="geometry" />
        </mxCell>
        <mxCell id="dOUqNgxCJLWoSc9xT5iU-155" value="" style="shape=image;html=1;verticalAlign=top;verticalLabelPosition=bottom;labelBackgroundColor=#ffffff;imageAspect=0;aspect=fixed;image=https://cdn4.iconfinder.com/data/icons/evil-icons-user-interface/64/download-128.png" parent="dOUqNgxCJLWoSc9xT5iU-151" vertex="1">
          <mxGeometry x="10" y="60" width="30" height="30" as="geometry" />
        </mxCell>
        <mxCell id="dOUqNgxCJLWoSc9xT5iU-156" value="" style="shape=image;html=1;verticalAlign=top;verticalLabelPosition=bottom;labelBackgroundColor=#ffffff;imageAspect=0;aspect=fixed;image=https://cdn4.iconfinder.com/data/icons/evil-icons-user-interface/64/download-128.png" parent="dOUqNgxCJLWoSc9xT5iU-151" vertex="1">
          <mxGeometry x="10" y="20" width="30" height="30" as="geometry" />
        </mxCell>
        <mxCell id="dOUqNgxCJLWoSc9xT5iU-165" style="edgeStyle=orthogonalEdgeStyle;curved=1;rounded=0;orthogonalLoop=1;jettySize=auto;html=1;startArrow=none;startFill=0;" parent="1" source="dOUqNgxCJLWoSc9xT5iU-152" edge="1">
          <mxGeometry relative="1" as="geometry">
            <mxPoint x="530" y="855" as="targetPoint" />
          </mxGeometry>
        </mxCell>
        <mxCell id="dOUqNgxCJLWoSc9xT5iU-262" value="心跳服务" style="rounded=1;whiteSpace=wrap;html=1;" parent="1" vertex="1">
          <mxGeometry x="590" y="1650" width="80" height="40" as="geometry" />
        </mxCell>
        <mxCell id="dOUqNgxCJLWoSc9xT5iU-263" value="数据同步" style="rounded=1;whiteSpace=wrap;html=1;" parent="1" vertex="1">
          <mxGeometry x="590" y="1700" width="80" height="40" as="geometry" />
        </mxCell>
        <mxCell id="dOUqNgxCJLWoSc9xT5iU-265" value="文件管理" style="rounded=1;whiteSpace=wrap;html=1;" parent="1" vertex="1">
          <mxGeometry x="540" y="910" width="80" height="40" as="geometry" />
        </mxCell>
        <mxCell id="dOUqNgxCJLWoSc9xT5iU-272" value="" style="shape=image;verticalLabelPosition=bottom;labelBackgroundColor=default;verticalAlign=top;aspect=fixed;imageAspect=0;image=data:image/png,iVBORw0KGgoAAAANSUhEUgAAAOEAAADhCAMAAAAJbSJIAAAB4FBMVEX///9tl1j5yJpEKx+eVhMdJzlPLg5vmlq5hGS1eFe8j2+fXz3AmXl7eXnFpYUAAABMaT3/zp+CgYADRotiiE9JZTtnj1NxnFtafUluPA1ql1Rki1FGYTlQLg1Tc0NnjlPQp4EWFhZRcEGymHtgSj41GQrtvpI7HQwxHhVAJBY/JQydTwCyj27nuo9JIwAkFQ/x8/Tc29yjg2UuAAB3ZFrWrIReiUe1tbVOd0MyDgBHKg2CRw8AABvIyMgAESoVITaae19xW0bq6etccFLMzMyEjIC5uLlWf0GbkIs9FABjNgyRRwChoqNhZ3IAP4gJKU+IbVSvn5GginZva2Zkc13m40iEkH7p5113bU5Zck1AYy1GHgCORABaXGAzOEAlKjUJFSUAASFscXuMj5YxOksPJD8AAjQAAClGTloXGyQJKlEAPnzH1OVXc5k0SGoBM2bX4OuescuBmr1CUGM1YJk9Zp1jhrMAM4MAB0gTT5MAJX5uh7CcpK4AFz8AG14/MylMWDo/RDM5TjJcZEFRSkN1TziTmZGhoVnQzD92eCBqe0rz84m0rhaEh0xhbCiJem6KhxrNznbV0CeGoXlYYVQiOhWNfllWPyqMYDsmFAAWAABgV1AyAAB2NAB0STNhLADcQhePAAAaoklEQVR4nN2d+0PbRp7AbUOZ3a6pJSJbQjbCdYgIjkxsE9uYxGAM2CZ1U0PYJOTRJG1zV5rupullk+ve9uimKftetrtt0y7b3r96M6O3NJKxLdllvz8kgGUzH31nvq/5aggEhi/ZXKk1ceftu4q8P94q5YY9Ju+kVpl4/9Kl5eWVlVc0WVlevnRvvJ4d9ti8kPqdV+4vG9gMsnL/7kRt2OPrV1p375PpFFm+N36i9Vjfc9CeUZGR1rCH2bNk37zUkQ/r8e31YQ+1N8ndXT4OH1Lj8olUY+XesRQoy/2rwx5u95K7dHw+NFPvDHvAXctdggZXzD7xZCOW7hMA3ym9++Z799HqXLGTLk8Me8zdyR2SCt+prMNQLffeyitvvvOezQxFTpZFfd9CeHdvb+XBp//xn6XARw+W30dOvmW9ByvvD3vQXcmEUUV7Kx88evjw1KlTzz4MfHjlypVa9he/fDdQX37l/nvLhuvun6hYPBfR8B48OiXLlVMfBR4/O3XlF4Gnz049+zjwX/cg0rs64gnzii3sLe6uqHgQ8Ekt8OGTT05d+VXg6RX4XeDp48BvSoGWhrgyPuxBdyctGLIZ+KB8+FENLsDs02cfZj959uuPA0+yj5/997i+ZE+aNQ3k3r700Ah46sqVU588efIUavHDwEfZwONfB/4H6rKmzdP7J8uYImnpKnz46IMP3nrrwYO33vrgg0ePnv3q8cdPnj376PGzK88++o0S/ay8Pezx9iDvXEFsby1H9iOXDGHq3t69Tz99iBbkx08+Djx9tHcS/aEs7/7vg3sRKPlQJtzej0Tu7e3t6S7krYdP4TWPr5zCiCczTcyWEF9kPxQK0XRIlFbRd6+//vqeQrr86FefQDWf+uCV5b3KsAfbm1QwYZUOYaFpOpnffx1DKnIJL9X7dydOai1DJiyENIGQGWnVCPng4ZVfnuCa2zqepHTIJDQtJtsRHfLTExWtWSRnnKQmSDrZVjUZOWGxjElqlklqgazOvI6n8QmsYSiSzaLx21WoQ4rw9Tv7R8MeaK9SD59WCW2UNBL43/lI5LXQ1rBH2qusFwqFSOQ8HaIz1RAG0kxNId/e38/DV9qRvJipD3ukPctWIVyNREJ04aU0014NiwpjcnW1Gs7QdH5GpNvnQ9WTq8PAFl2Q9qEtrYq0KEI/mMeIhWqGlqWQoSNhSaRPMCGchVJkFc5PWgxLGVqbpcnV8+fbefRFRFw90YS0mC/MrEKy/EwkMlMVC9hz0FJ4/EVkhoaLs/16SJLo8ImNaUpiJp+pQsJkaKu1d14s0Hl5IYZKb0fayJS2z9N5kd4e9kB7luw2ncwkkQ5DmaP9MPw/qbh/Uf6Czu/TyVDhhOYVSHKSKNFyXCp7i2RGXYvyv9JL+OPmsIfZj6yHM6G27u5pSTT7/bx0wgGhFrfbBihasoQ2mVBy68SaGVVatJHQGr6JpWGPr38pGYHshCc3YtOkbuT5t9ThuiE/zCQhYSFjRPw3IMyGdb2JVSlJZ8JGwpMbselinJn2bHgohONHWGbe9ebj8o5J/tAIr772WvjVn/z0Zx5ViLbVcqmmSFRT/Hci3KIVOxoSsSQl6fS4qtjhZE4eE1ZkfdH5O61SC0o9l6ureh2St/CYUJ2mdGEb0eUqrWZSm7DDSZy8Jszp/qIgSVJYDKmEtDSc/lKvCQP1goxYyBfEkJgJ51XAYWWGnhMGrhbUiRqWpKRWsMl8NqSIxlvC9dbO2uJMUt9h01yh2E4Vd4YyTb0krKw1+Cj/WzqctPv9Kp0P8ovD2Pv1jrC20+ABx8XyNAGxCictFwTFtcHvrnlGWE/xwSCbYBchnQ0xj3L/XRCEajzwYtTdiFeEGw04fkBNg8Uk9gxGRLqK4gAaEUI1fjVgNXpDmN2BCgwGYxQIxnF6QUu6X6Tz2KDKhPAuNAarRk8Ic7sYEEThP7y8DUyHpRAt77XlZfchCjJhlB3savSCsCLIgBwHGdjniuYyMKJJJpOSrEGo1VhQ1iEI8qkBdgx5QFhqYOUEgwm80Li2lkGJhWRGrS+KKaARBtnFwQU4/RMeKIAgFcdfsF8VSGnwDV6+DUFEGGSFgU3Uvgk3iooGY8+ZeBBAYY5IgDEFMC4vR37NSwo36ZNQMaLy2DmBoqgEVKatjggBlfsQZDj5q+Kgiqf9EeYoHTCIFYgmIfvcVEMM0eLnPGCmY+gKlmOUi9cGZG36IqwLRkB5MaLZCD43ARaiABoYSkhBFQtUXLmUbWwMZBejH8KWakR1iWE7EowZ96DC2IoyHItUzHD6xfzaIBD7INRsjEGFlPI/oy1FWloEBnaT+GtusvL965mwtmadoYgsIQTlyGVRCUzpqupMKPvlQX7Dcy5VKlvh8DZKunslrFAEQLi4mAQHsMOjZFd/I66oDgjThOsbfpmbZgFXaqulwHhvhAf2JaiqETKySD2fIyOquUG4EAXCW/gdfwBbSscSnXzxohfC2o59CeqIgEsw6OVv6MznBkWDKOE9YNGXykZWNwOh1dMy4YvT21ulY/42hxmqD5sVogwA8TbF6tiATZDuStGX+lT2VWM/QRUTvpRoWgwf69cdNFjCUM2MQSE6LWAjCmQfIUSpKOlK3pdk0UgI/XEbEn6BTR8tbncMiF1nqIERPGeQA4xxVCJKCcx0EJDfxuz4EYNvG+NGOtP+SVvdLKILTXcv3GmGapJgmFQ0EU0xWI0uF/KLPkzU9aShxFCl26Zdv7zbPXW2oRahogIXZFn2GJeDhg9B+Lq24ZVMhtphUypAbztq0WmG2nWEYjSW+6MQJ1xs/wnlefRW35aqqsboZNia6zjVbe2BtjrClHXcKEfifnf993+IWa8FXNAmRa8z/kMR2s2qbElFHVBtKqAl8i3dcJqhjBBLUHGTIhHhH/90/ed/5gw/hVdw0WiCsd0nrw1qE3OIVej2M1JG840ZXZek7rMcKQ7Fghwdcg+cQZEogJEJjXgUvIblx69x1o9qeGpstI6QvERn8m09B9B70pL2aLG16AQIBJzTQqcXpfRMHhIyf7n++7+qeICLUgxesHzLfrfYlJehTU3bshRXteWIjKoxDDDb09qBmxNMqAEAiFEwXsMX4mpMLCUor3CJKKNqGIWixuKH/EMvk4zsaW1fPSxK+gaYqRVGMqz92kGKTziGMfzNaR0eACHBaYSajWUog9cAu2gQFi2Cmx4SBpqqpwiLVVyalr/R1Ym+LWzJ86ZWQltKgCMlBmhkxbVWwvQDmFvAS6dTxutjpu84NEFyFpPqqTmtyfMRRt1wkkqZPNYjnQ+ZEKFpbcLVuP415EMDp6xmX1EgtIJribgRAOcQZkJgzO9BA8HUhKBJeE9tTW5bhHzhPLIuYZgmroZlS1oVza6/kN/6LKUOjpAZgCKOKVs8ZfAJAHv5mIVQuz8gmMIsG9aF6HHoVt96De+XSHj10asv5YZe1DphYqTpwtfyCgT2BFbd0l1vsJxeomDxkrUQqiXEIMt8hmd/btHyaV4TwhtfwFOTTqItIkmSm+wtrYRYPlPHFjXPU0WBULI3YS6YUB2FXPG11J2UMjAIRhev4fdYVRhseJ5hHGKicIHOSPl8JtyW5M5Q+3NnqxqYadDGPfmb6AU5r5d32BRCQ5Qjb1ZwiRiPCXPW8AhEvQYMyJ6ezifFkFhYzWQKDl2FdFudYMCwEoGxr6KGZxybwtNYnZ4QKSakGLUMhWrCwSjHBmVCqztEYYDXUlWbXiQpnK8mJdGJsKoRcpo94VPGVVMv4h+yTEK1M5gw9pc/Xf+bWsKn4CtRNJExYaVhAQSexjTKsNQtMBrtuSeTtBNhntHGoZSSgKUxRlUIiEG3oZabKJb78vr1v/9VeYvAJeT7gwltKiz6UctoyVkwnalimyNliIBQh1qKJ+9JWBSI1pRhNWl+AxP+XCUMxqLKokSEitINKtz1pbxf2c6E4PKTZI5VTYUWh9E2VzzZxoZlQhkVoiV/0MfH/vjl7/+mTQBtgkPCXavf8afgBq18fTVcwNaTrv5M9hbQ/+XVx3YVwhv6QGIUa1Ug2uM2aUMnDMY4Lm5lQYStIgCm0g2OVP2R+qvy853Vn0JCGoU5hxNbpdLW1rakPvoZeq5lDjCssSkwUEvZIFRCYnUNElJsKpGAuRSrvu7nZmmu2c7n26s/gYRieNtYEa60mtunT0uSpGYVfPFrbtc+lAOnwoZDtsVfyzU4tNEG0/2EEMMJo78b3uNKzfvOOsle1xuL2HQAvrFWypGuWHPIOZwJA1HZ3gLAMimU9Df87ctQCcn7FrkGhflubjjtETmQuBFO6AU4VBhI+bQ5o4o7YWDnJssXoweO/ji3SAZxI1wzZdNsw+eWzA6EuQ1qzc2U15wyY2fCitkb+uQLdelACBnc3+8yS4nFfP6aJa3wawdRk46EHcShxggJQcqYGGsvrFn8vT+bTwaZ6JPQyVtEAfXl9T/bnSVIWAr93qe+FumXsORQRqWCv/vT9b//wY6eUKNAOIn5YoPzvXGoX0JbFC0LwzkRRhU4ZjH1+Uad6GO9lX4JazdJpgYIDEiRZylMMvhF6kY+LIYG85RQv4SBViMGxcqBTKkQJVgaNrF7Qwl6k4NpwOybMLuL+9WoBKOuLuQk5MDbWowBgNkNh9TEZUCnD/RNGPgHj6lwwRCmwFQ0Go0ptbWYDCyHoWxMiFKLWnctHR7QEzReEGIAmTCBswYupdhNqF2UKCGFCokUBI5peWd4UOea9U94jUONFiwuQcnBWlxQsgcKdWMAFhNyuO7G6Kl1oQnT0G3/+737JswtMhxaiNjPxQXcYSLIsRxI4fwPpGT/AVDF1LCFV5BQTcH3J9r6JtyQl6FsThk4JSmBo5RolUlQMMmV24JjUKEM9dy4hYdOyKIlL2lI4rE/hDoD01xcjccBiKeiiQRKQNhEFKa7cWNbBJ0PS9Kq3120/RLaNiCw2TRkHHrRCX1h6o9GjwvRouRzS3ufhOT80DE7hBPX8MgXjbe6/Pb8fRKSUwsXQnDDoMRkAXl/nx9i74/QIcV3I1xM6jpMFgr5vFRt+ppe9EfYImcWLoRB/oahpy5fwA8Lv+qnV+yLMGurz3cmBIsFTYVJUd5CcOrC8kT6IiyRVWjZTLUiakqUCpKy4+XnUuyLMOrQZRMjl/oVQk4xp2I4j1ojsRJ9PBOkH0KH/N6hLV9HpGQsMQ8TxSreWf+xEjr28nGE1NcgirHJV0Nh9ES09KOdpRUnFerNJeSXU8oRL6F8uFBArXW+nnrSB6Ftr1pDID4eo0lcfxgiA9chenzfz6imd8J1a7uBgcFp9xAJe8PSMUAXfI1Meye85ty0jx8J5qLEVjiwaOmJ8DtF7JnQ1vRjwkhQpJI+kmIplzc1JoV/rLmFQzlfJWQdJina8M1uqQU3mON3foalT/GJ8DlxhqJXcANbrbX9aiGTKUjb/j8M3DNhy52QbE3h6kx8pXxArlIZSEnYH8LgVySPCKZTUYYtDvgYnp4JS0WXJ374cTshy0RTqLMN+NyZYJWeCes3E5Sjz+MnrIQsoz4i7Eubnov0TLjDszEqmoqT+4Ja5kZ1APl0lfN+b92bpFdCnBoCdlqgKIGxQRZNhCAeFUyX8GsD1GKPhFqzFxx5nIsKlkSxWDIQ2h78AoBPlQamxh4JTWVS9IxFzMRQrGv1DTCdMDxygu5IjKN2Do77zHH/0huhvcnXvBtarGhRa1xvngYgxqTg2mX860UkSE+EWXv5Aggpw88aOQOhpmi4ZrlpVAP3q5+UKD0RbvDydoxxlxdw+rPpRkIQQ13scB5HOe1p58EdvxPojTD31cZ4IhpFe58pJqYOG3B6/Ymr6WEram5PobMkDNPY+6crnKVHS3OgKDGGHrTnlOdHtUMTgJA1VKnAcypmiX98PPHDJj0S6pMQtR8I2N/FBQPhuqGIQ9mLjsLgHGJvhFlzuRDSwZhFf/YJ7AYMhIDw8GJxcAe29UaYs9VoYNypg0DCmu7ylacYTDLAhdgbISH9BcGUIfA0P3JgL/IPcCH2RkgoJBo1ZSEkTtOBZYm9eXxCMxswHF2CHqAwFMRJFWLg2+lCVumJkLTnZHziEKyZI1fSKViA+jH3RJEmqVFPqLPZWOUgPkU8qEP3eoppCEdbmI7yQoSm1lqGUDz1/DAMB+mFkFhINE5EZCnrxotIJyj53uCtSC+EpL1tk5bQ4E3bGkRbM6BaRg+EJDtjPm8OdafXTE9rEx3GYBZi94TE9gRgmoa4/97kUQyP2GpZl+9PWsjSPSFxFU4L7oToFiCuWFzuZIyiFr/nA5mmXRMSW9eB+aQyXPO1XMcICC3F4W5ULAMyNV0Tom5LG6HZVoIGcuYWQgCTZXNVgBuMy++acOJrnNib+9TN/k4+isWqa+t9GVTw3f06rF1j8IHBKU45GRkA1jxJMSEpdjXJoBKoXvzhCww2LdsMQRBSlCUhRoWmmvVsD6sKB2NJeyLcWFTmJDaO01AsMxCbEIdGBrVEBwZ2FnQP3qLIks7pNBKi3I/cMBWPoqdPKIGJDayg2DVhqQFIAYpRcOrn8FCbrME4J6wdDGjnolvCClxenXqeFtHYnR7bU0HZ4kBOgu6aMCcXY9y6K5UDWlw7GfBlP8rIOyv/IYsg4cBHgwqxG3DsCZNVOLg/OdMdYUfFBLWzOu3xOTOtGNIYw1G/HdjmTG86dNNgRbnS9hJ2nxSOFeLT07s79R/jLA3U1mIdQhUlniZUOoAu+MKi80kNXkq3trSWoNwZlfOr152aT42X8o0B/Bmvrv3hDh+1nceqDRnrBq9Dxw5pc2bCe3/Gl1W6Jsw12HgiRegxQbugKJyTj+3a4Ml3gZIP+cQzFaaIvP8b3t1Hba0GQJ00XEx9aEuxj1QCHzujZEW1jYb9LqCTvSmOo6IwdtsVhN21nZb/1qaHyLvVYNFxwCn0pCHHMAyHkqkUh8bPpxpF1ZFXnt9EW6cG88LgQ2hxutXYqNWyvtDZPrSX7KlC8XKXcxzhQch4TJ51xZ1s7kBz5NlW4mYK6ysl/ycwMVnpfNS/avCFQ8tn97Yzs9FQl5kh1eftf26stVvU1qN6JV+k/Nx3OiyXy0fNUq6mKrPHXe72N1zMtMyQ5SeFYZUNiolpnRs8H+d2/I1mDmdHRuZmZ8uzL4+uNpulSk49vWWiu8/ZojPSjUVG7Trhi4vXnCbediH/zeepRSSpG98c+u0Am5BQljkIOlvePK8Q7h8eHjaxHB7nrIMSOuNVTMKxwyjs5tqBS5taXaRp5e8fiwP4o8ctjVARlfA8JsayeYzPWc/IjehIXnW/tGY68933gLvkSKj/aOEYE6lm+NsDnR7p2TI+XeF7daZSthIeXlh9OTc3d1b/UfkY8XB9RPvbA3QntdQNJzGKvhOuW3V49sKFmZEzZ4yEs51n0vrC1Bn5b1VmXqY7XW6cpgXfs4mcbZYSCA87fszR/NjUS6SSzMjU1Bn3aytn9D/gNYADTWpznQnnZjp9SnZhamwq/cW3316cXxobu+XqwFsL3501PNvs/4kmI50JR8qdPqS0OTY2tjQ5Ojo6Bb+Y2ne5NPev9Hf/FHXCiO8LcWbuGISdakStWxBs7DIkTCPCtMvUO5qHhNpCpNvljhOkX7lgIfyOQDjb6T5PzCPCqdHRi2mkxE1n81GDF5z9pySf+UrT4sjUv/wusTUtpoZgS0dmO0U14zrhmDthDs3n9MiqlExmCuE25HVftR5I3Up4ZCfsaGqOr0NMODY1n56d/W5yHl097/cBWDmLyz/7wk44MtLBprc20+n00tLk5GR6aWxqqsMsVWQqje2SmTBbaSHJeZgMZxfMhCP7kLBsIXSParKl1YsXR7FcvDg5lV5yIQzsa4RjZ0Yvw39vNQ0f1P7+9jkk3082vXOUFsCR89vV9hc//GAidFuI2ebkG+dGjTL5ncvoXuiEsg43tRCo9MNt/YPOXfRs9l61uou8NfKGC/GC49vXL5vxsHzhbB9n0hrh7CgMD8bUuL524bb5Q97w6jwlW/40YyccmXP6ZaXvCYCj57539C/fzhsI0b/zckxYt3/QuR+8QVy3ZhcRyU5YdkjYK98T+JB87/CG7LcwKJAn6tLl0ctLY+mLt6G7yB7eJnzIOeep041krTocmbETOizE7KQDIFyM5LWYgyRLeKKmoXOBpgaaqNut1iRpJqBXPEE8sgXfbRvhyAjxrU3ywPD9JyckFaSri9CGXr6oX/t/jh8z6ck8tUY1ENFOuECyHS4qhPOUqMRDEozzx9z2pI5qS/NHzp61ERKn6Tpp8ajyBmmGVUjvcLlP5zxxGTUrINLieessJU3T0hsuhMTBEWF8J7QvRJKcIcQp7oRt+xvI6/ay74Q2j0gSUinDnXDV/gaytvzXoTX4dhC7WXMntDszh3V7kfhTLwltoSlZifYSWt2V0K70FnGSugCOnvMoeTzWNCUkid0SEl2F2yQdfcOjknjNmkERxR65uRPaJ1i7a0Jv/GHAXqw5phKJ3s2FsHsd3vaqiGN3+sdSYreEZMvUfWDUi1hrisdT4oQb4W07YfaH7mK20dH5fa+UWD+WEi3m9MVm2mV0S2W7lRi/TDCcLvlJemzeMTPtVi4cx5yafWJrc2pqKZ1empq6DGXSLJdhFpi2/pLmZnp/5Ax6x5ThHVOTF02i/hh+tLmM059kXx4rsDH+Olxx0asuFoEvbFrWbS0N0WxvWBpbWoI3ShP43ZL2EWNj80ceEQayF8qd16IpdDuatw7WIpuWUkau7HjplC6WV+a7bChwk8pIR8ayMcRo3upEaNFhdsRR487o3hb960ezs26QZ0yhZm3BfcDztnW4nt6cnydMVCe6qflbC17v8+daR7NlMuXc7Jxl0ddHysQRo7k2f6tMMvT18aOZ9Oxmuby5uXnr1rwiU8ZJCt8L5dbmZnl25qjpx7ZNrdI8mlsoQ23O6XCz5fJRy+Z9s7nSxNX9hQU8WDw+OLRbm+WF2aOJ5rqDmc/Warlcbr1SajUnkIxfPXqxP5IulxewlNP7R1cnJpqtdb2LyQ+pVUrNwwszmG9m5kKz5DRePGQ0WjjOFy/g2Fqteq6HFrysJt2+8/8Bosx4nKLM8YEAAAAASUVORK5CYII=;" parent="1" vertex="1">
          <mxGeometry x="280.15" y="999.99" width="39.85" height="39.85" as="geometry" />
        </mxCell>
        <mxCell id="dOUqNgxCJLWoSc9xT5iU-273" value="zookeeper" style="text;html=1;align=center;verticalAlign=middle;resizable=0;points=[];autosize=1;strokeColor=none;fillColor=none;" parent="1" vertex="1">
          <mxGeometry x="210" y="1009.93" width="70" height="20" as="geometry" />
        </mxCell>
        <mxCell id="dOUqNgxCJLWoSc9xT5iU-291" value="" style="sketch=0;aspect=fixed;html=1;points=[];align=center;image;fontSize=12;image=img/lib/mscae/BlobBlock.svg;dashed=1;" parent="1" vertex="1">
          <mxGeometry x="480" y="999.99" width="47.63" height="40.01" as="geometry" />
        </mxCell>
        <mxCell id="dOUqNgxCJLWoSc9xT5iU-293" value="blobstore" style="text;html=1;align=center;verticalAlign=middle;resizable=0;points=[];autosize=1;strokeColor=none;fillColor=none;" parent="1" vertex="1">
          <mxGeometry x="420" y="1009.92" width="60" height="20" as="geometry" />
        </mxCell>
        <mxCell id="dOUqNgxCJLWoSc9xT5iU-294" value="metastore" style="rounded=1;whiteSpace=wrap;html=1;" parent="1" vertex="1">
          <mxGeometry x="590" y="1750" width="80" height="40" as="geometry" />
        </mxCell>
        <mxCell id="dOUqNgxCJLWoSc9xT5iU-295" value="大文件" style="rounded=1;whiteSpace=wrap;html=1;" parent="1" vertex="1">
          <mxGeometry x="130" y="1380" width="80" height="40" as="geometry" />
        </mxCell>
        <mxCell id="dOUqNgxCJLWoSc9xT5iU-305" style="edgeStyle=orthogonalEdgeStyle;curved=1;rounded=0;orthogonalLoop=1;jettySize=auto;html=1;entryX=0;entryY=0.5;entryDx=0;entryDy=0;startArrow=none;startFill=0;endArrow=none;endFill=0;dashed=1;" parent="1" source="dOUqNgxCJLWoSc9xT5iU-296" target="dOUqNgxCJLWoSc9xT5iU-304" edge="1">
          <mxGeometry relative="1" as="geometry" />
        </mxCell>
        <mxCell id="dOUqNgxCJLWoSc9xT5iU-296" value="file" style="rounded=1;whiteSpace=wrap;html=1;" parent="1" vertex="1">
          <mxGeometry x="250" y="1340" width="40" height="40" as="geometry" />
        </mxCell>
        <mxCell id="dOUqNgxCJLWoSc9xT5iU-307" value="" style="edgeStyle=orthogonalEdgeStyle;curved=1;rounded=0;orthogonalLoop=1;jettySize=auto;html=1;dashed=1;startArrow=none;startFill=0;endArrow=none;endFill=0;" parent="1" source="dOUqNgxCJLWoSc9xT5iU-297" target="dOUqNgxCJLWoSc9xT5iU-306" edge="1">
          <mxGeometry relative="1" as="geometry" />
        </mxCell>
        <mxCell id="dOUqNgxCJLWoSc9xT5iU-297" value="file" style="rounded=1;whiteSpace=wrap;html=1;" parent="1" vertex="1">
          <mxGeometry x="250" y="1380" width="40" height="40" as="geometry" />
        </mxCell>
        <mxCell id="dOUqNgxCJLWoSc9xT5iU-311" style="edgeStyle=orthogonalEdgeStyle;curved=1;rounded=0;orthogonalLoop=1;jettySize=auto;html=1;entryX=0;entryY=0.5;entryDx=0;entryDy=0;dashed=1;startArrow=none;startFill=0;endArrow=none;endFill=0;" parent="1" source="dOUqNgxCJLWoSc9xT5iU-298" target="dOUqNgxCJLWoSc9xT5iU-309" edge="1">
          <mxGeometry relative="1" as="geometry" />
        </mxCell>
        <mxCell id="dOUqNgxCJLWoSc9xT5iU-298" value=". . ." style="rounded=1;whiteSpace=wrap;html=1;" parent="1" vertex="1">
          <mxGeometry x="250" y="1420" width="40" height="40" as="geometry" />
        </mxCell>
        <mxCell id="dOUqNgxCJLWoSc9xT5iU-302" value="" style="endArrow=none;dashed=1;html=1;rounded=0;curved=1;exitX=1;exitY=0;exitDx=0;exitDy=0;entryX=0;entryY=0;entryDx=0;entryDy=0;" parent="1" source="dOUqNgxCJLWoSc9xT5iU-295" target="dOUqNgxCJLWoSc9xT5iU-296" edge="1">
          <mxGeometry width="50" height="50" relative="1" as="geometry">
            <mxPoint x="290" y="1430" as="sourcePoint" />
            <mxPoint x="340" y="1380" as="targetPoint" />
          </mxGeometry>
        </mxCell>
        <mxCell id="dOUqNgxCJLWoSc9xT5iU-303" value="" style="endArrow=none;dashed=1;html=1;rounded=0;curved=1;exitX=1;exitY=1;exitDx=0;exitDy=0;entryX=0;entryY=1;entryDx=0;entryDy=0;" parent="1" source="dOUqNgxCJLWoSc9xT5iU-295" target="dOUqNgxCJLWoSc9xT5iU-298" edge="1">
          <mxGeometry width="50" height="50" relative="1" as="geometry">
            <mxPoint x="220" y="1390" as="sourcePoint" />
            <mxPoint x="260" y="1330.0000000000002" as="targetPoint" />
          </mxGeometry>
        </mxCell>
        <mxCell id="dOUqNgxCJLWoSc9xT5iU-331" value="" style="edgeStyle=orthogonalEdgeStyle;curved=1;rounded=0;orthogonalLoop=1;jettySize=auto;html=1;startArrow=none;startFill=0;endArrow=classic;endFill=1;" parent="1" source="dOUqNgxCJLWoSc9xT5iU-304" target="dOUqNgxCJLWoSc9xT5iU-330" edge="1">
          <mxGeometry relative="1" as="geometry" />
        </mxCell>
        <mxCell id="dOUqNgxCJLWoSc9xT5iU-304" value="blob&lt;br&gt;manager" style="rounded=1;whiteSpace=wrap;html=1;" parent="1" vertex="1">
          <mxGeometry x="310" y="1340" width="80" height="40" as="geometry" />
        </mxCell>
        <mxCell id="dOUqNgxCJLWoSc9xT5iU-306" value="blob&lt;br&gt;manager" style="rounded=1;whiteSpace=wrap;html=1;" parent="1" vertex="1">
          <mxGeometry x="310" y="1380" width="80" height="40" as="geometry" />
        </mxCell>
        <mxCell id="dOUqNgxCJLWoSc9xT5iU-309" value="blob&lt;br&gt;manager" style="rounded=1;whiteSpace=wrap;html=1;" parent="1" vertex="1">
          <mxGeometry x="310" y="1420" width="80" height="40" as="geometry" />
        </mxCell>
        <mxCell id="dOUqNgxCJLWoSc9xT5iU-312" value="小文件" style="rounded=1;whiteSpace=wrap;html=1;" parent="1" vertex="1">
          <mxGeometry x="130" y="1520" width="80" height="40" as="geometry" />
        </mxCell>
        <mxCell id="dOUqNgxCJLWoSc9xT5iU-314" value="Filemanager" style="text;html=1;align=center;verticalAlign=middle;resizable=0;points=[];autosize=1;strokeColor=none;fillColor=none;" parent="1" vertex="1">
          <mxGeometry x="130" y="1460" width="80" height="20" as="geometry" />
        </mxCell>
        <mxCell id="dOUqNgxCJLWoSc9xT5iU-315" style="edgeStyle=orthogonalEdgeStyle;curved=1;rounded=0;orthogonalLoop=1;jettySize=auto;html=1;entryX=0;entryY=0.5;entryDx=0;entryDy=0;startArrow=none;startFill=0;endArrow=none;endFill=0;dashed=1;" parent="1" source="dOUqNgxCJLWoSc9xT5iU-316" target="dOUqNgxCJLWoSc9xT5iU-321" edge="1">
          <mxGeometry relative="1" as="geometry" />
        </mxCell>
        <mxCell id="dOUqNgxCJLWoSc9xT5iU-316" value="file" style="rounded=1;whiteSpace=wrap;html=1;" parent="1" vertex="1">
          <mxGeometry x="250" y="1480" width="40" height="40" as="geometry" />
        </mxCell>
        <mxCell id="dOUqNgxCJLWoSc9xT5iU-317" value="" style="edgeStyle=orthogonalEdgeStyle;curved=1;rounded=0;orthogonalLoop=1;jettySize=auto;html=1;dashed=1;startArrow=none;startFill=0;endArrow=none;endFill=0;" parent="1" source="dOUqNgxCJLWoSc9xT5iU-318" target="dOUqNgxCJLWoSc9xT5iU-322" edge="1">
          <mxGeometry relative="1" as="geometry" />
        </mxCell>
        <mxCell id="dOUqNgxCJLWoSc9xT5iU-318" value="file" style="rounded=1;whiteSpace=wrap;html=1;" parent="1" vertex="1">
          <mxGeometry x="250" y="1520" width="40" height="40" as="geometry" />
        </mxCell>
        <mxCell id="dOUqNgxCJLWoSc9xT5iU-319" style="edgeStyle=orthogonalEdgeStyle;curved=1;rounded=0;orthogonalLoop=1;jettySize=auto;html=1;entryX=0;entryY=0.5;entryDx=0;entryDy=0;dashed=1;startArrow=none;startFill=0;endArrow=none;endFill=0;" parent="1" source="dOUqNgxCJLWoSc9xT5iU-320" target="dOUqNgxCJLWoSc9xT5iU-323" edge="1">
          <mxGeometry relative="1" as="geometry" />
        </mxCell>
        <mxCell id="dOUqNgxCJLWoSc9xT5iU-320" value=". . ." style="rounded=1;whiteSpace=wrap;html=1;" parent="1" vertex="1">
          <mxGeometry x="250" y="1560" width="40" height="40" as="geometry" />
        </mxCell>
        <mxCell id="dOUqNgxCJLWoSc9xT5iU-321" value="meta&lt;br&gt;info" style="rounded=1;whiteSpace=wrap;html=1;" parent="1" vertex="1">
          <mxGeometry x="310" y="1480" width="80" height="40" as="geometry" />
        </mxCell>
        <mxCell id="dOUqNgxCJLWoSc9xT5iU-322" value="meta&lt;br&gt;info" style="rounded=1;whiteSpace=wrap;html=1;" parent="1" vertex="1">
          <mxGeometry x="310" y="1520" width="80" height="40" as="geometry" />
        </mxCell>
        <mxCell id="dOUqNgxCJLWoSc9xT5iU-354" value="" style="edgeStyle=orthogonalEdgeStyle;curved=1;rounded=0;orthogonalLoop=1;jettySize=auto;html=1;startArrow=none;startFill=0;endArrow=classic;endFill=1;" parent="1" source="dOUqNgxCJLWoSc9xT5iU-323" target="dOUqNgxCJLWoSc9xT5iU-351" edge="1">
          <mxGeometry relative="1" as="geometry" />
        </mxCell>
        <mxCell id="dOUqNgxCJLWoSc9xT5iU-323" value="meta&lt;br&gt;info" style="rounded=1;whiteSpace=wrap;html=1;" parent="1" vertex="1">
          <mxGeometry x="310" y="1560" width="80" height="40" as="geometry" />
        </mxCell>
        <mxCell id="dOUqNgxCJLWoSc9xT5iU-324" value="" style="endArrow=none;dashed=1;html=1;rounded=0;curved=1;exitX=1;exitY=0;exitDx=0;exitDy=0;entryX=0;entryY=0;entryDx=0;entryDy=0;" parent="1" source="dOUqNgxCJLWoSc9xT5iU-312" target="dOUqNgxCJLWoSc9xT5iU-316" edge="1">
          <mxGeometry width="50" height="50" relative="1" as="geometry">
            <mxPoint x="360" y="1550" as="sourcePoint" />
            <mxPoint x="410" y="1500" as="targetPoint" />
          </mxGeometry>
        </mxCell>
        <mxCell id="dOUqNgxCJLWoSc9xT5iU-325" value="" style="endArrow=none;dashed=1;html=1;rounded=0;curved=1;exitX=1;exitY=1;exitDx=0;exitDy=0;entryX=0;entryY=1;entryDx=0;entryDy=0;" parent="1" source="dOUqNgxCJLWoSc9xT5iU-312" target="dOUqNgxCJLWoSc9xT5iU-320" edge="1">
          <mxGeometry width="50" height="50" relative="1" as="geometry">
            <mxPoint x="220" y="1529.9999999999998" as="sourcePoint" />
            <mxPoint x="260" y="1489.9999999999998" as="targetPoint" />
          </mxGeometry>
        </mxCell>
        <mxCell id="dOUqNgxCJLWoSc9xT5iU-344" style="edgeStyle=orthogonalEdgeStyle;curved=1;rounded=0;orthogonalLoop=1;jettySize=auto;html=1;entryX=0.5;entryY=0;entryDx=0;entryDy=0;startArrow=none;startFill=0;endArrow=classic;endFill=1;" parent="1" source="dOUqNgxCJLWoSc9xT5iU-330" target="dOUqNgxCJLWoSc9xT5iU-343" edge="1">
          <mxGeometry relative="1" as="geometry" />
        </mxCell>
        <mxCell id="dOUqNgxCJLWoSc9xT5iU-347" style="edgeStyle=orthogonalEdgeStyle;curved=1;rounded=0;orthogonalLoop=1;jettySize=auto;html=1;startArrow=none;startFill=0;endArrow=classic;endFill=1;" parent="1" source="dOUqNgxCJLWoSc9xT5iU-330" target="dOUqNgxCJLWoSc9xT5iU-346" edge="1">
          <mxGeometry relative="1" as="geometry" />
        </mxCell>
        <mxCell id="dOUqNgxCJLWoSc9xT5iU-330" value="" style="whiteSpace=wrap;html=1;rounded=1;" parent="1" vertex="1">
          <mxGeometry x="430" y="1340" width="120" height="40" as="geometry" />
        </mxCell>
        <mxCell id="dOUqNgxCJLWoSc9xT5iU-338" value="" style="verticalLabelPosition=bottom;html=1;verticalAlign=top;align=center;strokeColor=none;fillColor=#00BEF2;shape=mxgraph.azure.storage_blob;" parent="1" vertex="1">
          <mxGeometry x="440" y="1350" width="20" height="20" as="geometry" />
        </mxCell>
        <mxCell id="dOUqNgxCJLWoSc9xT5iU-339" value="" style="verticalLabelPosition=bottom;html=1;verticalAlign=top;align=center;strokeColor=none;fillColor=#00BEF2;shape=mxgraph.azure.storage_blob;" parent="1" vertex="1">
          <mxGeometry x="460" y="1350" width="20" height="20" as="geometry" />
        </mxCell>
        <mxCell id="dOUqNgxCJLWoSc9xT5iU-340" value="" style="verticalLabelPosition=bottom;html=1;verticalAlign=top;align=center;strokeColor=none;fillColor=#00BEF2;shape=mxgraph.azure.storage_blob;" parent="1" vertex="1">
          <mxGeometry x="520" y="1350" width="20" height="20" as="geometry" />
        </mxCell>
        <mxCell id="dOUqNgxCJLWoSc9xT5iU-341" value="" style="verticalLabelPosition=bottom;html=1;verticalAlign=top;align=center;strokeColor=none;fillColor=#00BEF2;shape=mxgraph.azure.storage_blob;" parent="1" vertex="1">
          <mxGeometry x="480" y="1350" width="20" height="20" as="geometry" />
        </mxCell>
        <mxCell id="dOUqNgxCJLWoSc9xT5iU-342" value="" style="verticalLabelPosition=bottom;html=1;verticalAlign=top;align=center;strokeColor=none;fillColor=#00BEF2;shape=mxgraph.azure.storage_blob;" parent="1" vertex="1">
          <mxGeometry x="500" y="1350" width="20" height="20" as="geometry" />
        </mxCell>
        <mxCell id="dOUqNgxCJLWoSc9xT5iU-348" style="edgeStyle=orthogonalEdgeStyle;curved=1;rounded=0;orthogonalLoop=1;jettySize=auto;html=1;entryX=0.009;entryY=0.491;entryDx=0;entryDy=0;entryPerimeter=0;startArrow=none;startFill=0;endArrow=classic;endFill=1;" parent="1" source="dOUqNgxCJLWoSc9xT5iU-343" target="dOUqNgxCJLWoSc9xT5iU-346" edge="1">
          <mxGeometry relative="1" as="geometry" />
        </mxCell>
        <mxCell id="dOUqNgxCJLWoSc9xT5iU-343" value="" style="shape=image;verticalLabelPosition=bottom;labelBackgroundColor=default;verticalAlign=top;aspect=fixed;imageAspect=0;image=https://dbdb.io/media/logos/rocksdb.png;" parent="1" vertex="1">
          <mxGeometry x="451.5" y="1400.45" width="77" height="19.55" as="geometry" />
        </mxCell>
        <mxCell id="dOUqNgxCJLWoSc9xT5iU-345" value="blob meta" style="text;html=1;align=center;verticalAlign=middle;resizable=0;points=[];autosize=1;strokeColor=none;fillColor=none;" parent="1" vertex="1">
          <mxGeometry x="420" y="1380.45" width="70" height="20" as="geometry" />
        </mxCell>
        <mxCell id="dOUqNgxCJLWoSc9xT5iU-346" value="" style="sketch=0;aspect=fixed;html=1;points=[];align=center;image;fontSize=12;image=img/lib/mscae/BlobBlock.svg;dashed=1;" parent="1" vertex="1">
          <mxGeometry x="616.19" y="1360" width="47.62" height="40" as="geometry" />
        </mxCell>
        <mxCell id="dOUqNgxCJLWoSc9xT5iU-349" value="rocksEnv" style="text;html=1;align=center;verticalAlign=middle;resizable=0;points=[];autosize=1;strokeColor=none;fillColor=none;" parent="1" vertex="1">
          <mxGeometry x="556.19" y="1400.45" width="60" height="20" as="geometry" />
        </mxCell>
        <mxCell id="dOUqNgxCJLWoSc9xT5iU-350" value="blob data" style="text;html=1;align=center;verticalAlign=middle;resizable=0;points=[];autosize=1;strokeColor=none;fillColor=none;" parent="1" vertex="1">
          <mxGeometry x="560" y="1340" width="60" height="20" as="geometry" />
        </mxCell>
        <mxCell id="dOUqNgxCJLWoSc9xT5iU-357" value="" style="edgeStyle=orthogonalEdgeStyle;curved=1;rounded=0;orthogonalLoop=1;jettySize=auto;html=1;startArrow=none;startFill=0;endArrow=classic;endFill=1;" parent="1" source="dOUqNgxCJLWoSc9xT5iU-351" target="dOUqNgxCJLWoSc9xT5iU-356" edge="1">
          <mxGeometry relative="1" as="geometry" />
        </mxCell>
        <mxCell id="dOUqNgxCJLWoSc9xT5iU-351" value="" style="shape=image;verticalLabelPosition=bottom;labelBackgroundColor=default;verticalAlign=top;aspect=fixed;imageAspect=0;image=https://user-images.githubusercontent.com/2289/35121759-6490fb0a-fc51-11e7-9dfd-dde9e2d09765.png;" parent="1" vertex="1">
          <mxGeometry x="451.5" y="1565" width="72.57" height="30" as="geometry" />
        </mxCell>
        <mxCell id="dOUqNgxCJLWoSc9xT5iU-355" value="meta&amp;amp;data" style="text;html=1;align=center;verticalAlign=middle;resizable=0;points=[];autosize=1;strokeColor=none;fillColor=none;" parent="1" vertex="1">
          <mxGeometry x="389" y="1560" width="70" height="20" as="geometry" />
        </mxCell>
        <mxCell id="dOUqNgxCJLWoSc9xT5iU-356" value="" style="sketch=0;aspect=fixed;html=1;points=[];align=center;image;fontSize=12;image=img/lib/mscae/BlobBlock.svg;dashed=1;" parent="1" vertex="1">
          <mxGeometry x="616.19" y="1560" width="47.62" height="40" as="geometry" />
        </mxCell>
        <mxCell id="dOUqNgxCJLWoSc9xT5iU-358" value="leveldbEnv" style="text;html=1;align=center;verticalAlign=middle;resizable=0;points=[];autosize=1;strokeColor=none;fillColor=none;" parent="1" vertex="1">
          <mxGeometry x="530" y="1560" width="70" height="20" as="geometry" />
        </mxCell>
        <mxCell id="dOUqNgxCJLWoSc9xT5iU-360" value="" style="rounded=1;whiteSpace=wrap;html=1;arcSize=7;" parent="1" vertex="1">
          <mxGeometry x="120" y="2060" width="200" height="260" as="geometry" />
        </mxCell>
        <mxCell id="dOUqNgxCJLWoSc9xT5iU-363" value="" style="group" parent="1" vertex="1" connectable="0">
          <mxGeometry x="130" y="2070" width="40" height="70" as="geometry" />
        </mxCell>
        <mxCell id="dOUqNgxCJLWoSc9xT5iU-364" value="" style="rounded=1;whiteSpace=wrap;html=1;fillColor=#fff2cc;strokeColor=#d6b656;" parent="dOUqNgxCJLWoSc9xT5iU-363" vertex="1">
          <mxGeometry width="40" height="70" as="geometry" />
        </mxCell>
        <mxCell id="dOUqNgxCJLWoSc9xT5iU-365" value="pod" style="text;html=1;align=center;verticalAlign=middle;resizable=0;points=[];autosize=1;strokeColor=none;fillColor=none;" parent="dOUqNgxCJLWoSc9xT5iU-363" vertex="1">
          <mxGeometry y="40" width="40" height="20" as="geometry" />
        </mxCell>
        <mxCell id="dOUqNgxCJLWoSc9xT5iU-404" value="" style="shape=image;html=1;verticalAlign=top;verticalLabelPosition=bottom;labelBackgroundColor=#ffffff;imageAspect=0;aspect=fixed;image=https://cdn4.iconfinder.com/data/icons/essentials-73/24/042_-_Apps-128.png" parent="dOUqNgxCJLWoSc9xT5iU-363" vertex="1">
          <mxGeometry x="12.5" y="10" width="15" height="15" as="geometry" />
        </mxCell>
        <mxCell id="dOUqNgxCJLWoSc9xT5iU-367" style="edgeStyle=orthogonalEdgeStyle;rounded=0;orthogonalLoop=1;jettySize=auto;html=1;entryX=0.5;entryY=0;entryDx=0;entryDy=0;" parent="1" source="dOUqNgxCJLWoSc9xT5iU-368" target="dOUqNgxCJLWoSc9xT5iU-392" edge="1">
          <mxGeometry relative="1" as="geometry" />
        </mxCell>
        <mxCell id="dOUqNgxCJLWoSc9xT5iU-368" value="" style="shape=image;verticalLabelPosition=bottom;labelBackgroundColor=default;verticalAlign=top;aspect=fixed;imageAspect=0;image=data:image/png,iVBORw0KGgoAAAANSUhEUgAAAMgAAADICAYAAACtWK6eAAAv+0lEQVR4nOydCXgT1drH3zOTLhQoW8sFkrIvLatSmxZtiwrijk0RRATxegFRFhW9yqJeV0Cv96oIXgVULOAnVJoKCIgCpa2WhkUWS4sgawJIK9AF6JLM+Z50TSZn1sx0Sef3EDpz5izvJOc/Z51zdBhj0NDQIEM1tAEaGo0ZTSAaGjxoAtHQ4EETiIYGD5pANDR40ASiocGDJhANDR40gWho8KAJREODB00gGho8aALR0OBBE4iGBg+6hjagocnKygKr1apqGvq2EGDsTsUCgvaI6AOXWq/CL5ZT+K8al5iYGAgLC1PVLg1hUHOfzTtu3DhITk72Op42LSBosB5FxfWmoiM6obCQVmjgYD3q0TYIdYMaVSBce1jn5vzP5TdAcCb9d+ZUx279TxXYQ08ftuKf9/yB0/OLcYXXRgJAWlqaEtE0GzSBeCEQfRvoYLqJHpN4EzU6ujt1P7gWD4j0lyQQzB3G5Tj7JJOefQpv+iqTWZ17Af6UZbDTgmb+e0tFE4gMgRi7oZvfuM9vTnwfNJEoCiAJhCAOEBAIuz5WfZ6yn1mVsp9ZkbIf/yLJcE0gkmn2bRApzIynH0wcQs+L7k4Nc6sWAYc4hBAqPQjxIwQw5hbqiTFR1BPWyzjn5WTHgpR9+Dvxd6EhBU0gIjB2Q/0/Geu3PKITdZvozA/8VSbRYXmuGTqgAWun61Kz/2CyXlrneM5yEiwSrNMQgdbNy4NpMHXP1ul+KbtmBeRUisMVJOKpXwv29CJDaIgjTHQvNGz3Al32/jfp3Ym3oDESYtYQQCtBCOjbAFr0oN+axCH0BK5MyYlQO6IWCW0Pvvhd4umvR/Frn6bj0/Nw6pMrHZNsV6BEovUaLLQShIWxKxq4Y0bASac4PC4SMqUY1Cw9SPHFh6OEtAX00cQoFCchJQ0CmkBcWPSAbvrOmQFHDG1Rd16PktoUhJKCKy6h+HhKD7Y/Q3sUtvYZOv3d8dQCIQs1uNEEAgCDOiPDlqf8ds2K1/1PdCAxmZ0TQsaWWpUTojq+2fdQb/8wl/6/kNbQTuEUmgXNXiD6NmDYOMV/f3wv+nb2Ncntj9qAdX8Vq155hMPk+Ajxx4ej8VlvUof07cAgIXUNXxsoHDdunCT/TnFMD934i6EtCiNVmzwEglzGLvi6cKVNLeGuspEEwq5eEW0kp2m7jM+l/jkmNvsPOMv+LtisX79eyEuzwKcEgiQ88p3iODYvcA8g0FcFdo2oJj5PNzeBcD29eQUifeScUyCC6RPtsI1a6IhMz+OfruJL+cIbmmUVa1BnNCRzVsB+p05kRSChR0k2YqpXfOlz26H/92PUtpDWEOq9kb5PsytB9G2gXeasgNzQVuhvVYFqArtGVBOfp1tlCSCqegV1A4Ry5l4pVno4/3lWx6xX8LnhbzBG22W4CAR8KV94Q7MrQZIm+H8R2pJHHArC20CXMjjoFeQeM0MHFLb7X9RXaqXqKzQrgSRN8PtPdFcqgdcTb/VJylOV5FdkeN7BQQnVKwHRGTqgUWtnU5+KM6p50mwEMm+E7qnEQfScyhMRT2vZXbxqIavdw9WLVseYaPTUpDhI9N5A36RZtEHielADtk7z/63OI8dfkND+IIUjtT/Y4aXaILf9wWmDp//8Inwp5hWmj+0vKKpNxYfyhTc0ixJkagz9iuKRcgmFz583fsTGISOu0GDU8b3HqMUKWOFz+LxAjGFU/8RBuvENbYeigpKaJF+vWzVjYtDTxt5gVC5138DnBbLofr/lDZGuqHzO44lYxZM0i5h7IiMXXz9LrZCQQLPAp98HmXenbmJ0V9aLTvVMfjE+kXsRH8s4jvcC4JLcC/hwfgmUO6916wCtunVAQwCBX1xfFBXRGfULDUa9G8pWQwc0eEEimvtOCtaqW9X4bCNdH4wCjr0ceBYQdKy6yDH/iW96h5sb5g7nObWj2HwAVr6zteIzpzik3IOxJ4pKjETjn72LngoIWrunRZh/xR5pJ08vET2txUmvmY7O1r8wcQCxueGzVayZt+lm1oqj/rj08S77P/u+WhEy8cvyOVLF4cRyEu+dm8y80Pvlig5LfnT8EwCuunkQ037xsh0z+z400bsYfAefLUHyXgo8bWiLutVdFFGCINe42O78JUj6cea7KWsq/mG7Cn8pdT9OIjpDz43P65IN7dFQzi5eMdNLRHQr17DnOP5h+GuOe5S8j6aKT5YgD0RQdxvauIpDWngpg4T5JfjSO1vtU+5dWpGgtDic5F6Ak31eske+vdExJb8YX/IqMpFdzjF90d1epeND+GQJkjTeb0XiIN0U9sBdnUcJg4TAXYJYr+ITd35YfoftKqi7uG81+nZgyHqN/jk0GHV1s82zDSRqgBDYflyOA8bbG9tcggbBJ0uQuB70HZwXpf7sHP7zS/DJOz8sN9aXOJzYroD1sU+Z0QBVvWAa6uNzAjGGUX1CWqJeaqczaVXF321X4Yra6bDJOIYPPfY/h+eKKxqq4HMCGdGHGqt2Gs99WzEu4wROVzsdLlL24Q3PrnGY1Io/vwifVivupobPCWRypO4+RSNkNdGWpNnfXPEz4/1+CV6yfBdO/Wi74zU14k4/ChvViLcp4nON9OK3W2AgzoT1vpFuLcRn+r1Zzr9mVj1z9kPaGtoGub9Xz9XNK7KRHv+qw5hdOfKv4VMliGkAPUrN+D/ebf+XmvHLYcM+/KHkQDzPxD2/458tJ0ATRzU+JZDwjhzzmCQWkqRC9cxlfHLpbqbRvaL6+gZmBW+bAXMcE/zkF+FLTy9ntA4AF3xKIBEdKffF36TWHnn8b8tlvpRnlboU3oDCYa874gDAVuuIpd86AJQ/+yW+I9cmvGZWc8KnBKIPRgFKisIV8yFmlxyb6oPK8ZFPHLdZ/8LnOD3x32fRhI+Yh1Ky8VEVzGvS+FQjveTtoHwACKlspBJGl2sR+7qri1vLF0ob/ciyvh0Y1s6gv4ruje6UMJp+acISxyMp2eC2u6cv5Qtv8KkSpFIcKpB9mtmmRrxK4yxJbn/bMeLtVGa6M+MLeL/20Vbm/V6zHEPY4tCow6dfmFKKgzbmYH2nOXbsWOjfv7/c4J8tPgmfxYcjY4Qe+ocGV0/crCo1Kg6fwZkb9+N06AUwZZZyNvsimkBEkPEHc6C+03QKxPnxEkv1x42hgwGGPuht1M0DX6tiaWgoSjMSiBdtbK292mxpRgJxgS/DV1/TOnE0oFkIRExGF/Bj7Ea3V8ocjaaFrwnkcuX/WGQJILKUMLSFEd6ZpdFU8SmBWM4ymZwXvagyGbtRg+WH1mjK+JRAbEX4uhrxGtqifoO6uCwCodFs8CmBWM4KjXiL7MkilDYx3al75Vml0ZSpN4EkJydXvtCk5sdWhBVddse1HZM4hL5Lybg1mgY+NZJuznFsdj13ZvDKSYeYUHjUuJGuEYjvRSXq20AnWyF5Tz+lycrKqo9kakk0ov4AMKDyhPx9FGUfx7vD+saUhoWF1attDUm9zeZ1liBS9zGXg2VWQFZERyrGY1auArN6Uw471k1Kqmj4rRRkENIaWkbo0S3x4TCoewj07BaCbo4wQOvQYBRZ6YFrjV8gul0/dBrvK7wB59KP4uNHrXDgxEV8+PAZOFMPt0JErXzsUyWIkx3HmU2VAuEsGZC4Li1C+MTB9CPZ8cy3S9Md3yplr5oYe8HgMVHUAyMHIlN/A7ql0rH6/XriV+N6z3ylLkDQkO4o3nkQH1HzJAGwXsYnsk/ADxt+weaUbLxDtRurR3yuBDEaqCE7ngqomn1LfC8ExK2SDpzvhtj6vllqtBXCeXXuwDv07SDoiThq9hPx6O+G9qgvuXRkCUTM+r1suK7VuRd8up1Z9u/v8DLbZciXeh9SUSsf+1QvlhOLlTmUfw3/WXPO+72xr4n7jvWrH/dvdDvDGnuCcc10asWJ93XXXnmIWmRoh/pWXqi5J7d7Q+RbZfuV8t25ulddC5k+ivrXH8voS2lvUKui+0CUpBtqJPicQJxknHJ4vgAk5kcXSXR36sH5o3T/9D4m70m8BQ09/m5A1u75uuwxUdQUt4tcDwDMukxa2MH1r8BiD5zXqj8xfdDk3W/SlrXPonX69mAQdWONBJ8UyA/HmKqFzxQqdTEhAy24W/f6/FH0I8qkIJ3ESJS4/w3dhrXTdfsNHZgYV9vcYGfw2oyP3IPwiYQrbnAXAi8YYEw0Ne6PpfS5tc9S6xOj0Z0CIRoFPtcGcRISBLpT81oUA0CgYDsEBHpwON5Rr/qLIeWgY8WkJPs0Ne6DhCkSDXlvLJ1kaI8Ge7YVCG0rEOqtw+5OxPvkiI8PEX427GHWvbQGP2m7DF7PgNDaIBIouA72pT/bP6k5x2Lq1jL3x0y8iZ6681k/c0hL6CDTXFEYe6CBu16iP1s7TXdQ3w5JmxvGd/8Ykf2y/YspTdjxCJQsY2KoR3a/QeUlRiNll4tVEJ8UiBPzb44llQdqVLNqHasyV3R3KmHfXP/dxu4oXJnU6jANRXG7XqLT017WHYnuSbmXVB4ZHrHOCX5J5xi552XMIQ62SMR+t5j7Y2iPwr6eTX2/djb1eUhr8BcZY73hk1WsGpIe8f/ANJB+Tu1qlut57p940/JMe0r6Cbw172Jdb5pYIjpDr7g+1LD4vig2ri8aGdoa9RLsfhZb1SL55atueVznOOZzk8Ch0/jXF9cwUzJyQfIaAGrlY58WiD4YBeT9M/AUIOjskblJAiH9BaFFraszFiFc7kUm86c85tvs09hqu4p3Wk5jt/1EIjqhthGd0Uh9W2gR3RPdb+yBBhvaoQg+G9jHiFPYAiLhjZswkChFKHzuIvhoC/Piy2vxf6SE0QQik5nDdM8uus/vQ68WkwNppQhvQ5edAflKNCn2SClFQAGREMPwIHSdlQ33HMcbH/uYecp2WdzcN62RLpOlWfaP8q9xLe5M+NXkjJdIeXtR6pgCV7iasQzOBjhPe4SUpkf7Ank2M0iNdXZbRUx3MOnDIqYPGr37X5QlPhy68tyB6vi8QJy88kPF8yDUmyWiHx84xkQ8hCYYLyKPP7jGI6GhLUskpAzqIQBUa6sooSj8MbRDYeufow7EhcNwwh3UC81CIF//6ki1nGVSVE1E6Onp8ZcgEq6eJhEllEcNQ2xJItRDhUUIhZS2QAnBaQsrTNsg1OHH+XTa2pnUsyJjUZRmIRAnj39TPstWSFr9nPDUllLNElOK8IbjsYfkn1MIhHNvREKKi0sooEAVSyDcmCj04doZ1GccvlSj2QjEVoTPz9ta8Q9Rg4ZckKpZHH443UVdV6iqBTJFwldFFBIKyCw9SOFYYRONaNqCBLRAQoxe02wEAlWDhz/O2VTO35UmUkDEtghG/GE94kaeVRYx4Xj84Jolj4REwiU8klBIGbZGKC6NedGCEVmCeF5G8EoC/daCh1C9VbealUCcrMh2JC/cUfG6myN7ugUfcksITrimnnNU2aSUXnwi4YuLLQ6ua6621nwq78dTNNJrX9X90K5xV6vkFRP94eLxaCrPN6EYzU4gTpZn29+yFuIswczOdc6LQCnCjhOzvGFCXAJhSdeEq1sSuoGJohAohVwE4/rBhI+bH1cx8MT/7N308sQopPqe+M1SIAXXgBnxaZnJWohP1LnyjIlwuHO2RaQ85UFCacEjCF77OKtmIkUiRijSigfR1Sy+NNY+TX8T1w/15LHea3zunXSx2IrwnyM+LRu+Y3pApqEt6lH55bvmU6FzErV+UNUJrjskxuXm7nyaEkavneJxHfEnheWxjbiyCyvdWluB5x6xu3cAgn9SBpc65YQVR34RtqYfwxnZJ/AW2xUoTM/DPxUUww2JscrGpwQS250aBADt2wQi3eDOVD8ACGV946UF13Be7iV81ZkfC67hA7HLSiM3/j3gq8FdqAc9f32ezFftXpsB2f65MraHP9e/LiJxy9A8IgEeEUKdjcDSRH4h5Kb/zlhyL+BThdfh2KFz+AL7FiO6QNvQ1sj5ndLx/VBMRBfoGxos8MRmf1eS22QAR214W8pevDU9D2dkHMO/So9BOZqsQIwGarDRQEUZDfTdpgG6UQDQhntOFOady5R7idle441PDFzXPUTiGg4kPEV5Sy2WeEm2CLhhDMUp+5nP39nkWJ57AXKFzMk4VhnqO+f/71S76dtBUHQvdP9Td1CT48PR/R6lCZcgRHwHGyzMupe/YV60XQGrsO/6oUlNVozSU8bxg3QTpkb5TUYI2tZeYAtBjECqr4uaBk/6y7rOO9NXRHj3iX98q45gEeHdveQX40vv/8AsTtnPfGi7IueZTkbfDjrNHkU9nngLesbQnrB2scgHg/UyPvPyN8zklH14t1xbmu1s3pAgCJ1zq/8zpv70E/pgqruoDEkSCIjI3OxMzQ4jkBnJNrFEyxOeLQQlRJJ9klkx9hPHgoISdZfeWTCaeuaVh6i3nFVcKeE27GWWvLyOec5b4TY7gSSE02NNEbpEU4TuIUDQotKRlRGIU8+VKEWAQyQCGZtTtJw28cTLKxLCb+bi8eoNnL9uL/P58t3MitwLcNLTszqEtIagxFvQhFdGU8+HBiOhLXoLpn7ueHrNL1iRRfiajUASwukxi0b6f6APptwXgCVksHorRaAeq1oefiSVJBeW7HB88v4PzEcFJVAMDcisu9D098bT/wGAIPY162V87vaFjluVbGv4/NKjXVojQ5IpYLFRTz/G6YnVWBbVOGZ3vXLF6eGOyE9qrnBK9WoR0sBsnaO6Xi/ngfUKPvDxTubzj3cyn3AbXL98/CP+9OBZx5HtL9HJANC5xl0NcahJoxDIwjv9n59p9F8ICAI5u0EkjUNI98O7EjwI92SJgt2rJWZ8pFpYpGSzTzI/LdnpWGT+Fe+UaZGqZBzDP/d+0W5Mm0dvMrRHN+UX40tNSRzQ0AKJDaONXyUErghtWb2MjZjBL1GlCOIYqGO5s+P0SIOjFBEYAOQsRYAwKMEnEnC3I78En9n2G/PTD0fxlvTjTFpBSfWejI0YpxiGveUY+tQd1GtnCvChpiQOaEiBzLjFb9LCOwOSeJ/abKSUEEJVJFJQPrGx05c6NiIkUtI9AJSnH2c2fX+ESbWcZnZaTuNGuWC2EAXFgN/ZyLzR0HbIoUEEsmp04BpTPx25reGasYUEIdQWAVJGFtkWIdT1xdqUfYb5zFaI28f3prqGtkLRnnFW36NLGtZCfMBymvnDdhXnZJ/GR8f9/bkDdOeYP5y19/g4gHieJOuT//73v7Bnz54GSz+iM3SL6IKMrm7WK3AQAI6rkV69CiSkBWqZPrnF1/rW1GiPi1JKERAnHN5SRMqouMR2SXQ3auykNeWTHl9TscXVu+kmKgwwtK4+LTIfYjirG492joGxY1WfrCqZ5OTkeheIsSfqMyYSTUuMpBIN7VFPUofVjeX+xSn7mQ2fpTHvZ/yOc2rcve3dqleBrBoduEHfmrq71gG7PKDdkPbEll2KCLUhhITB7dZ+9UT/7+/9tPz2jJNM7eiw+SBDeOVXg4810+gPEiOp52rOyStcVv7fOnEo9YTzk7KfWfJysuNd21Xv93CRJZBz585Jeoqc/W1Pl/sufrZHH0YTN7fzyJBK9FgJdq/yV7U8bRIxq5bF1un+aZPWlI8zH2aSBe6myRATE6NofFx5adZIatK7Y+kkjwsiCoTESGq285Oyj1mbnJw80fWawWCAYcOGibZP1kChlFHxLq1Qu58mBFn0ranebgN4tRZU/yEOxHFM+ag5Jwy6SR5dJ8Vd7SZ6hN3Dbnf3SavLHzYfZjYQUuFk/fr1jbKKpTSkvLRmGv1eYiT1T1mTT1hhrFdwyq0L7Q8XlFRdcX6nzu9WLKq/MPXTo0GrK8UB1cazb5rrXMyXI+S31h1x+Ee84YkvHLkqAIuwBQOsnuT/tWkwdTPXbWjUsfhh6u+JQyWKA3PnLUNblDgtnnpNrj2qCmRujP+r+tbU/WJullyQcWRGIGRIzBGPFMGRwhHj4bGLHNZ/0YN+34W0hFCJVjQr4vqi8Nkj6S9EeeYSBXi6v/IA/ZqxB/SQY5NqAok10MPn3Rowz92V44nNztxiM7XQk58vbTGlCOZtFHqek0qUagxtUNjqSf5fki3WcLLgAWqJhyPm+PD58XSnkp/SbQ5pBX5SbVJFIF1aIcP3Y4O+B6iehQuumYijRcspBoGnNUioanEuyyOjqiXmPXJWfHE9qfsXPaB7lcPKZo2xBxjj+1B38QqhBrFicSG0Ner/4ij6eal2qSKQn8YHORukLXlLALGZUdFSRH5VS7A9IjKNWfG6N41dkdYeYTF7BE1exkeo9GD74QRB4s3U01LtUlwg78T5z9W3oozEi42hFJFZ1eJOS2KjHQCSJvmL70ZpJiQOpR4TJYYaRIqiqs++akq0oR3qbuyOJG1HrahAYg10+MzIgKrXl8WUAGJLB6mliNgGuzftES7buPy4uBvaoN5JE/1Wct5PMyNxKLrDrTpeA1f7QzA/ENbWqj5+NMploFoEigpkymC/1wXjFFGKSO7R4nHnjEuotJJSdROzESbrOHEw/Y+4npS0zTh9FH1b6CxZBLW4lhKI/Fu4xBXaWtoGqIpNNYnqRHVN6OP3iIdxQiPjHNfIo+s8U1Cqz22FTIbFxhw059ozqq8UIgRlANARKldDodvpg9FI0wDdgwA4UJSNrDTIa03xvBDFEffUYfTzGSeZvwuk6vNE96CEXs91Qd6DEqTqrhrFBPJOfID43hmhTCnR3WJ1/GTOs39pznWknC/GpXxJm486nH+Ww7dlYOpPx5sG0GNMA3RTAEFQXfw8U9L5RMKevkISiYtb4hB6/LzNFXNshXCFz+ZmQKu6Q+kdH0J+sGvcEhWiSBUrobfuZmMn3RQQU+93Q85Idi1XzUft/7tt5Y2eI5NK71pmsX8tJA425qOO9MeTy58d8OENw5zN5TPyr+E8rxvt0vYdD1z0oN9bUmz2RXIvwG8e7Qah6haPHw9n98WvJaGIQJ652W9prWWc9X4W7LaIUEPbxb85154UvvR638mpZc8cucSc8tb+s1fxlRV77Z/0fO9GxLxt5c8ArlnwQEajHaS1SRIH0zOMXVGD7sPX0ORewIWcF0UKxv0ST5sEoECKbV4LJKoTNdjYSXcrryehHh8JdcmFmeXzJqeWTT5fjFVZ52lplv1/4f+50T//Gj4pZAuwHwYyRWIaTM/0wuQmT/YpZqvU3ip3b+yGOrfnlF+ZXVJs81ogM27yJzYypU0S5q9q1TBvR9ljizPLF0uJWQ62Imy974vSYbZC5hxvy51UYsoQyaw4XbNuqNuuQon1CraQrpF1gzzGOHirYS5YTjObpNjmtUAS+vg9UWsMiCgNJPY81FRlHk8tHbdsb8XXXhkrgbx8fGnEirJb3UTC0x7hFAlbYGR/IaZB1AMKmN1kWbLL8TVbBIJ7hwi1TVju2aeYdbarIKmd6pVApgzymwiA2roZBzLbItyZsHzyd6UjU4/Z6/2lI2dJEvu/0sjcS0ymoEj4BhJFlCRTh9GzlLW+afHNXubjq9fhLG9jnQ2fH0/30me+sf9Lql1eCWRcP78JkgIItkU8qzOLfi5fmHrMvkOmiV5TcB3yTUllD+dfw5fEVAUlVbdcvo/4nvQofRvUTjnLmxYFJcC8vslO7tET2z7hubYkzT4/7yI+JtUurwRi7KS7t8oY0khf9R8ZVaqaa7Zi5tzKXyv+7Y2NSmArwn+uyK6o/vG8qG6RZg+4XDcNkjYNwtdYkcmstF7BB8U21MX6O3qR+XlequMDOTbJFkisnr7N3UVcQ1u4DVIXz9J9FdMKbuDrcm1UkhUW+6dV7RFQTSTGrlSCUvY2Ve78oPxB6xXCfvYSerhY4Zg539pfkGuPFwLR3exiBNsot7+iBw9d3M3H7Os+2VexTa59SlNwHezztlVM57SZ7SY4TuJZ5UocTN+hpM1NEdtVsN72fnlk+nHmO8liAHcB5V5g9tyztDwu4wTOlmuPbIGEt6du8jCMp0tUarfv/F1lc+TaphbmHMcWyznHzrp7FSg1eUVCbJd0VNrmpkhBCeTfu7QiYeKqitH5Jc62Hw/kUoX5OM0+75Z3K4Zl/IF/8cYW2QIJaYF68XqQ2+2LASzn7UnnSxrnMptLs+wLKw+Ee99q3TFmzQjg6wbWqMV8kNl0z9KKwSkHHUucmV5MNSvloGNN39fLus39zqHIeJnsyYqxep3nZo6YNeOWfZlzawD3fLJsf8VauXapjTnHsQMALtXMDq6CZ3Ij1N2f2/273nvlGkNVjqZB1Cjzkeo9EzUg7yL+c9Iq+7Nz29jnGLtTiYk3Uffp26L20d0rV4kJyL3IHMq9iK9mn8abzAcdP9oK4aKS6Xszm1d4/hCHAPi4Wor/Sv3d3qgzyHJLRdI0o9+Ltc8BoRnAICASqBNKSEuXcSWNWmyF4DAfYpKdn/pMV1YVK6oT1YnzotRuX1ZV60i+45Acm+qTzFNMOmmwT0x1C0g9XC7ncT3oZt3V29iQJRB9K+o2YV/cmYVvbCTvL6bhlg4XicXKVC1KLSQSgW5gUgNe3wbpVTBZQyZyG+niXqtln4sYNCy4jstl2lRv2IqwAzDYK0/4RMIF5i5Nors278HCxoZ6Kyuyq1oix0YKy3CeajYpyOGLzD6i8MWWJMBRmmAA00D6XjVs1pCO6mvz8kESyZF8RtFeCLUoLIUztTNMgU8kItolrIeGaSDPRqYa9Yq6AhEoRZoyGacdubUnpHcSsITGO7iLJHEQnai8xRpyqKcSRHyvVngHqlX92OQd+ddwjjQRSKpytSjPXvLwuHHjKrcGyMrKUtJ0DQmov8MUe1yAME7gOjYQ0gINBIDvVbfLS/LyXd6Frx3vYQ2Sup4ilgPfeAkAdC7eOzs5uexbqN7TojkQ0hJaFlyDa2rEbeyKulXn9z+khKufEkREVaumJGkTAEH1YpOXZJ5h9gNAUa2Da0nC1XgnzeHiKE2MYVScaSB7xrTvEtIS0MGXAvK2PuWfMnUY/WT439DfFIgz0DSIStw6zf//ds4IOHnyL3xWahzyShAKSR/MY09D4RhlHxRKK7vHl4qYj9q3mvrr6hbLwy4lReUx357swqXJonv8lph/c0SqfiONgBfu0M1p2wIZ4no5P5TJ6Wa9irOT9jrW/3TM8b3lrLiXncI7om4j+1J3mYbQD0Z3rd4stmrn4ZSCa1Ah1S5ZAkn9veL3UXICcuEyDSO8PdVXyajVJPucI8VNIMCePuKy3TOQVlp0cWD7qRo0HJowgBoOALtVvZEGRt8GWs2K13m8s2Foi6Ln36Vzfv7jPM8+w/xgu4qLAEExYKgpDToDQHt9G0RHd6PuAqjeRZhVOpsPO36QY5s3bZByAPCXFIKrFHEhpAXVPaoL3W3veccZL2yrF8xHHZsXVT8pPCZhAqtd4rFUKceKjKzvxDSQftrXBTIzTvdadUbn7emrHETlmgEo0PlhPuLYKMc2WZt45uTkQPDqRzKCr52LlZNozcxV9/O6vysPlb/1YlqZ7H3l6pPvJwWui+tOV+5CSdyG2s0Ne9wr0Q/LfZPjoQeO4X6NvuNCDv3ovHtHB3y3RZRnsVmV5Q+16XrwvT8frXzBb8CAAZI6PWQJxMnpxfd+1c72y+OyAgNLJJ6Z5Ub/z0tCzpc0jtdt+UiIoIcnPRyYVnPOuVd7rTuHSDzO3YRSGP7v0oG2ImxVxOhGQkhLCD39auBR56FXEQlk4Z/tt80f9cpPi+RELbsXK+8yc1JuWA88R6FbzLjZb7Zi8atIaq5jt62Qqa0OCi9SwTH67nHu1tvVZse0AJ/bdOe/D/nNlyQOzPERIOMkltX+AC8F4t2sW66u32pmDA34Z5dWqEnsCms+av+c3WUtuPkn1wJoHj961XekD0bDksb5f6648Q2EaRA1PHEQ/RxnppchhDrqFpqzXoUzGScdB+TaKVsgB/6Un2gt/OMj7ZffHbjC6zTqgf/+UvFJ5ZgIJo/tuMEefRcllKof3DSQfvLpGN2T6t1J/RDbAw1fPcH/W2ViYy1UzZr289Veu6yqVQ2yBXK2mMm3lTA/e5N4JTwiiTXoHpob7T/F6zRUpuA6/GU+ak+pdWBNQBQtFA93T3/v3ef/uWkA3WSH1k2DqLHbpgWkiataIc8PSQwkcOU4yplFO+2feWOvVyPpqScqZHWdkSHP15oy2O+dLq2QQbl01MF81L6Br00hagE9zDEKD+5CSXokYH1TFElcD2r46gnOtpSYjC9y+dEaCP6WZto/8tZmbwWizPvBblUJ9y8ipAXV8cdxQVu6tGrcy3Km5jk224qYM8QSoOaQTyRiShNwF8nMYTppS782IMYwqmvSo/7rvW5fiAxvLcTnlv5il7WaoiteCWTvReZU3mWHMgss8Dx99a2oQemPBu3xXM2xcTHvx/KZbiUA4RizlwFyxS0Mx1PUxd+ie/zX/s/k/2lIUD1MOpVJSEtA8+7UvbJzesCR0Jaoo6RGuUghuX6nNZ95Wypkr6boiteTFRdbypTbQoynZyukBdV388NBmQm9dfcrlp7COEsRi9Wx2iMzA+FYbLULEG/Va+JNuqcynw48ZjRI2QizfgjviPSZMwLzFoyo3GYu2Nv4SEIgLYBhOcNsN//mUKR247VAUk/YM20lTI4SxlTCIxLn8ar7W2x+Jy7gJcXSU5jHzWXzKxc5Ax6RsKpdwo14IPd4VV/XB1M9d0wNzFl0t98byt+RPEwD6bu2/iPggD4Y9eXK2FI/tQiULvO2Vjyj1H0oMt192cEyr3oKyHCLZMZQ/3dznmz524yogDilUuvSGtEJ/XRjV40O/Peq0YHrnZ+vHgpcv/BO/+cT+unixcZzvhhbl2aXv+lhO2/vlNj2Cbi3UVjXZ97q91renMDTCf1p0fYqjTGM6rFjWsDmpEf8t4cEIelLqcqsZtWQ8pv9G4uVkfTOBx+yp5rcfvvtsHt33Ry6nCdandW3osKUMsxtagbbzSV/5F12bJ71Y+mbey8ye+Uk06U1+tucaP9ZU2/2W0BKv2bqSG4Bk5N0uOL5ZXsrfhQTb+7MFqf0wVR3Upz8U0x4pquQwgImzuuynHOsnLet4n2LlZG8J4YcwkNR2LIE/5eNXakZ9ZEeF/d+XjYk8zRz2NVt+PDhkJaWJis+xQSS0Fs3ZtU9QQoN/riAWPYRMpkzQ+VfZ87mXWayMq2O347kM1mFZTg/7yo+XFDC1PqLNdBOAfcc1JHq0asddVNsGH1bRAh1Czs+UnouQtn3wo9lL2aedfDOsI3tSvXfMrFFFrHurYRQPPxjTzcEkHuJOWjOsX9hznFszsvHXu8I7Ep4KOoR14O60zSQvieuB/0QAPgpGb8kMMByi/3VFzZXvM2+1CgE4mTPhJa7w9srXLyLLEkEZ9LyZUZEyFwEv65pLPy5/O7FmeW8PXhzY/1enR/v/yZfnIK2SRYKeJYq1X5shczvFiuzw5zj+M6cI+/9CNMAeoSxKxU9oheVGNGRihRaAkxxOLKr5SyTOmJlmYl0rdEIRL1SpObAC5EICkiaSPKv40txq65HOtscXGaHBKHgjCcDf9MH81Q9VRUKcIoFKte7ZXIsVuao89Cc4yBuE2AaQEc6S93wjlS3iI6U0S3eBqfqRmyFzLm/7lodYysi7wgQGhpamV9lpaCkQKCqLfKrvhVr7xAlYIuEI2PVh0hq0rHYHGkj19zg3fQmIZyOTDIF7hN80oq1UYxQOOMh/NayRCcGbwUkPuHH15WNTPlNnX0sFV+0YczG6wkFNxj+TU/kQBpIJHSj8s6i5RqZdhuc4+ktYQ34GfX07XNv85/JZ3ZqnmP/4+bSuyuXKuXLM3y9NRxdw7zPNmI8AtM4+L4fib1JxOkkkj7i7m3ZLxX/qt6SQhUUF0jeZebMi7tLH1Y63kpqx0g4ZwBXHfKJhH3s4cbzvoar35oR29v8BcceUvMc2x83l05wDcsJW/g8QgG+cRRSnOzuYvYcKJJ/qaKWIyiZ8Zhz7Mlzt1WQ23gKocqyP6kn7BnLDpa9rkbcbhmZ7cZ6wnOHFRIJCIuk7lr7hH66+4TMTs1zJJtz7e+7hfVWKFJLFY6wdddECkZUCSKQtpfx2AqZQ/O2Vai+RKtq62ItyCx7I+8yf1eobPhEAiqJhKc0ETuQ+ML2sjdtRcwJzvQ44ucUCoebKKGAiIzKNcOWK7zs6pi0+GyF+NyIlWX32Yqw5GV8pKLqwnFTt994SpX2CIjJ3NV/SJlFSqbjm4Jeh+d2dAQKrkNx3Jelt2accaQR05NTDeGJg3Oqhtw0KuGami4wRV1qNar24x7/4QvMwdjPbkRy9VgpjaoCOVLAHItfdy3SVsJ47nutBJVfPkebBDwzCzk84djDTWAKugQKruP8+78uvcOcyzGZTkpG5rKHI3NLEgtXfIL3L/ZdD8JHoLFuK2TOPbS6dFTBdciXeAeyUX3p0fMl2LogszTOeX+qJCCyugVKVbmESxNRTE4tHZdxhtnI9aKYbKHIEIusnn4lq1Yi4rUVMmdGfFF6a32KA7wZB0lLS4P8fPG2/i1/b7chuZ/t83qJFy74BhPBy1F3oh9c62Y+Zl/9xMZSyUsghQShwG/GBK426umHq+Lm+C2kjEWIuQ+RcYoab6kHbEXMrhFflD5qK8J/cvmRm4+FkC0QqSQnJ8Nbz4wfYn4oaHtIC0q9DfNJGY2QaYTXrxIzaFc1Sv3CT2XjVh6U/3bl3Fj/+fNj/V8AgPa8QuGySaxfBQcF60s8aw5WrHh6Y/k0IX9q5eN63WHqSAFzKH7dtZttJcxO1RKpbZew3dyPxS3Nw3HdvW1S7I04nCzOLF8YvuzaEFsRc6y2Yco1YCal+iLUUObzLxC/pPc3ZIAxMPO2lz0mRhxqUu9bsJ0vwecHrCoZkXqiYqVqiYgUCYhtl/D4Wbqv7FOvbK3mfDG2jlh9I8JWVP3ymWsvDtejXUo9X0zPklAYie0KuS9GWSvbGzf6L91j/1p8aurQYHsUPrHtxtTFltLnVUtAyR4u0nmV25/L9lf821tTazhfjHHEJ9cHLrWUv+uRthihSHlqk8KIFYIajfNqzEftK0Z8Udpnr61+3mMRokE38VxsKf/wiW3X71a3Gxi8EwlPlWvy5huzzpdgxXtV5u8snzsi6XqUrYj53dMegblKcjIoV+b2JvOL7eVy+czZUjZx8oayaeeL1R8AFEuDCgSqpqVsH77uWp/FltIZBTcUXO+3BkyocpGqGULtEpb/tTnlb6b+bldm2SMCe88z+yI+ud5vYUb58/nX8CXPjIvElyreCkaoaib2Q+avFfsqPjR+er3Tyv32tRItVZ167cUaN26coL+5xoBX5hoDlFspxRWRPVy1pxy9WPN3lz6+7EDFajVMJNGlNUIzo/xenhnlPxcA2vB3Q4v8PdXshRIZt/mofe28n8qfOV+Mi7xN0id6scSw2FL2dv9VxWHLDpb9t3Z1EKWQ0HgHQrXLcsGxe+Q313rXpzigum0yf2f54vBPrvUw59mXcz6VxZQsbn69bzOIipv1sVgdWSNW3Rg22Vw2UQlxqEmjK0Fc6dIKtZsTGTBnyqDKJ6dyi6MJDSqyzvdedGQsO1C+IPW4PUMxG7wgqgvVf2aU/zOmcF3dAgmCg4ISf2cVSpjcfGb3zC1lL+21MRal4/aJgUKpAqkhpAWiYvX0XbF63R2juunu6xpMDVLEKO4q1+Xv/6j4Ydc5x7ZMq+PHvMvMBUXSU5iQFqjN2AG6MQ/00Y2L60rf7XZRacEQ4xAmN5/Zk5pnTzXn2jflFeCj3iXKTbMWCBtnyWLsRI9M6O13X6yejglpQYXLjqzqhy5IPV6+y3LRsX3vRYdl70X3ZWOaAl1aIz9TP914U7guwainE90uih5BVyYv2IqZI+Y8x3dJByu+yCtQdiUVLpq8QLKysuCDD7xeS5hIl1YIGTvRowAgOKoT3V3fiooSCPJn6omKdOdB7KOzf+g6KKbR1YOdDxPnQ0UOIS1Q8CMDdA8Y9fRoU7judgBw33Nc0pQTcfkj44xj85bj9hSLjdmx9zwjeT9yb2nyAtGQhjcCYRPegeoZHkJFmsJ19+hbo2Cjnr4XAFpWXpQxt8tWxKRZbIzVYnN8bytm/kjNc8hatE9JNIE0M3JyciTNlpZDbFe6GwC4rf7oOJnR1vmX6jy4BLVoY3e5dDHzrONY//79oWNH9eaaNjY0gWho8NDoxkE0NBoTmkA0NHjQBKKhwYMmEA0NHjSBaGjwoAlEQ4MHTSAaGjxoAtHQ4EETiIYGD5pANDR40ASiocGDJhANDR40gWho8KAJREODB00gGho8aALR0OBBE4iGBg+aQDQ0eNAEoqHBgyYQDQ0eNIFoaPCgCURDg4f/DwAA///dcvGZzMEghAAAAABJRU5ErkJggg==;" parent="1" vertex="1">
          <mxGeometry x="140" y="2165" width="20" height="20" as="geometry" />
        </mxCell>
        <mxCell id="dOUqNgxCJLWoSc9xT5iU-369" value="" style="group" parent="1" vertex="1" connectable="0">
          <mxGeometry x="180" y="2070" width="45" height="70" as="geometry" />
        </mxCell>
        <mxCell id="dOUqNgxCJLWoSc9xT5iU-370" value="" style="rounded=1;whiteSpace=wrap;html=1;fillColor=#fff2cc;strokeColor=#d6b656;" parent="dOUqNgxCJLWoSc9xT5iU-369" vertex="1">
          <mxGeometry width="40" height="70" as="geometry" />
        </mxCell>
        <mxCell id="dOUqNgxCJLWoSc9xT5iU-371" value="pod" style="text;html=1;align=center;verticalAlign=middle;resizable=0;points=[];autosize=1;strokeColor=none;fillColor=none;" parent="dOUqNgxCJLWoSc9xT5iU-369" vertex="1">
          <mxGeometry y="40" width="40" height="20" as="geometry" />
        </mxCell>
        <mxCell id="dOUqNgxCJLWoSc9xT5iU-409" value="" style="shape=image;html=1;verticalAlign=top;verticalLabelPosition=bottom;labelBackgroundColor=#ffffff;imageAspect=0;aspect=fixed;image=https://cdn4.iconfinder.com/data/icons/essentials-73/24/042_-_Apps-128.png" parent="dOUqNgxCJLWoSc9xT5iU-369" vertex="1">
          <mxGeometry x="12.5" y="10" width="15" height="15" as="geometry" />
        </mxCell>
        <mxCell id="dOUqNgxCJLWoSc9xT5iU-381" style="edgeStyle=orthogonalEdgeStyle;rounded=0;orthogonalLoop=1;jettySize=auto;html=1;entryX=0.5;entryY=0;entryDx=0;entryDy=0;" parent="1" source="dOUqNgxCJLWoSc9xT5iU-382" target="dOUqNgxCJLWoSc9xT5iU-394" edge="1">
          <mxGeometry relative="1" as="geometry" />
        </mxCell>
        <mxCell id="dOUqNgxCJLWoSc9xT5iU-382" value="" style="shape=image;verticalLabelPosition=bottom;labelBackgroundColor=default;verticalAlign=top;aspect=fixed;imageAspect=0;image=data:image/png,iVBORw0KGgoAAAANSUhEUgAAAMgAAADICAYAAACtWK6eAAAv+0lEQVR4nOydCXgT1drH3zOTLhQoW8sFkrIvLatSmxZtiwrijk0RRATxegFRFhW9yqJeV0Cv96oIXgVULOAnVJoKCIgCpa2WhkUWS4sgawJIK9AF6JLM+Z50TSZn1sx0Sef3EDpz5izvJOc/Z51zdBhj0NDQIEM1tAEaGo0ZTSAaGjxoAtHQ4EETiIYGD5pANDR40ASiocGDJhANDR40gWho8KAJREODB00gGho8aALR0OBBE4iGBg+6hjagocnKygKr1apqGvq2EGDsTsUCgvaI6AOXWq/CL5ZT+K8al5iYGAgLC1PVLg1hUHOfzTtu3DhITk72Op42LSBosB5FxfWmoiM6obCQVmjgYD3q0TYIdYMaVSBce1jn5vzP5TdAcCb9d+ZUx279TxXYQ08ftuKf9/yB0/OLcYXXRgJAWlqaEtE0GzSBeCEQfRvoYLqJHpN4EzU6ujt1P7gWD4j0lyQQzB3G5Tj7JJOefQpv+iqTWZ17Af6UZbDTgmb+e0tFE4gMgRi7oZvfuM9vTnwfNJEoCiAJhCAOEBAIuz5WfZ6yn1mVsp9ZkbIf/yLJcE0gkmn2bRApzIynH0wcQs+L7k4Nc6sWAYc4hBAqPQjxIwQw5hbqiTFR1BPWyzjn5WTHgpR9+Dvxd6EhBU0gIjB2Q/0/Geu3PKITdZvozA/8VSbRYXmuGTqgAWun61Kz/2CyXlrneM5yEiwSrNMQgdbNy4NpMHXP1ul+KbtmBeRUisMVJOKpXwv29CJDaIgjTHQvNGz3Al32/jfp3Ym3oDESYtYQQCtBCOjbAFr0oN+axCH0BK5MyYlQO6IWCW0Pvvhd4umvR/Frn6bj0/Nw6pMrHZNsV6BEovUaLLQShIWxKxq4Y0bASac4PC4SMqUY1Cw9SPHFh6OEtAX00cQoFCchJQ0CmkBcWPSAbvrOmQFHDG1Rd16PktoUhJKCKy6h+HhKD7Y/Q3sUtvYZOv3d8dQCIQs1uNEEAgCDOiPDlqf8ds2K1/1PdCAxmZ0TQsaWWpUTojq+2fdQb/8wl/6/kNbQTuEUmgXNXiD6NmDYOMV/f3wv+nb2Ncntj9qAdX8Vq155hMPk+Ajxx4ej8VlvUof07cAgIXUNXxsoHDdunCT/TnFMD934i6EtCiNVmzwEglzGLvi6cKVNLeGuspEEwq5eEW0kp2m7jM+l/jkmNvsPOMv+LtisX79eyEuzwKcEgiQ88p3iODYvcA8g0FcFdo2oJj5PNzeBcD29eQUifeScUyCC6RPtsI1a6IhMz+OfruJL+cIbmmUVa1BnNCRzVsB+p05kRSChR0k2YqpXfOlz26H/92PUtpDWEOq9kb5PsytB9G2gXeasgNzQVuhvVYFqArtGVBOfp1tlCSCqegV1A4Ry5l4pVno4/3lWx6xX8LnhbzBG22W4CAR8KV94Q7MrQZIm+H8R2pJHHArC20CXMjjoFeQeM0MHFLb7X9RXaqXqKzQrgSRN8PtPdFcqgdcTb/VJylOV5FdkeN7BQQnVKwHRGTqgUWtnU5+KM6p50mwEMm+E7qnEQfScyhMRT2vZXbxqIavdw9WLVseYaPTUpDhI9N5A36RZtEHielADtk7z/63OI8dfkND+IIUjtT/Y4aXaILf9wWmDp//8Inwp5hWmj+0vKKpNxYfyhTc0ixJkagz9iuKRcgmFz583fsTGISOu0GDU8b3HqMUKWOFz+LxAjGFU/8RBuvENbYeigpKaJF+vWzVjYtDTxt5gVC5138DnBbLofr/lDZGuqHzO44lYxZM0i5h7IiMXXz9LrZCQQLPAp98HmXenbmJ0V9aLTvVMfjE+kXsRH8s4jvcC4JLcC/hwfgmUO6916wCtunVAQwCBX1xfFBXRGfULDUa9G8pWQwc0eEEimvtOCtaqW9X4bCNdH4wCjr0ceBYQdKy6yDH/iW96h5sb5g7nObWj2HwAVr6zteIzpzik3IOxJ4pKjETjn72LngoIWrunRZh/xR5pJ08vET2txUmvmY7O1r8wcQCxueGzVayZt+lm1oqj/rj08S77P/u+WhEy8cvyOVLF4cRyEu+dm8y80Pvlig5LfnT8EwCuunkQ037xsh0z+z400bsYfAefLUHyXgo8bWiLutVdFFGCINe42O78JUj6cea7KWsq/mG7Cn8pdT9OIjpDz43P65IN7dFQzi5eMdNLRHQr17DnOP5h+GuOe5S8j6aKT5YgD0RQdxvauIpDWngpg4T5JfjSO1vtU+5dWpGgtDic5F6Ak31eske+vdExJb8YX/IqMpFdzjF90d1epeND+GQJkjTeb0XiIN0U9sBdnUcJg4TAXYJYr+ITd35YfoftKqi7uG81+nZgyHqN/jk0GHV1s82zDSRqgBDYflyOA8bbG9tcggbBJ0uQuB70HZwXpf7sHP7zS/DJOz8sN9aXOJzYroD1sU+Z0QBVvWAa6uNzAjGGUX1CWqJeaqczaVXF321X4Yra6bDJOIYPPfY/h+eKKxqq4HMCGdGHGqt2Gs99WzEu4wROVzsdLlL24Q3PrnGY1Io/vwifVivupobPCWRypO4+RSNkNdGWpNnfXPEz4/1+CV6yfBdO/Wi74zU14k4/ChvViLcp4nON9OK3W2AgzoT1vpFuLcRn+r1Zzr9mVj1z9kPaGtoGub9Xz9XNK7KRHv+qw5hdOfKv4VMliGkAPUrN+D/ebf+XmvHLYcM+/KHkQDzPxD2/458tJ0ATRzU+JZDwjhzzmCQWkqRC9cxlfHLpbqbRvaL6+gZmBW+bAXMcE/zkF+FLTy9ntA4AF3xKIBEdKffF36TWHnn8b8tlvpRnlboU3oDCYa874gDAVuuIpd86AJQ/+yW+I9cmvGZWc8KnBKIPRgFKisIV8yFmlxyb6oPK8ZFPHLdZ/8LnOD3x32fRhI+Yh1Ky8VEVzGvS+FQjveTtoHwACKlspBJGl2sR+7qri1vLF0ob/ciyvh0Y1s6gv4ruje6UMJp+acISxyMp2eC2u6cv5Qtv8KkSpFIcKpB9mtmmRrxK4yxJbn/bMeLtVGa6M+MLeL/20Vbm/V6zHEPY4tCow6dfmFKKgzbmYH2nOXbsWOjfv7/c4J8tPgmfxYcjY4Qe+ocGV0/crCo1Kg6fwZkb9+N06AUwZZZyNvsimkBEkPEHc6C+03QKxPnxEkv1x42hgwGGPuht1M0DX6tiaWgoSjMSiBdtbK292mxpRgJxgS/DV1/TOnE0oFkIRExGF/Bj7Ea3V8ocjaaFrwnkcuX/WGQJILKUMLSFEd6ZpdFU8SmBWM4ymZwXvagyGbtRg+WH1mjK+JRAbEX4uhrxGtqifoO6uCwCodFs8CmBWM4KjXiL7MkilDYx3al75Vml0ZSpN4EkJydXvtCk5sdWhBVddse1HZM4hL5Lybg1mgY+NZJuznFsdj13ZvDKSYeYUHjUuJGuEYjvRSXq20AnWyF5Tz+lycrKqo9kakk0ov4AMKDyhPx9FGUfx7vD+saUhoWF1attDUm9zeZ1liBS9zGXg2VWQFZERyrGY1auArN6Uw471k1Kqmj4rRRkENIaWkbo0S3x4TCoewj07BaCbo4wQOvQYBRZ6YFrjV8gul0/dBrvK7wB59KP4uNHrXDgxEV8+PAZOFMPt0JErXzsUyWIkx3HmU2VAuEsGZC4Li1C+MTB9CPZ8cy3S9Md3yplr5oYe8HgMVHUAyMHIlN/A7ql0rH6/XriV+N6z3ylLkDQkO4o3nkQH1HzJAGwXsYnsk/ADxt+weaUbLxDtRurR3yuBDEaqCE7ngqomn1LfC8ExK2SDpzvhtj6vllqtBXCeXXuwDv07SDoiThq9hPx6O+G9qgvuXRkCUTM+r1suK7VuRd8up1Z9u/v8DLbZciXeh9SUSsf+1QvlhOLlTmUfw3/WXPO+72xr4n7jvWrH/dvdDvDGnuCcc10asWJ93XXXnmIWmRoh/pWXqi5J7d7Q+RbZfuV8t25ulddC5k+ivrXH8voS2lvUKui+0CUpBtqJPicQJxknHJ4vgAk5kcXSXR36sH5o3T/9D4m70m8BQ09/m5A1u75uuwxUdQUt4tcDwDMukxa2MH1r8BiD5zXqj8xfdDk3W/SlrXPonX69mAQdWONBJ8UyA/HmKqFzxQqdTEhAy24W/f6/FH0I8qkIJ3ESJS4/w3dhrXTdfsNHZgYV9vcYGfw2oyP3IPwiYQrbnAXAi8YYEw0Ne6PpfS5tc9S6xOj0Z0CIRoFPtcGcRISBLpT81oUA0CgYDsEBHpwON5Rr/qLIeWgY8WkJPs0Ne6DhCkSDXlvLJ1kaI8Ge7YVCG0rEOqtw+5OxPvkiI8PEX427GHWvbQGP2m7DF7PgNDaIBIouA72pT/bP6k5x2Lq1jL3x0y8iZ6681k/c0hL6CDTXFEYe6CBu16iP1s7TXdQ3w5JmxvGd/8Ykf2y/YspTdjxCJQsY2KoR3a/QeUlRiNll4tVEJ8UiBPzb44llQdqVLNqHasyV3R3KmHfXP/dxu4oXJnU6jANRXG7XqLT017WHYnuSbmXVB4ZHrHOCX5J5xi552XMIQ62SMR+t5j7Y2iPwr6eTX2/djb1eUhr8BcZY73hk1WsGpIe8f/ANJB+Tu1qlut57p940/JMe0r6Cbw172Jdb5pYIjpDr7g+1LD4vig2ri8aGdoa9RLsfhZb1SL55atueVznOOZzk8Ch0/jXF9cwUzJyQfIaAGrlY58WiD4YBeT9M/AUIOjskblJAiH9BaFFraszFiFc7kUm86c85tvs09hqu4p3Wk5jt/1EIjqhthGd0Uh9W2gR3RPdb+yBBhvaoQg+G9jHiFPYAiLhjZswkChFKHzuIvhoC/Piy2vxf6SE0QQik5nDdM8uus/vQ68WkwNppQhvQ5edAflKNCn2SClFQAGREMPwIHSdlQ33HMcbH/uYecp2WdzcN62RLpOlWfaP8q9xLe5M+NXkjJdIeXtR6pgCV7iasQzOBjhPe4SUpkf7Ank2M0iNdXZbRUx3MOnDIqYPGr37X5QlPhy68tyB6vi8QJy88kPF8yDUmyWiHx84xkQ8hCYYLyKPP7jGI6GhLUskpAzqIQBUa6sooSj8MbRDYeufow7EhcNwwh3UC81CIF//6ki1nGVSVE1E6Onp8ZcgEq6eJhEllEcNQ2xJItRDhUUIhZS2QAnBaQsrTNsg1OHH+XTa2pnUsyJjUZRmIRAnj39TPstWSFr9nPDUllLNElOK8IbjsYfkn1MIhHNvREKKi0sooEAVSyDcmCj04doZ1GccvlSj2QjEVoTPz9ta8Q9Rg4ZckKpZHH443UVdV6iqBTJFwldFFBIKyCw9SOFYYRONaNqCBLRAQoxe02wEAlWDhz/O2VTO35UmUkDEtghG/GE94kaeVRYx4Xj84Jolj4REwiU8klBIGbZGKC6NedGCEVmCeF5G8EoC/daCh1C9VbealUCcrMh2JC/cUfG6myN7ugUfcksITrimnnNU2aSUXnwi4YuLLQ6ua6621nwq78dTNNJrX9X90K5xV6vkFRP94eLxaCrPN6EYzU4gTpZn29+yFuIswczOdc6LQCnCjhOzvGFCXAJhSdeEq1sSuoGJohAohVwE4/rBhI+bH1cx8MT/7N308sQopPqe+M1SIAXXgBnxaZnJWohP1LnyjIlwuHO2RaQ85UFCacEjCF77OKtmIkUiRijSigfR1Sy+NNY+TX8T1w/15LHea3zunXSx2IrwnyM+LRu+Y3pApqEt6lH55bvmU6FzErV+UNUJrjskxuXm7nyaEkavneJxHfEnheWxjbiyCyvdWluB5x6xu3cAgn9SBpc65YQVR34RtqYfwxnZJ/AW2xUoTM/DPxUUww2JscrGpwQS250aBADt2wQi3eDOVD8ACGV946UF13Be7iV81ZkfC67hA7HLSiM3/j3gq8FdqAc9f32ezFftXpsB2f65MraHP9e/LiJxy9A8IgEeEUKdjcDSRH4h5Kb/zlhyL+BThdfh2KFz+AL7FiO6QNvQ1sj5ndLx/VBMRBfoGxos8MRmf1eS22QAR214W8pevDU9D2dkHMO/So9BOZqsQIwGarDRQEUZDfTdpgG6UQDQhntOFOady5R7idle441PDFzXPUTiGg4kPEV5Sy2WeEm2CLhhDMUp+5nP39nkWJ57AXKFzMk4VhnqO+f/71S76dtBUHQvdP9Td1CT48PR/R6lCZcgRHwHGyzMupe/YV60XQGrsO/6oUlNVozSU8bxg3QTpkb5TUYI2tZeYAtBjECqr4uaBk/6y7rOO9NXRHj3iX98q45gEeHdveQX40vv/8AsTtnPfGi7IueZTkbfDjrNHkU9nngLesbQnrB2scgHg/UyPvPyN8zklH14t1xbmu1s3pAgCJ1zq/8zpv70E/pgqruoDEkSCIjI3OxMzQ4jkBnJNrFEyxOeLQQlRJJ9klkx9hPHgoISdZfeWTCaeuaVh6i3nFVcKeE27GWWvLyOec5b4TY7gSSE02NNEbpEU4TuIUDQotKRlRGIU8+VKEWAQyQCGZtTtJw28cTLKxLCb+bi8eoNnL9uL/P58t3MitwLcNLTszqEtIagxFvQhFdGU8+HBiOhLXoLpn7ueHrNL1iRRfiajUASwukxi0b6f6APptwXgCVksHorRaAeq1oefiSVJBeW7HB88v4PzEcFJVAMDcisu9D098bT/wGAIPY162V87vaFjluVbGv4/NKjXVojQ5IpYLFRTz/G6YnVWBbVOGZ3vXLF6eGOyE9qrnBK9WoR0sBsnaO6Xi/ngfUKPvDxTubzj3cyn3AbXL98/CP+9OBZx5HtL9HJANC5xl0NcahJoxDIwjv9n59p9F8ICAI5u0EkjUNI98O7EjwI92SJgt2rJWZ8pFpYpGSzTzI/LdnpWGT+Fe+UaZGqZBzDP/d+0W5Mm0dvMrRHN+UX40tNSRzQ0AKJDaONXyUErghtWb2MjZjBL1GlCOIYqGO5s+P0SIOjFBEYAOQsRYAwKMEnEnC3I78En9n2G/PTD0fxlvTjTFpBSfWejI0YpxiGveUY+tQd1GtnCvChpiQOaEiBzLjFb9LCOwOSeJ/abKSUEEJVJFJQPrGx05c6NiIkUtI9AJSnH2c2fX+ESbWcZnZaTuNGuWC2EAXFgN/ZyLzR0HbIoUEEsmp04BpTPx25reGasYUEIdQWAVJGFtkWIdT1xdqUfYb5zFaI28f3prqGtkLRnnFW36NLGtZCfMBymvnDdhXnZJ/GR8f9/bkDdOeYP5y19/g4gHieJOuT//73v7Bnz54GSz+iM3SL6IKMrm7WK3AQAI6rkV69CiSkBWqZPrnF1/rW1GiPi1JKERAnHN5SRMqouMR2SXQ3auykNeWTHl9TscXVu+kmKgwwtK4+LTIfYjirG492joGxY1WfrCqZ5OTkeheIsSfqMyYSTUuMpBIN7VFPUofVjeX+xSn7mQ2fpTHvZ/yOc2rcve3dqleBrBoduEHfmrq71gG7PKDdkPbEll2KCLUhhITB7dZ+9UT/7+/9tPz2jJNM7eiw+SBDeOVXg4810+gPEiOp52rOyStcVv7fOnEo9YTzk7KfWfJysuNd21Xv93CRJZBz585Jeoqc/W1Pl/sufrZHH0YTN7fzyJBK9FgJdq/yV7U8bRIxq5bF1un+aZPWlI8zH2aSBe6myRATE6NofFx5adZIatK7Y+kkjwsiCoTESGq285Oyj1mbnJw80fWawWCAYcOGibZP1kChlFHxLq1Qu58mBFn0ranebgN4tRZU/yEOxHFM+ag5Jwy6SR5dJ8Vd7SZ6hN3Dbnf3SavLHzYfZjYQUuFk/fr1jbKKpTSkvLRmGv1eYiT1T1mTT1hhrFdwyq0L7Q8XlFRdcX6nzu9WLKq/MPXTo0GrK8UB1cazb5rrXMyXI+S31h1x+Ee84YkvHLkqAIuwBQOsnuT/tWkwdTPXbWjUsfhh6u+JQyWKA3PnLUNblDgtnnpNrj2qCmRujP+r+tbU/WJullyQcWRGIGRIzBGPFMGRwhHj4bGLHNZ/0YN+34W0hFCJVjQr4vqi8Nkj6S9EeeYSBXi6v/IA/ZqxB/SQY5NqAok10MPn3Rowz92V44nNztxiM7XQk58vbTGlCOZtFHqek0qUagxtUNjqSf5fki3WcLLgAWqJhyPm+PD58XSnkp/SbQ5pBX5SbVJFIF1aIcP3Y4O+B6iehQuumYijRcspBoGnNUioanEuyyOjqiXmPXJWfHE9qfsXPaB7lcPKZo2xBxjj+1B38QqhBrFicSG0Ner/4ij6eal2qSKQn8YHORukLXlLALGZUdFSRH5VS7A9IjKNWfG6N41dkdYeYTF7BE1exkeo9GD74QRB4s3U01LtUlwg78T5z9W3oozEi42hFJFZ1eJOS2KjHQCSJvmL70ZpJiQOpR4TJYYaRIqiqs++akq0oR3qbuyOJG1HrahAYg10+MzIgKrXl8WUAGJLB6mliNgGuzftES7buPy4uBvaoN5JE/1Wct5PMyNxKLrDrTpeA1f7QzA/ENbWqj5+NMploFoEigpkymC/1wXjFFGKSO7R4nHnjEuotJJSdROzESbrOHEw/Y+4npS0zTh9FH1b6CxZBLW4lhKI/Fu4xBXaWtoGqIpNNYnqRHVN6OP3iIdxQiPjHNfIo+s8U1Cqz22FTIbFxhw059ozqq8UIgRlANARKldDodvpg9FI0wDdgwA4UJSNrDTIa03xvBDFEffUYfTzGSeZvwuk6vNE96CEXs91Qd6DEqTqrhrFBPJOfID43hmhTCnR3WJ1/GTOs39pznWknC/GpXxJm486nH+Ww7dlYOpPx5sG0GNMA3RTAEFQXfw8U9L5RMKevkISiYtb4hB6/LzNFXNshXCFz+ZmQKu6Q+kdH0J+sGvcEhWiSBUrobfuZmMn3RQQU+93Q85Idi1XzUft/7tt5Y2eI5NK71pmsX8tJA425qOO9MeTy58d8OENw5zN5TPyr+E8rxvt0vYdD1z0oN9bUmz2RXIvwG8e7Qah6haPHw9n98WvJaGIQJ652W9prWWc9X4W7LaIUEPbxb85154UvvR638mpZc8cucSc8tb+s1fxlRV77Z/0fO9GxLxt5c8ArlnwQEajHaS1SRIH0zOMXVGD7sPX0ORewIWcF0UKxv0ST5sEoECKbV4LJKoTNdjYSXcrryehHh8JdcmFmeXzJqeWTT5fjFVZ52lplv1/4f+50T//Gj4pZAuwHwYyRWIaTM/0wuQmT/YpZqvU3ip3b+yGOrfnlF+ZXVJs81ogM27yJzYypU0S5q9q1TBvR9ljizPLF0uJWQ62Imy974vSYbZC5hxvy51UYsoQyaw4XbNuqNuuQon1CraQrpF1gzzGOHirYS5YTjObpNjmtUAS+vg9UWsMiCgNJPY81FRlHk8tHbdsb8XXXhkrgbx8fGnEirJb3UTC0x7hFAlbYGR/IaZB1AMKmN1kWbLL8TVbBIJ7hwi1TVju2aeYdbarIKmd6pVApgzymwiA2roZBzLbItyZsHzyd6UjU4/Z6/2lI2dJEvu/0sjcS0ymoEj4BhJFlCRTh9GzlLW+afHNXubjq9fhLG9jnQ2fH0/30me+sf9Lql1eCWRcP78JkgIItkU8qzOLfi5fmHrMvkOmiV5TcB3yTUllD+dfw5fEVAUlVbdcvo/4nvQofRvUTjnLmxYFJcC8vslO7tET2z7hubYkzT4/7yI+JtUurwRi7KS7t8oY0khf9R8ZVaqaa7Zi5tzKXyv+7Y2NSmArwn+uyK6o/vG8qG6RZg+4XDcNkjYNwtdYkcmstF7BB8U21MX6O3qR+XlequMDOTbJFkisnr7N3UVcQ1u4DVIXz9J9FdMKbuDrcm1UkhUW+6dV7RFQTSTGrlSCUvY2Ve78oPxB6xXCfvYSerhY4Zg539pfkGuPFwLR3exiBNsot7+iBw9d3M3H7Os+2VexTa59SlNwHezztlVM57SZ7SY4TuJZ5UocTN+hpM1NEdtVsN72fnlk+nHmO8liAHcB5V5g9tyztDwu4wTOlmuPbIGEt6du8jCMp0tUarfv/F1lc+TaphbmHMcWyznHzrp7FSg1eUVCbJd0VNrmpkhBCeTfu7QiYeKqitH5Jc62Hw/kUoX5OM0+75Z3K4Zl/IF/8cYW2QIJaYF68XqQ2+2LASzn7UnnSxrnMptLs+wLKw+Ee99q3TFmzQjg6wbWqMV8kNl0z9KKwSkHHUucmV5MNSvloGNN39fLus39zqHIeJnsyYqxep3nZo6YNeOWfZlzawD3fLJsf8VauXapjTnHsQMALtXMDq6CZ3Ij1N2f2/273nvlGkNVjqZB1Cjzkeo9EzUg7yL+c9Iq+7Nz29jnGLtTiYk3Uffp26L20d0rV4kJyL3IHMq9iK9mn8abzAcdP9oK4aKS6Xszm1d4/hCHAPi4Wor/Sv3d3qgzyHJLRdI0o9+Ltc8BoRnAICASqBNKSEuXcSWNWmyF4DAfYpKdn/pMV1YVK6oT1YnzotRuX1ZV60i+45Acm+qTzFNMOmmwT0x1C0g9XC7ncT3oZt3V29iQJRB9K+o2YV/cmYVvbCTvL6bhlg4XicXKVC1KLSQSgW5gUgNe3wbpVTBZQyZyG+niXqtln4sYNCy4jstl2lRv2IqwAzDYK0/4RMIF5i5Nors278HCxoZ6Kyuyq1oix0YKy3CeajYpyOGLzD6i8MWWJMBRmmAA00D6XjVs1pCO6mvz8kESyZF8RtFeCLUoLIUztTNMgU8kItolrIeGaSDPRqYa9Yq6AhEoRZoyGacdubUnpHcSsITGO7iLJHEQnai8xRpyqKcSRHyvVngHqlX92OQd+ddwjjQRSKpytSjPXvLwuHHjKrcGyMrKUtJ0DQmov8MUe1yAME7gOjYQ0gINBIDvVbfLS/LyXd6Frx3vYQ2Sup4ilgPfeAkAdC7eOzs5uexbqN7TojkQ0hJaFlyDa2rEbeyKulXn9z+khKufEkREVaumJGkTAEH1YpOXZJ5h9gNAUa2Da0nC1XgnzeHiKE2MYVScaSB7xrTvEtIS0MGXAvK2PuWfMnUY/WT439DfFIgz0DSIStw6zf//ds4IOHnyL3xWahzyShAKSR/MY09D4RhlHxRKK7vHl4qYj9q3mvrr6hbLwy4lReUx357swqXJonv8lph/c0SqfiONgBfu0M1p2wIZ4no5P5TJ6Wa9irOT9jrW/3TM8b3lrLiXncI7om4j+1J3mYbQD0Z3rd4stmrn4ZSCa1Ah1S5ZAkn9veL3UXICcuEyDSO8PdVXyajVJPucI8VNIMCePuKy3TOQVlp0cWD7qRo0HJowgBoOALtVvZEGRt8GWs2K13m8s2Foi6Ln36Vzfv7jPM8+w/xgu4qLAEExYKgpDToDQHt9G0RHd6PuAqjeRZhVOpsPO36QY5s3bZByAPCXFIKrFHEhpAXVPaoL3W3veccZL2yrF8xHHZsXVT8pPCZhAqtd4rFUKceKjKzvxDSQftrXBTIzTvdadUbn7emrHETlmgEo0PlhPuLYKMc2WZt45uTkQPDqRzKCr52LlZNozcxV9/O6vysPlb/1YlqZ7H3l6pPvJwWui+tOV+5CSdyG2s0Ne9wr0Q/LfZPjoQeO4X6NvuNCDv3ovHtHB3y3RZRnsVmV5Q+16XrwvT8frXzBb8CAAZI6PWQJxMnpxfd+1c72y+OyAgNLJJ6Z5Ub/z0tCzpc0jtdt+UiIoIcnPRyYVnPOuVd7rTuHSDzO3YRSGP7v0oG2ImxVxOhGQkhLCD39auBR56FXEQlk4Z/tt80f9cpPi+RELbsXK+8yc1JuWA88R6FbzLjZb7Zi8atIaq5jt62Qqa0OCi9SwTH67nHu1tvVZse0AJ/bdOe/D/nNlyQOzPERIOMkltX+AC8F4t2sW66u32pmDA34Z5dWqEnsCms+av+c3WUtuPkn1wJoHj961XekD0bDksb5f6648Q2EaRA1PHEQ/RxnppchhDrqFpqzXoUzGScdB+TaKVsgB/6Un2gt/OMj7ZffHbjC6zTqgf/+UvFJ5ZgIJo/tuMEefRcllKof3DSQfvLpGN2T6t1J/RDbAw1fPcH/W2ViYy1UzZr289Veu6yqVQ2yBXK2mMm3lTA/e5N4JTwiiTXoHpob7T/F6zRUpuA6/GU+ak+pdWBNQBQtFA93T3/v3ef/uWkA3WSH1k2DqLHbpgWkiataIc8PSQwkcOU4yplFO+2feWOvVyPpqScqZHWdkSHP15oy2O+dLq2QQbl01MF81L6Br00hagE9zDEKD+5CSXokYH1TFElcD2r46gnOtpSYjC9y+dEaCP6WZto/8tZmbwWizPvBblUJ9y8ipAXV8cdxQVu6tGrcy3Km5jk224qYM8QSoOaQTyRiShNwF8nMYTppS782IMYwqmvSo/7rvW5fiAxvLcTnlv5il7WaoiteCWTvReZU3mWHMgss8Dx99a2oQemPBu3xXM2xcTHvx/KZbiUA4RizlwFyxS0Mx1PUxd+ie/zX/s/k/2lIUD1MOpVJSEtA8+7UvbJzesCR0Jaoo6RGuUghuX6nNZ95Wypkr6boiteTFRdbypTbQoynZyukBdV388NBmQm9dfcrlp7COEsRi9Wx2iMzA+FYbLULEG/Va+JNuqcynw48ZjRI2QizfgjviPSZMwLzFoyo3GYu2Nv4SEIgLYBhOcNsN//mUKR247VAUk/YM20lTI4SxlTCIxLn8ar7W2x+Jy7gJcXSU5jHzWXzKxc5Ax6RsKpdwo14IPd4VV/XB1M9d0wNzFl0t98byt+RPEwD6bu2/iPggD4Y9eXK2FI/tQiULvO2Vjyj1H0oMt192cEyr3oKyHCLZMZQ/3dznmz524yogDilUuvSGtEJ/XRjV40O/Peq0YHrnZ+vHgpcv/BO/+cT+unixcZzvhhbl2aXv+lhO2/vlNj2Cbi3UVjXZ97q91renMDTCf1p0fYqjTGM6rFjWsDmpEf8t4cEIelLqcqsZtWQ8pv9G4uVkfTOBx+yp5rcfvvtsHt33Ry6nCdandW3osKUMsxtagbbzSV/5F12bJ71Y+mbey8ye+Uk06U1+tucaP9ZU2/2W0BKv2bqSG4Bk5N0uOL5ZXsrfhQTb+7MFqf0wVR3Upz8U0x4pquQwgImzuuynHOsnLet4n2LlZG8J4YcwkNR2LIE/5eNXakZ9ZEeF/d+XjYk8zRz2NVt+PDhkJaWJis+xQSS0Fs3ZtU9QQoN/riAWPYRMpkzQ+VfZ87mXWayMq2O347kM1mFZTg/7yo+XFDC1PqLNdBOAfcc1JHq0asddVNsGH1bRAh1Czs+UnouQtn3wo9lL2aedfDOsI3tSvXfMrFFFrHurYRQPPxjTzcEkHuJOWjOsX9hznFszsvHXu8I7Ep4KOoR14O60zSQvieuB/0QAPgpGb8kMMByi/3VFzZXvM2+1CgE4mTPhJa7w9srXLyLLEkEZ9LyZUZEyFwEv65pLPy5/O7FmeW8PXhzY/1enR/v/yZfnIK2SRYKeJYq1X5shczvFiuzw5zj+M6cI+/9CNMAeoSxKxU9oheVGNGRihRaAkxxOLKr5SyTOmJlmYl0rdEIRL1SpObAC5EICkiaSPKv40txq65HOtscXGaHBKHgjCcDf9MH81Q9VRUKcIoFKte7ZXIsVuao89Cc4yBuE2AaQEc6S93wjlS3iI6U0S3eBqfqRmyFzLm/7lodYysi7wgQGhpamV9lpaCkQKCqLfKrvhVr7xAlYIuEI2PVh0hq0rHYHGkj19zg3fQmIZyOTDIF7hN80oq1UYxQOOMh/NayRCcGbwUkPuHH15WNTPlNnX0sFV+0YczG6wkFNxj+TU/kQBpIJHSj8s6i5RqZdhuc4+ktYQ34GfX07XNv85/JZ3ZqnmP/4+bSuyuXKuXLM3y9NRxdw7zPNmI8AtM4+L4fib1JxOkkkj7i7m3ZLxX/qt6SQhUUF0jeZebMi7tLH1Y63kpqx0g4ZwBXHfKJhH3s4cbzvoar35oR29v8BcceUvMc2x83l05wDcsJW/g8QgG+cRRSnOzuYvYcKJJ/qaKWIyiZ8Zhz7Mlzt1WQ23gKocqyP6kn7BnLDpa9rkbcbhmZ7cZ6wnOHFRIJCIuk7lr7hH66+4TMTs1zJJtz7e+7hfVWKFJLFY6wdddECkZUCSKQtpfx2AqZQ/O2Vai+RKtq62ItyCx7I+8yf1eobPhEAiqJhKc0ETuQ+ML2sjdtRcwJzvQ44ucUCoebKKGAiIzKNcOWK7zs6pi0+GyF+NyIlWX32Yqw5GV8pKLqwnFTt994SpX2CIjJ3NV/SJlFSqbjm4Jeh+d2dAQKrkNx3Jelt2accaQR05NTDeGJg3Oqhtw0KuGami4wRV1qNar24x7/4QvMwdjPbkRy9VgpjaoCOVLAHItfdy3SVsJ47nutBJVfPkebBDwzCzk84djDTWAKugQKruP8+78uvcOcyzGZTkpG5rKHI3NLEgtXfIL3L/ZdD8JHoLFuK2TOPbS6dFTBdciXeAeyUX3p0fMl2LogszTOeX+qJCCyugVKVbmESxNRTE4tHZdxhtnI9aKYbKHIEIusnn4lq1Yi4rUVMmdGfFF6a32KA7wZB0lLS4P8fPG2/i1/b7chuZ/t83qJFy74BhPBy1F3oh9c62Y+Zl/9xMZSyUsghQShwG/GBK426umHq+Lm+C2kjEWIuQ+RcYoab6kHbEXMrhFflD5qK8J/cvmRm4+FkC0QqSQnJ8Nbz4wfYn4oaHtIC0q9DfNJGY2QaYTXrxIzaFc1Sv3CT2XjVh6U/3bl3Fj/+fNj/V8AgPa8QuGySaxfBQcF60s8aw5WrHh6Y/k0IX9q5eN63WHqSAFzKH7dtZttJcxO1RKpbZew3dyPxS3Nw3HdvW1S7I04nCzOLF8YvuzaEFsRc6y2Yco1YCal+iLUUObzLxC/pPc3ZIAxMPO2lz0mRhxqUu9bsJ0vwecHrCoZkXqiYqVqiYgUCYhtl/D4Wbqv7FOvbK3mfDG2jlh9I8JWVP3ymWsvDtejXUo9X0zPklAYie0KuS9GWSvbGzf6L91j/1p8aurQYHsUPrHtxtTFltLnVUtAyR4u0nmV25/L9lf821tTazhfjHHEJ9cHLrWUv+uRthihSHlqk8KIFYIajfNqzEftK0Z8Udpnr61+3mMRokE38VxsKf/wiW3X71a3Gxi8EwlPlWvy5huzzpdgxXtV5u8snzsi6XqUrYj53dMegblKcjIoV+b2JvOL7eVy+czZUjZx8oayaeeL1R8AFEuDCgSqpqVsH77uWp/FltIZBTcUXO+3BkyocpGqGULtEpb/tTnlb6b+bldm2SMCe88z+yI+ud5vYUb58/nX8CXPjIvElyreCkaoaib2Q+avFfsqPjR+er3Tyv32tRItVZ167cUaN26coL+5xoBX5hoDlFspxRWRPVy1pxy9WPN3lz6+7EDFajVMJNGlNUIzo/xenhnlPxcA2vB3Q4v8PdXshRIZt/mofe28n8qfOV+Mi7xN0id6scSw2FL2dv9VxWHLDpb9t3Z1EKWQ0HgHQrXLcsGxe+Q313rXpzigum0yf2f54vBPrvUw59mXcz6VxZQsbn69bzOIipv1sVgdWSNW3Rg22Vw2UQlxqEmjK0Fc6dIKtZsTGTBnyqDKJ6dyi6MJDSqyzvdedGQsO1C+IPW4PUMxG7wgqgvVf2aU/zOmcF3dAgmCg4ISf2cVSpjcfGb3zC1lL+21MRal4/aJgUKpAqkhpAWiYvX0XbF63R2juunu6xpMDVLEKO4q1+Xv/6j4Ydc5x7ZMq+PHvMvMBUXSU5iQFqjN2AG6MQ/00Y2L60rf7XZRacEQ4xAmN5/Zk5pnTzXn2jflFeCj3iXKTbMWCBtnyWLsRI9M6O13X6yejglpQYXLjqzqhy5IPV6+y3LRsX3vRYdl70X3ZWOaAl1aIz9TP914U7guwainE90uih5BVyYv2IqZI+Y8x3dJByu+yCtQdiUVLpq8QLKysuCDD7xeS5hIl1YIGTvRowAgOKoT3V3fiooSCPJn6omKdOdB7KOzf+g6KKbR1YOdDxPnQ0UOIS1Q8CMDdA8Y9fRoU7judgBw33Nc0pQTcfkj44xj85bj9hSLjdmx9zwjeT9yb2nyAtGQhjcCYRPegeoZHkJFmsJ19+hbo2Cjnr4XAFpWXpQxt8tWxKRZbIzVYnN8bytm/kjNc8hatE9JNIE0M3JyciTNlpZDbFe6GwC4rf7oOJnR1vmX6jy4BLVoY3e5dDHzrONY//79oWNH9eaaNjY0gWho8NDoxkE0NBoTmkA0NHjQBKKhwYMmEA0NHjSBaGjwoAlEQ4MHTSAaGjxoAtHQ4EETiIYGD5pANDR40ASiocGDJhANDR40gWho8KAJREODB00gGho8aALR0OBBE4iGBg+aQDQ0eNAEoqHBgyYQDQ0eNIFoaPCgCURDg4f/DwAA///dcvGZzMEghAAAAABJRU5ErkJggg==;" parent="1" vertex="1">
          <mxGeometry x="190" y="2165" width="20" height="20" as="geometry" />
        </mxCell>
        <mxCell id="dOUqNgxCJLWoSc9xT5iU-387" value="csi-pfs" style="text;html=1;align=center;verticalAlign=middle;resizable=0;points=[];autosize=1;strokeColor=none;fillColor=none;" parent="1" vertex="1">
          <mxGeometry x="149.99999999999994" y="2180" width="50" height="20" as="geometry" />
        </mxCell>
        <mxCell id="dOUqNgxCJLWoSc9xT5iU-388" style="edgeStyle=orthogonalEdgeStyle;rounded=0;orthogonalLoop=1;jettySize=auto;html=1;" parent="1" source="dOUqNgxCJLWoSc9xT5iU-364" target="dOUqNgxCJLWoSc9xT5iU-368" edge="1">
          <mxGeometry relative="1" as="geometry" />
        </mxCell>
        <mxCell id="dOUqNgxCJLWoSc9xT5iU-389" value="" style="edgeStyle=orthogonalEdgeStyle;rounded=0;orthogonalLoop=1;jettySize=auto;html=1;" parent="1" source="dOUqNgxCJLWoSc9xT5iU-370" target="dOUqNgxCJLWoSc9xT5iU-382" edge="1">
          <mxGeometry relative="1" as="geometry" />
        </mxCell>
        <mxCell id="dOUqNgxCJLWoSc9xT5iU-392" value="" style="shape=image;verticalLabelPosition=bottom;labelBackgroundColor=default;verticalAlign=top;aspect=fixed;imageAspect=0;image=https://icon-library.com/images/folder-icon-files/folder-icon-files-21.jpg;" parent="1" vertex="1">
          <mxGeometry x="140" y="2210" width="20" height="20" as="geometry" />
        </mxCell>
        <mxCell id="dOUqNgxCJLWoSc9xT5iU-393" value="" style="shape=image;verticalLabelPosition=bottom;labelBackgroundColor=default;verticalAlign=top;aspect=fixed;imageAspect=0;image=https://icon-library.com/images/folder-icon-files/folder-icon-files-21.jpg;" parent="1" vertex="1">
          <mxGeometry x="240" y="2210" width="20" height="20" as="geometry" />
        </mxCell>
        <mxCell id="dOUqNgxCJLWoSc9xT5iU-394" value="" style="shape=image;verticalLabelPosition=bottom;labelBackgroundColor=default;verticalAlign=top;aspect=fixed;imageAspect=0;image=https://icon-library.com/images/folder-icon-files/folder-icon-files-21.jpg;" parent="1" vertex="1">
          <mxGeometry x="190" y="2210" width="20" height="20" as="geometry" />
        </mxCell>
        <mxCell id="dOUqNgxCJLWoSc9xT5iU-395" value="" style="shape=image;verticalLabelPosition=bottom;labelBackgroundColor=default;verticalAlign=top;aspect=fixed;imageAspect=0;image=https://icon-library.com/images/folder-icon-files/folder-icon-files-21.jpg;" parent="1" vertex="1">
          <mxGeometry x="290" y="2210" width="20" height="20" as="geometry" />
        </mxCell>
        <mxCell id="dOUqNgxCJLWoSc9xT5iU-396" value="" style="endArrow=none;dashed=1;html=1;rounded=0;" parent="1" edge="1">
          <mxGeometry width="50" height="50" relative="1" as="geometry">
            <mxPoint x="130" y="2241" as="sourcePoint" />
            <mxPoint x="310" y="2241" as="targetPoint" />
          </mxGeometry>
        </mxCell>
        <mxCell id="dOUqNgxCJLWoSc9xT5iU-397" style="edgeStyle=orthogonalEdgeStyle;rounded=0;orthogonalLoop=1;jettySize=auto;html=1;entryX=-0.004;entryY=0.649;entryDx=0;entryDy=0;entryPerimeter=0;" parent="1" source="dOUqNgxCJLWoSc9xT5iU-398" target="dOUqNgxCJLWoSc9xT5iU-400" edge="1">
          <mxGeometry relative="1" as="geometry" />
        </mxCell>
        <mxCell id="dOUqNgxCJLWoSc9xT5iU-398" value="" style="html=1;whiteSpace=wrap;shape=isoCube2;backgroundOutline=1;isoAngle=15;strokeColor=#82b366;fillColor=#d5e8d4;" parent="1" vertex="1">
          <mxGeometry x="250" y="2260" width="45" height="50" as="geometry" />
        </mxCell>
        <mxCell id="dOUqNgxCJLWoSc9xT5iU-399" value="pfs client &lt;br&gt;kernel module" style="text;html=1;align=center;verticalAlign=middle;resizable=0;points=[];autosize=1;strokeColor=none;fillColor=none;" parent="1" vertex="1">
          <mxGeometry x="145" y="2265" width="90" height="30" as="geometry" />
        </mxCell>
        <mxCell id="dOUqNgxCJLWoSc9xT5iU-400" value="" style="rounded=1;whiteSpace=wrap;html=1;arcSize=9;fillColor=#f5f5f5;fontColor=#333333;strokeColor=#666666;dashed=1;" parent="1" vertex="1">
          <mxGeometry x="350" y="2220" width="80" height="100" as="geometry" />
        </mxCell>
        <mxCell id="dOUqNgxCJLWoSc9xT5iU-401" value="" style="shape=image;verticalLabelPosition=bottom;labelBackgroundColor=default;verticalAlign=top;aspect=fixed;imageAspect=0;image=https://kubernetes.io/images/favicon.png;" parent="1" vertex="1">
          <mxGeometry x="375" y="2260" width="30" height="30" as="geometry" />
        </mxCell>
        <mxCell id="dOUqNgxCJLWoSc9xT5iU-402" value="pfs cluster" style="text;html=1;align=center;verticalAlign=middle;resizable=0;points=[];autosize=1;strokeColor=none;fillColor=none;" parent="1" vertex="1">
          <mxGeometry x="355" y="2230" width="70" height="20" as="geometry" />
        </mxCell>
        <mxCell id="dOUqNgxCJLWoSc9xT5iU-403" value="mount" style="text;html=1;align=center;verticalAlign=middle;resizable=0;points=[];autosize=1;strokeColor=none;fillColor=none;" parent="1" vertex="1">
          <mxGeometry x="250" y="2180" width="50" height="20" as="geometry" />
        </mxCell>
        <mxCell id="dOUqNgxCJLWoSc9xT5iU-412" style="edgeStyle=orthogonalEdgeStyle;curved=1;rounded=0;orthogonalLoop=1;jettySize=auto;html=1;entryX=0.5;entryY=0;entryDx=0;entryDy=0;startArrow=none;startFill=0;endArrow=classic;endFill=1;" parent="1" source="dOUqNgxCJLWoSc9xT5iU-410" target="dOUqNgxCJLWoSc9xT5iU-393" edge="1">
          <mxGeometry relative="1" as="geometry" />
        </mxCell>
        <mxCell id="dOUqNgxCJLWoSc9xT5iU-410" value="" style="shape=image;html=1;verticalAlign=top;verticalLabelPosition=bottom;labelBackgroundColor=#ffffff;imageAspect=0;aspect=fixed;image=https://cdn4.iconfinder.com/data/icons/essentials-73/24/042_-_Apps-128.png" parent="1" vertex="1">
          <mxGeometry x="242.5" y="2080" width="15" height="15" as="geometry" />
        </mxCell>
        <mxCell id="dOUqNgxCJLWoSc9xT5iU-413" style="edgeStyle=orthogonalEdgeStyle;curved=1;rounded=0;orthogonalLoop=1;jettySize=auto;html=1;entryX=0.5;entryY=0;entryDx=0;entryDy=0;startArrow=none;startFill=0;endArrow=classic;endFill=1;" parent="1" source="dOUqNgxCJLWoSc9xT5iU-411" target="dOUqNgxCJLWoSc9xT5iU-395" edge="1">
          <mxGeometry relative="1" as="geometry" />
        </mxCell>
        <mxCell id="dOUqNgxCJLWoSc9xT5iU-411" value="" style="shape=image;html=1;verticalAlign=top;verticalLabelPosition=bottom;labelBackgroundColor=#ffffff;imageAspect=0;aspect=fixed;image=https://cdn4.iconfinder.com/data/icons/essentials-73/24/042_-_Apps-128.png" parent="1" vertex="1">
          <mxGeometry x="292.5" y="2080" width="15" height="15" as="geometry" />
        </mxCell>
        <mxCell id="dOUqNgxCJLWoSc9xT5iU-424" style="edgeStyle=orthogonalEdgeStyle;curved=1;rounded=0;orthogonalLoop=1;jettySize=auto;html=1;entryX=0.5;entryY=0;entryDx=0;entryDy=0;startArrow=none;startFill=0;endArrow=classic;endFill=1;" parent="1" source="dOUqNgxCJLWoSc9xT5iU-414" target="dOUqNgxCJLWoSc9xT5iU-423" edge="1">
          <mxGeometry relative="1" as="geometry" />
        </mxCell>
        <mxCell id="dOUqNgxCJLWoSc9xT5iU-414" value="" style="rounded=1;whiteSpace=wrap;html=1;arcSize=16;fillColor=#d5e8d4;strokeColor=#82b366;" parent="1" vertex="1">
          <mxGeometry x="120" y="2380" width="250" height="90" as="geometry" />
        </mxCell>
        <mxCell id="dOUqNgxCJLWoSc9xT5iU-416" value="RPC&lt;br&gt;server" style="rounded=1;whiteSpace=wrap;html=1;" parent="1" vertex="1">
          <mxGeometry x="130" y="2410" width="50" height="50" as="geometry" />
        </mxCell>
        <mxCell id="dOUqNgxCJLWoSc9xT5iU-417" value="state&lt;br&gt;machine" style="rounded=1;whiteSpace=wrap;html=1;" parent="1" vertex="1">
          <mxGeometry x="190" y="2410" width="50" height="50" as="geometry" />
        </mxCell>
        <mxCell id="dOUqNgxCJLWoSc9xT5iU-419" value="RPC&lt;br&gt;client" style="rounded=1;whiteSpace=wrap;html=1;" parent="1" vertex="1">
          <mxGeometry x="250" y="2410" width="50" height="50" as="geometry" />
        </mxCell>
        <mxCell id="dOUqNgxCJLWoSc9xT5iU-420" value="pfsmgr" style="text;html=1;align=center;verticalAlign=middle;resizable=0;points=[];autosize=1;strokeColor=none;fillColor=none;" parent="1" vertex="1">
          <mxGeometry x="220" y="2380" width="50" height="20" as="geometry" />
        </mxCell>
        <mxCell id="dOUqNgxCJLWoSc9xT5iU-425" value="" style="shape=image;verticalLabelPosition=bottom;labelBackgroundColor=default;verticalAlign=top;aspect=fixed;imageAspect=0;image=https://kubernetes.io/images/favicon.png;" parent="1" vertex="1">
          <mxGeometry x="235" y="2503.34" width="20" height="20" as="geometry" />
        </mxCell>
        <mxCell id="dOUqNgxCJLWoSc9xT5iU-426" value="" style="shape=image;verticalLabelPosition=bottom;labelBackgroundColor=default;verticalAlign=top;aspect=fixed;imageAspect=0;image=https://kubernetes.io/images/favicon.png;" parent="1" vertex="1">
          <mxGeometry x="340" y="2384" width="20" height="20" as="geometry" />
        </mxCell>
        <mxCell id="dOUqNgxCJLWoSc9xT5iU-427" value="" style="shape=image;verticalLabelPosition=bottom;labelBackgroundColor=default;verticalAlign=top;aspect=fixed;imageAspect=0;image=https://download.logo.wine/logo/MySQL/MySQL-Logo.wine.png;" parent="1" vertex="1">
          <mxGeometry x="285.03" y="2516.65" width="54.97" height="36.69" as="geometry" />
        </mxCell>
        <mxCell id="dOUqNgxCJLWoSc9xT5iU-428" value="infra&lt;br&gt;service" style="text;html=1;align=center;verticalAlign=middle;resizable=0;points=[];autosize=1;strokeColor=none;fillColor=none;" parent="1" vertex="1">
          <mxGeometry x="162" y="2521.34" width="48" height="32" as="geometry" />
        </mxCell>
        <mxCell id="dOUqNgxCJLWoSc9xT5iU-429" value="db&lt;br&gt;client" style="rounded=1;whiteSpace=wrap;html=1;" parent="1" vertex="1">
          <mxGeometry x="310" y="2410" width="50" height="50" as="geometry" />
        </mxCell>
        <mxCell id="dOUqNgxCJLWoSc9xT5iU-430" value="" style="rounded=1;whiteSpace=wrap;html=1;arcSize=6;" parent="1" vertex="1">
          <mxGeometry x="70" y="2680" width="170" height="200" as="geometry" />
        </mxCell>
        <mxCell id="dOUqNgxCJLWoSc9xT5iU-431" value="" style="group" parent="1" vertex="1" connectable="0">
          <mxGeometry x="90" y="2720" width="40" height="70" as="geometry" />
        </mxCell>
        <mxCell id="dOUqNgxCJLWoSc9xT5iU-432" value="" style="rounded=1;whiteSpace=wrap;html=1;fillColor=#fff2cc;strokeColor=#d6b656;" parent="dOUqNgxCJLWoSc9xT5iU-431" vertex="1">
          <mxGeometry width="40" height="70" as="geometry" />
        </mxCell>
        <mxCell id="dOUqNgxCJLWoSc9xT5iU-433" value="pod" style="text;html=1;align=center;verticalAlign=middle;resizable=0;points=[];autosize=1;strokeColor=none;fillColor=none;" parent="dOUqNgxCJLWoSc9xT5iU-431" vertex="1">
          <mxGeometry width="40" height="20" as="geometry" />
        </mxCell>
        <mxCell id="dOUqNgxCJLWoSc9xT5iU-434" value="mgr" style="text;html=1;align=center;verticalAlign=middle;resizable=0;points=[];autosize=1;strokeColor=none;fillColor=none;" parent="dOUqNgxCJLWoSc9xT5iU-431" vertex="1">
          <mxGeometry y="35" width="40" height="20" as="geometry" />
        </mxCell>
        <mxCell id="dOUqNgxCJLWoSc9xT5iU-435" value="" style="group" parent="1" vertex="1" connectable="0">
          <mxGeometry x="90" y="2800" width="40" height="70" as="geometry" />
        </mxCell>
        <mxCell id="dOUqNgxCJLWoSc9xT5iU-436" value="" style="rounded=1;whiteSpace=wrap;html=1;fillColor=#fff2cc;strokeColor=#d6b656;" parent="dOUqNgxCJLWoSc9xT5iU-435" vertex="1">
          <mxGeometry width="40" height="70" as="geometry" />
        </mxCell>
        <mxCell id="dOUqNgxCJLWoSc9xT5iU-437" value="pod" style="text;html=1;align=center;verticalAlign=middle;resizable=0;points=[];autosize=1;strokeColor=none;fillColor=none;" parent="dOUqNgxCJLWoSc9xT5iU-435" vertex="1">
          <mxGeometry width="40" height="20" as="geometry" />
        </mxCell>
        <mxCell id="dOUqNgxCJLWoSc9xT5iU-438" value="infra" style="text;html=1;align=center;verticalAlign=middle;resizable=0;points=[];autosize=1;strokeColor=none;fillColor=none;" parent="dOUqNgxCJLWoSc9xT5iU-435" vertex="1">
          <mxGeometry y="35" width="40" height="20" as="geometry" />
        </mxCell>
        <mxCell id="dOUqNgxCJLWoSc9xT5iU-439" value="" style="group" parent="1" vertex="1" connectable="0">
          <mxGeometry x="140" y="2800" width="45" height="70" as="geometry" />
        </mxCell>
        <mxCell id="dOUqNgxCJLWoSc9xT5iU-440" value="" style="rounded=1;whiteSpace=wrap;html=1;fillColor=#fff2cc;strokeColor=#d6b656;" parent="dOUqNgxCJLWoSc9xT5iU-439" vertex="1">
          <mxGeometry width="40" height="70" as="geometry" />
        </mxCell>
        <mxCell id="dOUqNgxCJLWoSc9xT5iU-441" value="pod" style="text;html=1;align=center;verticalAlign=middle;resizable=0;points=[];autosize=1;strokeColor=none;fillColor=none;" parent="dOUqNgxCJLWoSc9xT5iU-439" vertex="1">
          <mxGeometry width="40" height="20" as="geometry" />
        </mxCell>
        <mxCell id="dOUqNgxCJLWoSc9xT5iU-442" value="mysql" style="text;html=1;align=center;verticalAlign=middle;resizable=0;points=[];autosize=1;strokeColor=none;fillColor=none;" parent="dOUqNgxCJLWoSc9xT5iU-439" vertex="1">
          <mxGeometry x="-5" y="35" width="50" height="20" as="geometry" />
        </mxCell>
        <mxCell id="dOUqNgxCJLWoSc9xT5iU-443" value="" style="group" parent="1" vertex="1" connectable="0">
          <mxGeometry x="190" y="2800" width="45" height="70" as="geometry" />
        </mxCell>
        <mxCell id="dOUqNgxCJLWoSc9xT5iU-444" value="" style="rounded=1;whiteSpace=wrap;html=1;fillColor=#fff2cc;strokeColor=#d6b656;" parent="dOUqNgxCJLWoSc9xT5iU-443" vertex="1">
          <mxGeometry width="40" height="70" as="geometry" />
        </mxCell>
        <mxCell id="dOUqNgxCJLWoSc9xT5iU-445" value="pod" style="text;html=1;align=center;verticalAlign=middle;resizable=0;points=[];autosize=1;strokeColor=none;fillColor=none;" parent="dOUqNgxCJLWoSc9xT5iU-443" vertex="1">
          <mxGeometry width="40" height="20" as="geometry" />
        </mxCell>
        <mxCell id="dOUqNgxCJLWoSc9xT5iU-446" value="zoo&lt;br&gt;keeper" style="text;html=1;align=center;verticalAlign=middle;resizable=0;points=[];autosize=1;strokeColor=none;fillColor=none;" parent="dOUqNgxCJLWoSc9xT5iU-443" vertex="1">
          <mxGeometry x="-5" y="30" width="50" height="30" as="geometry" />
        </mxCell>
        <mxCell id="dOUqNgxCJLWoSc9xT5iU-455" value="node" style="rounded=1;whiteSpace=wrap;html=1;" parent="1" vertex="1">
          <mxGeometry x="360" y="2680" width="80" height="40" as="geometry" />
        </mxCell>
        <mxCell id="dOUqNgxCJLWoSc9xT5iU-456" value="storage" style="rounded=1;whiteSpace=wrap;html=1;fillColor=#fff2cc;strokeColor=#d6b656;" parent="1" vertex="1">
          <mxGeometry x="360" y="2750" width="80" height="40" as="geometry" />
        </mxCell>
        <mxCell id="dOUqNgxCJLWoSc9xT5iU-460" value=". . ." style="rounded=1;whiteSpace=wrap;html=1;fillColor=#fff2cc;strokeColor=#d6b656;" parent="1" vertex="1">
          <mxGeometry x="520" y="2750" width="80" height="40" as="geometry" />
        </mxCell>
        <mxCell id="dOUqNgxCJLWoSc9xT5iU-461" value="storage" style="rounded=1;whiteSpace=wrap;html=1;fillColor=#fff2cc;strokeColor=#d6b656;" parent="1" vertex="1">
          <mxGeometry x="440" y="2750" width="80" height="40" as="geometry" />
        </mxCell>
        <mxCell id="dOUqNgxCJLWoSc9xT5iU-462" value="" style="endArrow=none;dashed=1;html=1;rounded=0;curved=1;exitX=0;exitY=0;exitDx=0;exitDy=0;entryX=0;entryY=0.75;entryDx=0;entryDy=0;" parent="1" edge="1">
          <mxGeometry width="50" height="50" relative="1" as="geometry">
            <mxPoint x="360" y="2750" as="sourcePoint" />
            <mxPoint x="360" y="2710" as="targetPoint" />
          </mxGeometry>
        </mxCell>
        <mxCell id="dOUqNgxCJLWoSc9xT5iU-463" value="" style="endArrow=none;dashed=1;html=1;rounded=0;curved=1;entryX=1.005;entryY=0.914;entryDx=0;entryDy=0;exitX=0.949;exitY=-0.003;exitDx=0;exitDy=0;exitPerimeter=0;entryPerimeter=0;" parent="1" source="dOUqNgxCJLWoSc9xT5iU-460" target="dOUqNgxCJLWoSc9xT5iU-455" edge="1">
          <mxGeometry width="50" height="50" relative="1" as="geometry">
            <mxPoint x="556.19" y="2749.9199999999996" as="sourcePoint" />
            <mxPoint x="442.25" y="2720" as="targetPoint" />
          </mxGeometry>
        </mxCell>
        <mxCell id="dOUqNgxCJLWoSc9xT5iU-464" value="target" style="rounded=1;whiteSpace=wrap;html=1;" parent="1" vertex="1">
          <mxGeometry x="360" y="2820" width="80" height="40" as="geometry" />
        </mxCell>
        <mxCell id="dOUqNgxCJLWoSc9xT5iU-465" value="target" style="rounded=1;whiteSpace=wrap;html=1;" parent="1" vertex="1">
          <mxGeometry x="530" y="2820" width="80" height="40" as="geometry" />
        </mxCell>
        <mxCell id="dOUqNgxCJLWoSc9xT5iU-466" value="target" style="rounded=1;whiteSpace=wrap;html=1;" parent="1" vertex="1">
          <mxGeometry x="440" y="2820" width="80" height="40" as="geometry" />
        </mxCell>
        <mxCell id="dOUqNgxCJLWoSc9xT5iU-467" value=". . ." style="rounded=1;whiteSpace=wrap;html=1;" parent="1" vertex="1">
          <mxGeometry x="620" y="2820" width="80" height="40" as="geometry" />
        </mxCell>
        <mxCell id="dOUqNgxCJLWoSc9xT5iU-469" style="edgeStyle=orthogonalEdgeStyle;curved=1;rounded=0;orthogonalLoop=1;jettySize=auto;html=1;entryX=0.5;entryY=1;entryDx=0;entryDy=0;startArrow=none;startFill=0;endArrow=classic;endFill=1;" parent="1" source="dOUqNgxCJLWoSc9xT5iU-468" target="dOUqNgxCJLWoSc9xT5iU-466" edge="1">
          <mxGeometry relative="1" as="geometry" />
        </mxCell>
        <mxCell id="dOUqNgxCJLWoSc9xT5iU-470" style="edgeStyle=orthogonalEdgeStyle;curved=1;rounded=0;orthogonalLoop=1;jettySize=auto;html=1;entryX=0.5;entryY=1;entryDx=0;entryDy=0;startArrow=none;startFill=0;endArrow=classic;endFill=1;exitX=0.5;exitY=0;exitDx=0;exitDy=0;" parent="1" source="dOUqNgxCJLWoSc9xT5iU-468" target="dOUqNgxCJLWoSc9xT5iU-467" edge="1">
          <mxGeometry relative="1" as="geometry" />
        </mxCell>
        <mxCell id="dOUqNgxCJLWoSc9xT5iU-473" style="edgeStyle=orthogonalEdgeStyle;curved=1;rounded=0;orthogonalLoop=1;jettySize=auto;html=1;entryX=0.5;entryY=1;entryDx=0;entryDy=0;startArrow=none;startFill=0;endArrow=classic;endFill=1;" parent="1" source="dOUqNgxCJLWoSc9xT5iU-468" target="dOUqNgxCJLWoSc9xT5iU-465" edge="1">
          <mxGeometry relative="1" as="geometry" />
        </mxCell>
        <mxCell id="dOUqNgxCJLWoSc9xT5iU-468" value="pool" style="rounded=1;whiteSpace=wrap;html=1;" parent="1" vertex="1">
          <mxGeometry x="490" y="2902" width="80" height="40" as="geometry" />
        </mxCell>
        <mxCell id="dOUqNgxCJLWoSc9xT5iU-471" value="" style="endArrow=none;dashed=1;html=1;rounded=0;curved=1;exitX=0;exitY=0;exitDx=0;exitDy=0;entryX=0;entryY=0.75;entryDx=0;entryDy=0;" parent="1" edge="1">
          <mxGeometry width="50" height="50" relative="1" as="geometry">
            <mxPoint x="360" y="2830" as="sourcePoint" />
            <mxPoint x="360" y="2790" as="targetPoint" />
          </mxGeometry>
        </mxCell>
        <mxCell id="dOUqNgxCJLWoSc9xT5iU-472" value="" style="endArrow=none;dashed=1;html=1;rounded=0;curved=1;entryX=0;entryY=1;entryDx=0;entryDy=0;exitX=0.925;exitY=-0.022;exitDx=0;exitDy=0;exitPerimeter=0;" parent="1" source="dOUqNgxCJLWoSc9xT5iU-466" target="dOUqNgxCJLWoSc9xT5iU-461" edge="1">
          <mxGeometry width="50" height="50" relative="1" as="geometry">
            <mxPoint x="590" y="2820" as="sourcePoint" />
            <mxPoint x="434.4800000000001" y="2790.0000000000005" as="targetPoint" />
          </mxGeometry>
        </mxCell>
        <mxCell id="jO0uP_cr14RkDVU0Fb3T-1" value="message queue" style="text;html=1;align=center;verticalAlign=middle;resizable=0;points=[];autosize=1;strokeColor=none;fillColor=none;" vertex="1" parent="1">
          <mxGeometry x="300" y="330" width="100" height="20" as="geometry" />
        </mxCell>
        <mxCell id="jO0uP_cr14RkDVU0Fb3T-2" value="thread pool" style="text;html=1;align=center;verticalAlign=middle;resizable=0;points=[];autosize=1;strokeColor=none;fillColor=none;" vertex="1" parent="1">
          <mxGeometry x="435" y="380" width="80" height="20" as="geometry" />
        </mxCell>
      </root>
    </mxGraphModel>
  </diagram>
</mxfile>
